<?xml version="1.0" standalone="no"?>
<!DOCTYPE svg PUBLIC "-//W3C//DTD SVG 1.1//EN" "http://www.w3.org/Graphics/SVG/1.1/DTD/svg11.dtd" >
<svg xmlns="http://www.w3.org/2000/svg" xmlns:xlink="http://www.w3.org/1999/xlink" version="1.1">
<metadata>
Created by FontForge 20170731 at Wed Oct  1 18:49:19 2014
 By Aleksey,,,
Copyright (c) 2013 by Rene' Bieder. All rights reserved.
</metadata>
<defs>
<font id="CanaroW00-Medium" horiz-adv-x="600" >
  <font-face 
    font-family="CanaroW00-Medium"
    font-weight="600"
    font-stretch="normal"
    units-per-em="1000"
    panose-1="1 0 0 0 0 0 0 0 0 0"
    ascent="800"
    descent="-200"
    x-height="473"
    cap-height="680"
    bbox="-49 -272 1431 940"
    underline-thickness="50"
    underline-position="-225"
    unicode-range="U+0020-FB02"
  />
<missing-glyph horiz-adv-x="870" 
d="M770 0h-670v680h670v-680zM219 610l481 -481v481h-481zM647 70l-477 477v-477h477z" />
    <glyph glyph-name=".notdef" horiz-adv-x="870" 
d="M770 0h-670v680h670v-680zM219 610l481 -481v481h-481zM647 70l-477 477v-477h477z" />
    <glyph glyph-name=".null" horiz-adv-x="0" 
 />
    <glyph glyph-name="nonmarkingreturn" horiz-adv-x="333" 
 />
    <glyph glyph-name="space" unicode=" " horiz-adv-x="237" 
 />
    <glyph glyph-name="exclam" unicode="!" horiz-adv-x="250" 
d="M181 193h-114l-7 487h128zM126 -17q-32 0 -54.5 21.5t-22.5 53.5t22.5 53t54.5 21t55 -21t23 -53t-23 -53.5t-55 -21.5z" />
    <glyph glyph-name="quotedbl" unicode="&#x22;" horiz-adv-x="399" 
d="M169 517h-105v250h127zM332 517h-105l1 250h127z" />
    <glyph glyph-name="numbersign" unicode="#" horiz-adv-x="761" 
d="M674 276v-104h-148l-54 -172h-119l54 172h-156l-54 -172h-119l54 172h-99v104h131l35 112h-111v104h144l59 189h119l-59 -189h156l59 189h119l-59 -189h103v-104h-135l-35 -112h115zM284 276h155l35 112h-155z" />
    <glyph glyph-name="dollar" unicode="$" horiz-adv-x="679" 
d="M615 197q0 -47 -16 -83.5t-44.5 -63t-68.5 -42t-89 -20.5v-108h-104v107q-54 4 -114 17t-120 38l29 112q75 -30 142 -43t119 -13q66 0 105.5 20.5t39.5 66.5q0 30 -17 48t-45.5 29.5t-64.5 18.5t-73 15q-56 12 -97 27.5t-67 38t-38.5 53t-12.5 72.5q0 85 58 137.5
t156 63.5v115h104v-116q58 -5 111 -17t88 -26l-31 -106q-62 20 -124.5 31.5t-107.5 11.5q-59 0 -93 -22t-34 -67q0 -22 11 -37t33 -25.5t54 -18.5t73 -16q56 -11 100.5 -26t75 -37.5t46.5 -55t16 -79.5z" />
    <glyph glyph-name="percent" unicode="%" horiz-adv-x="1085" 
d="M278 695q41 0 76.5 -14t61.5 -39t41 -61t15 -79q0 -44 -15 -80.5t-41 -62t-61.5 -39.5t-76.5 -14q-42 0 -77.5 14t-61.5 39.5t-41 62t-15 80.5q0 43 15 79t41 61t61.5 39t77.5 14zM273 0l462 680h64l-462 -680h-64zM278 389q22 0 41.5 8t34 23t23 35.5t8.5 46.5
q0 50 -31 80t-76 30q-46 0 -77 -30t-31 -80q0 -51 31 -82t77 -31zM807 374q42 0 77.5 -14t61.5 -39.5t41 -61.5t15 -79q0 -44 -15 -80t-41 -61.5t-61.5 -39.5t-77.5 -14q-41 0 -76.5 14t-61.5 39.5t-41 61.5t-15 80q0 43 15 79t41 61.5t61.5 39.5t76.5 14zM807 68
q45 0 76.5 30.5t31.5 81.5q0 25 -8.5 45.5t-23 35t-34.5 22.5t-42 8q-45 0 -76 -30.5t-31 -80.5q0 -51 31 -81.5t76 -30.5z" />
    <glyph glyph-name="ampersand" unicode="&#x26;" horiz-adv-x="646" 
d="M551 205q0 -50 -18.5 -90.5t-52 -69t-81.5 -44.5t-107 -16t-106.5 15t-81 43t-52 66.5t-18.5 86.5q0 56 29.5 96t86.5 61q-80 40 -80 140q0 45 17.5 82t49.5 63t77 40.5t100 14.5q34 0 69 -4.5t70 -15.5l-22 -99q-68 17 -121 17q-58 0 -93 -25.5t-35 -67.5q0 -23 5 -41
t17.5 -30.5t34 -19t53.5 -6.5h331v-99h-72v-97zM292 302q-75 0 -110.5 -28.5t-35.5 -73.5q0 -51 39.5 -82t106.5 -31q68 0 107.5 32t39.5 86v97h-147z" />
    <glyph glyph-name="quotesingle" unicode="'" horiz-adv-x="236" 
d="M169 517h-105l1 250h127z" />
    <glyph glyph-name="parenleft" unicode="(" horiz-adv-x="351" 
d="M317 719q-32 -48 -61.5 -97t-51.5 -103.5t-35 -117.5t-13 -139t13 -139t35 -118t51.5 -103.5t61.5 -96.5l-84 -54q-89 109 -138 239t-49 272t49 272.5t138 237.5z" />
    <glyph glyph-name="parenright" unicode=")" horiz-adv-x="348" 
d="M115 772q89 -107 138 -237.5t49 -272.5t-49 -272t-138 -239l-84 54q32 48 61.5 96.5t51.5 103.5t35 118t13 139t-13 139t-35 117.5t-51.5 103.5t-61.5 97z" />
    <glyph glyph-name="asterisk" unicode="*" horiz-adv-x="392" 
d="M325 410l-96 58v-101h-66v101l-95 -58l-33 57l98 59l-98 59l33 58l95 -58v100h66v-100l96 58l32 -58l-98 -59l98 -59z" />
    <glyph glyph-name="plus" unicode="+" horiz-adv-x="685" 
d="M398 92h-110v185h-184v106h184v186h110v-186h183v-106h-183v-185z" />
    <glyph glyph-name="comma" unicode="," horiz-adv-x="303" 
d="M118 -4q-26 11 -38.5 29t-12.5 41q0 34 24.5 57.5t59.5 23.5q36 0 61 -23.5t25 -57.5q0 -13 -2.5 -23.5t-12 -30t-28 -53.5t-49.5 -92h-84z" />
    <glyph glyph-name="hyphen" unicode="-" horiz-adv-x="523" 
d="M418 205h-314v115h314v-115z" />
    <glyph glyph-name="period" unicode="." horiz-adv-x="302" 
d="M150 -17q-35 0 -59.5 23.5t-24.5 58.5t24.5 58.5t59.5 23.5q36 0 61 -23.5t25 -58.5t-25 -58.5t-61 -23.5z" />
    <glyph glyph-name="slash" unicode="/" horiz-adv-x="507" 
d="M4 -272l385 1040h102l-384 -1040h-103z" />
    <glyph glyph-name="zero" unicode="0" horiz-adv-x="750" 
d="M375 695q72 0 131 -25.5t100.5 -72t64.5 -112t23 -145.5t-23 -145.5t-64.5 -112t-100.5 -72t-131 -25.5t-130.5 25.5t-100.5 72t-65 112t-23 145.5t23 145.5t65 112t100.5 72t130.5 25.5zM375 98q44 0 80 17.5t61.5 49t39.5 76.5t14 99t-14 99t-39.5 76.5t-61.5 49
t-80 17.5t-80 -17.5t-61.5 -49t-39.5 -76.5t-14 -99t14 -99t39.5 -76.5t61.5 -49t80 -17.5z" />
    <glyph glyph-name="one" unicode="1" horiz-adv-x="426" 
d="M210 0v546l-171 -45l-27 96l283 83h34v-680h-119z" />
    <glyph glyph-name="two" unicode="2" horiz-adv-x="584" 
d="M60 0v79l238 231q20 19 39 37.5t33.5 37.5t23 39.5t8.5 43.5q0 59 -39 87.5t-101 28.5q-31 0 -75 -8.5t-103 -31.5l-27 103q47 20 107 34t119 14q61 0 107 -17.5t76 -46.5t45 -67t15 -80q0 -38 -13.5 -72.5t-37 -67.5t-54.5 -65t-66 -65l-124 -106h305v-108h-476z" />
    <glyph glyph-name="three" unicode="3" horiz-adv-x="595" 
d="M332 390h8q97 -8 152.5 -58t55.5 -128q0 -99 -67.5 -159t-199.5 -60q-59 0 -120.5 13t-118.5 43l42 94q50 -23 101.5 -35.5t99.5 -12.5q63 0 102.5 31t39.5 82q0 43 -37.5 67.5t-103.5 24.5h-121v56l193 224h-290v108h453v-73z" />
    <glyph glyph-name="four" unicode="4" horiz-adv-x="667" 
d="M633 220v-102h-81v-118h-118v118h-393v82l393 480h118v-460h81zM434 220v304l-240 -304h240z" />
    <glyph glyph-name="five" unicode="5" horiz-adv-x="614" 
d="M311 419q56 -3 102 -18t78.5 -41.5t50 -63.5t17.5 -84q0 -50 -18.5 -91.5t-52 -71.5t-80.5 -47t-104 -17q-75 0 -134.5 13.5t-117.5 43.5l39 103q51 -23 101 -37t107 -14q61 0 99.5 31.5t38.5 82.5q0 45 -38.5 73t-104.5 31l-195 9l30 359h405v-112h-302l-13 -144z" />
    <glyph glyph-name="six" unicode="6" horiz-adv-x="631" 
d="M315 480q60 0 110 -17t86 -48.5t56 -76t20 -100.5q0 -57 -20 -103.5t-56 -79.5t-86 -51.5t-110 -18.5t-110 18.5t-85.5 51.5t-55.5 79.5t-20 103.5q0 44 17 82t46 80l202 280h142l-145 -200h9zM315 86q34 0 63 11t50 30.5t32.5 47.5t11.5 63q0 33 -11.5 60.5t-32.5 47
t-50 30t-63 10.5q-72 0 -114.5 -41t-42.5 -107q0 -35 11.5 -63t32.5 -47.5t50 -30.5t63 -11z" />
    <glyph glyph-name="seven" unicode="7" horiz-adv-x="561" 
d="M262 0h-130l259 568h-352v112h492v-72z" />
    <glyph glyph-name="eight" unicode="8" horiz-adv-x="629" 
d="M459 353q65 -25 96.5 -67t31.5 -99q0 -44 -19.5 -81t-55.5 -64t-86 -42t-111 -15t-111 15t-85.5 42t-55 64t-19.5 81q0 57 31 99t96 67q-51 23 -75 61t-24 92q0 43 18 77.5t50 59.5t76.5 38.5t98.5 13.5t98.5 -13.5t76.5 -38.5t49.5 -59.5t17.5 -77.5q0 -54 -23.5 -92
t-74.5 -61zM195 500q0 -46 33 -74t87 -28t87 28t33 74q0 43 -33 70.5t-87 27.5t-87 -27.5t-33 -70.5zM315 86q33 0 59.5 8.5t45.5 23.5t29.5 34.5t10.5 40.5q0 48 -39.5 77.5t-105.5 29.5t-106 -29.5t-40 -77.5q0 -21 10.5 -40.5t30 -34.5t46 -23.5t59.5 -8.5z" />
    <glyph glyph-name="nine" unicode="9" horiz-adv-x="635" 
d="M313 695q60 0 110 -18.5t86 -51.5t56 -79.5t20 -103.5q0 -44 -15 -80.5t-37 -67.5l-205 -294h-137l140 200h-18q-60 0 -110 17t-86 48.5t-56 76t-20 100.5q0 57 20 103.5t56 79.5t86 51.5t110 18.5zM157 442q0 -33 11.5 -60.5t32.5 -47t49.5 -30t62.5 -10.5
q72 0 114.5 41t42.5 107q0 34 -11.5 62.5t-32.5 48t-50 30.5t-63 11t-62.5 -11t-49.5 -30.5t-32.5 -48t-11.5 -62.5z" />
    <glyph glyph-name="colon" unicode=":" horiz-adv-x="302" 
d="M150 324q-35 0 -59.5 23.5t-24.5 58.5t24.5 58.5t59.5 23.5q36 0 61 -23.5t25 -58.5t-25 -58.5t-61 -23.5zM151 -17q-35 0 -60 23.5t-25 58.5q0 17 6.5 32t18 26t27 17.5t33.5 6.5t33.5 -6.5t27 -17.5t18 -26t6.5 -32q0 -35 -25 -58.5t-60 -23.5z" />
    <glyph glyph-name="semicolon" unicode=";" horiz-adv-x="310" 
d="M159 324q-35 0 -60 23.5t-25 58.5q0 18 7 33t18.5 26t27 17t32.5 6q35 0 60.5 -23.5t25.5 -58.5q0 -17 -7 -32t-18.5 -26t-27 -17.5t-33.5 -6.5zM118 -4q-52 21 -52 70q0 34 25 57.5t60 23.5q18 0 33.5 -6.5t27 -17.5t18.5 -25.5t7 -31.5q0 -13 -2.5 -23.5t-12 -30
t-28 -53.5t-49.5 -92h-84z" />
    <glyph glyph-name="less" unicode="&#x3c;" horiz-adv-x="545" 
d="M473 440l-294 -135l294 -135v-116l-422 193v115l422 193v-115z" />
    <glyph glyph-name="equal" unicode="=" horiz-adv-x="691" 
d="M104 369v107h482v-107h-482zM104 171v106h482v-106h-482z" />
    <glyph glyph-name="greater" unicode="&#x3e;" horiz-adv-x="545" 
d="M71 54v116l294 135l-294 135v115l422 -193v-115z" />
    <glyph glyph-name="question" unicode="?" horiz-adv-x="501" 
d="M235 695q54 0 98 -15t75.5 -43t49 -66.5t17.5 -86.5q0 -46 -16 -85t-45 -67.5t-68.5 -44.5t-87.5 -16h-13l3 -78h-107l-18 174h111q59 0 94 33.5t35 87.5q0 48 -34 76.5t-90 28.5q-43 0 -85 -4.5t-89 -12.5l-17 96q46 11 91 17t96 6zM196 132q32 0 55 -21t23 -53
t-23 -53.5t-55 -21.5t-54.5 21.5t-22.5 53.5t22.5 53t54.5 21z" />
    <glyph glyph-name="at" unicode="@" horiz-adv-x="1024" 
d="M512 690q103 0 187 -32t144 -90t93 -140t33 -182q0 -64 -16.5 -110.5t-45.5 -76.5t-68 -44.5t-84 -14.5q-48 0 -79 14.5t-47 47.5q-36 -29 -75 -46t-89 -17t-90.5 17.5t-69.5 50t-45 77.5t-16 100q1 52 16 95.5t44 75t71.5 48.5t96.5 17q52 0 90.5 -2.5t67.5 -6t51 -7.5
t40 -6v-299q0 -43 10 -62.5t42 -19.5q25 0 49.5 7.5t43.5 26t31 51.5t12 84q0 87 -28.5 158t-81 122t-125.5 78.5t-162 27.5q-84 0 -157 -29.5t-126 -81t-83.5 -122.5t-30.5 -153q0 -83 27.5 -153.5t77 -122.5t119 -81.5t153.5 -30.5q65 0 127.5 10t137.5 27l11 -54
q-73 -19 -138.5 -30t-137.5 -11q-98 0 -178.5 34t-138 93.5t-89 141t-31.5 177.5q0 95 34.5 176.5t96 141t145 93t181.5 33.5zM489 387q-37 0 -63 -11.5t-42.5 -31t-24 -46.5t-7.5 -58q0 -32 9 -59.5t25.5 -47t40 -30.5t52.5 -11q33 0 66 11.5t68 38.5q-1 9 -1.5 18t-0.5 19
v200q-28 5 -57.5 6.5t-64.5 1.5z" />
    <glyph glyph-name="A" unicode="A" horiz-adv-x="780" 
d="M160 0h-136l310 684h112l309 -684h-134l-62 139h-339zM267 247h246l-123 281z" />
    <glyph glyph-name="B" unicode="B" horiz-adv-x="680" 
d="M473 347q74 -14 116.5 -57t42.5 -103q0 -96 -68.5 -146t-189.5 -50q-32 0 -71.5 1t-79.5 2t-76.5 2.5t-61.5 3.5v680q24 1 57.5 1.5t70.5 1.5t75 1.5t73 0.5q115 0 176.5 -46t61.5 -133q0 -59 -33 -101t-93 -58zM347 580q-34 0 -70.5 -1t-71.5 -1v-188h155q58 0 92 26.5
t34 71.5q0 49 -34.5 70.5t-104.5 21.5zM360 97q74 0 114 24t40 76q0 45 -36.5 68t-96.5 23h-176v-187q42 -2 82 -3t73 -1z" />
    <glyph glyph-name="C" unicode="C" horiz-adv-x="729" 
d="M647 551q-60 14 -108 21t-90 7q-65 0 -115 -18t-83.5 -49.5t-50.5 -75t-17 -94.5q0 -55 18 -100t51.5 -77t80.5 -49.5t104 -17.5q40 0 95.5 8t117.5 22l22 -105q-59 -17 -121.5 -27.5t-119.5 -10.5q-84 0 -153.5 25.5t-118.5 72t-76 112.5t-27 146q0 79 27 144.5
t76.5 112t119 72t154.5 25.5q62 0 120.5 -8t115.5 -23z" />
    <glyph glyph-name="D" unicode="D" horiz-adv-x="741" 
d="M324 689q79 0 145.5 -24.5t114.5 -70t74.5 -109.5t26.5 -142q0 -80 -26.5 -144.5t-72.5 -110.5t-108.5 -71t-135.5 -25q-35 0 -72.5 0.5t-72 2t-64 2.5t-48.5 3v680q19 1 46.5 2.5t60 3t66.5 2.5t66 1zM342 102q45 0 84.5 17t69 48.5t46.5 76t17 99.5q0 54 -17.5 97
t-48.5 74t-74 47.5t-95 16.5q-28 0 -58.5 -1t-60.5 -3v-468q34 -2 69.5 -3t67.5 -1z" />
    <glyph glyph-name="E" unicode="E" horiz-adv-x="634" 
d="M536 395v-110h-331v-174h373v-111h-493v680h493v-111h-373v-174h331z" />
    <glyph glyph-name="F" unicode="F" horiz-adv-x="598" 
d="M522 368v-111h-317v-257h-120v680h480v-111h-360v-201h317z" />
    <glyph glyph-name="G" unicode="G" horiz-adv-x="800" 
d="M733 59q-82 -35 -160.5 -54.5t-153.5 -19.5q-82 0 -149 25.5t-114.5 72.5t-73.5 113t-26 147q0 79 27.5 144t77 111t119.5 71.5t156 25.5q50 0 110.5 -7t123.5 -23l-24 -112q-142 26 -201 26t-107.5 -17t-83 -48t-53.5 -74.5t-19 -96.5q0 -54 17 -98.5t48 -76t75 -49
t97 -17.5q45 0 98.5 8t101.5 22v148h-245v111h359v-332z" />
    <glyph glyph-name="H" unicode="H" horiz-adv-x="759" 
d="M555 0v278h-350v-278h-120v680h120v-291h350v291h119v-680h-119z" />
    <glyph glyph-name="I" unicode="I" horiz-adv-x="290" 
d="M205 0h-120v680h120v-680z" />
    <glyph glyph-name="J" unicode="J" horiz-adv-x="564" 
d="M489 262q0 -65 -17.5 -116.5t-49.5 -87t-76.5 -54.5t-99.5 -19q-31 0 -57.5 2t-53.5 7t-56 12.5t-64 18.5l22 107q36 -9 64 -15t52.5 -9.5t46.5 -5t46 -1.5q53 0 87.5 41t34.5 119v419h121v-418z" />
    <glyph glyph-name="K" unicode="K" horiz-adv-x="703" 
d="M205 0h-120v680h120v-310h54l260 310h149l-270 -321l283 -359h-148l-206 253h-122v-253z" />
    <glyph glyph-name="L" unicode="L" horiz-adv-x="596" 
d="M85 0v680h120v-572h358v-108h-478z" />
    <glyph glyph-name="M" unicode="M" horiz-adv-x="934" 
d="M520 0h-106l-195 412l-27 -412h-117l39 680h113l240 -536l239 536h114l39 -680h-117l-27 412z" />
    <glyph glyph-name="N" unicode="N" horiz-adv-x="779" 
d="M694 0h-114l-375 476v-476h-120v680h111l379 -481v481h119v-680z" />
    <glyph glyph-name="O" unicode="O" horiz-adv-x="837" 
d="M419 695q79 0 145.5 -25.5t114.5 -72t75 -112t27 -145.5t-27 -145.5t-75 -112t-114.5 -72t-145.5 -25.5q-80 0 -146.5 25.5t-114.5 72t-75 112t-27 145.5t27 145.5t75 112t114.5 72t146.5 25.5zM419 98q51 0 94.5 17.5t75 49t49 76.5t17.5 99t-17.5 99t-49 76.5t-75 49
t-94.5 17.5q-52 0 -95.5 -17.5t-75 -49t-49 -76.5t-17.5 -99t17.5 -99t49 -76.5t75 -49t95.5 -17.5z" />
    <glyph glyph-name="P" unicode="P" horiz-adv-x="644" 
d="M328 689q62 0 113.5 -16.5t88.5 -47t57.5 -74.5t20.5 -99q0 -54 -20.5 -98t-57.5 -75.5t-88.5 -49t-113.5 -17.5h-123v-212h-120v680q49 3 112.5 6t130.5 3zM341 321q32 0 59.5 9t47.5 26t31.5 41t11.5 54q0 31 -11.5 54.5t-31.5 39.5t-47.5 24.5t-59.5 8.5
q-35 0 -68.5 -1t-67.5 -3v-253h136z" />
    <glyph glyph-name="Q" unicode="Q" horiz-adv-x="837" 
d="M781 340q0 -114 -52.5 -197t-143.5 -124l160 -184h-151l-134 152q-11 -1 -21 -1.5t-21 -0.5q-80 0 -146.5 25.5t-114.5 72t-74.5 112t-26.5 145.5t26.5 145.5t74.5 112t114.5 72t146.5 25.5q79 0 146 -25.5t115 -72t75 -112t27 -145.5zM182 340q0 -54 17.5 -99t49 -76.5
t75 -49t95.5 -17.5q51 0 94.5 17.5t75 49t49 76.5t17.5 99t-17.5 99t-49 76.5t-75 49t-94.5 17.5q-52 0 -95.5 -17.5t-75 -49t-49 -76.5t-17.5 -99z" />
    <glyph glyph-name="R" unicode="R" horiz-adv-x="671" 
d="M350 221q-12 -1 -24 -1h-25h-96v-220h-120v680q20 1 49.5 2t63 2t69 1.5t67.5 0.5q61 0 111.5 -15t86.5 -44t55.5 -72t19.5 -99q0 -71 -37 -124t-101 -82l181 -250h-146zM347 327q31 0 57 9.5t45 26.5t30 40.5t11 52.5q0 63 -41.5 92.5t-109.5 29.5q-32 0 -65.5 -0.5
t-68.5 -1.5v-249h142z" />
    <glyph glyph-name="S" unicode="S" horiz-adv-x="679" 
d="M564 538q-62 20 -124 31.5t-108 11.5q-58 0 -92.5 -22t-34.5 -67q0 -22 11.5 -37t33.5 -25.5t54 -18.5t73 -16q56 -11 100 -26t75 -37.5t47 -55t16 -79.5q0 -54 -20 -93.5t-56 -66t-86 -39.5t-109 -13q-60 0 -135 13t-150 44l28 112q75 -30 142.5 -43t119.5 -13
q65 0 105 20.5t40 66.5q0 30 -17 48t-45.5 29.5t-64.5 18.5t-74 15q-56 12 -96.5 27.5t-66.5 38t-38.5 53t-12.5 72.5q0 46 18.5 84t52 64t81 40.5t105.5 14.5q36 0 72.5 -4t70.5 -10.5t63.5 -14.5t52.5 -17z" />
    <glyph glyph-name="T" unicode="T" horiz-adv-x="676" 
d="M398 0h-120v569h-248v111h616v-111h-248v-569z" />
    <glyph glyph-name="U" unicode="U" horiz-adv-x="760" 
d="M685 290q0 -71 -22 -127t-62 -96t-96 -61t-125 -21t-125 21t-96 61t-62 96t-22 127v390h120v-390q0 -91 50.5 -142t134.5 -51q42 0 76 13t58 38t37.5 61t13.5 81v390h120v-390z" />
    <glyph glyph-name="V" unicode="V" horiz-adv-x="761" 
d="M324 0l-295 680h138l213 -518l216 518h136l-294 -680h-114z" />
    <glyph glyph-name="W" unicode="W" horiz-adv-x="1060" 
d="M696 0l-166 476l-166 -476h-114l-226 680h127l159 -495l169 495h102l169 -495l159 495h127l-226 -680h-114z" />
    <glyph glyph-name="X" unicode="X" horiz-adv-x="739" 
d="M715 0h-142l-203 245l-203 -245h-143l262 336l-255 344h148l191 -246l189 246h149l-256 -344z" />
    <glyph glyph-name="Y" unicode="Y" horiz-adv-x="728" 
d="M21 680h136l206 -325l208 325h135l-281 -451v-229h-121v229z" />
    <glyph glyph-name="Z" unicode="Z" horiz-adv-x="670" 
d="M230 111h384v-111h-560v74l387 495h-372v111h540v-74z" />
    <glyph glyph-name="bracketleft" unicode="[" horiz-adv-x="353" 
d="M318 -125v-111h-260v993h260v-111h-144v-771h144z" />
    <glyph glyph-name="backslash" unicode="\" horiz-adv-x="507" 
d="M485 -272h-119l-325 1040h120z" />
    <glyph glyph-name="bracketright" unicode="]" horiz-adv-x="353" 
d="M34 757h260v-993h-260v111h145v771h-145v111z" />
    <glyph glyph-name="asciicircum" unicode="^" horiz-adv-x="429" 
d="M131 454h-114l149 226h96l150 -226h-114l-84 124z" />
    <glyph glyph-name="underscore" unicode="_" horiz-adv-x="634" 
d="M601 -100v-101h-568v101h568z" />
    <glyph glyph-name="grave" unicode="`" 
d="M287 563l-117 151h154l76 -151h-113z" />
    <glyph glyph-name="a" unicode="a" horiz-adv-x="614" 
d="M281 488q38 0 69 -1.5t60.5 -4.5t61 -7t69.5 -10v-465h-115v36q-34 -24 -71 -37.5t-82 -13.5q-51 0 -93.5 18t-72.5 51.5t-46.5 80.5t-16.5 104q0 56 16 102t46 78.5t74 50.5t101 18zM298 391q-38 0 -65 -11.5t-44 -32.5t-24.5 -49.5t-7.5 -61.5q0 -69 35.5 -111.5
t96.5 -42.5q34 0 67.5 11.5t69.5 39.5v250q-29 4 -60 6t-68 2z" />
    <glyph glyph-name="b" unicode="b" horiz-adv-x="617" 
d="M192 475q29 6 66 9.5t69 3.5q62 0 108 -18t77 -50t46 -78t15 -101q0 -61 -17 -108t-47.5 -79.5t-72.5 -49t-91 -16.5q-27 0 -52 0.5t-55.5 2t-69 5.5t-91.5 11v703h115v-235zM312 391q-25 0 -57.5 -3t-62.5 -10v-286q49 -6 79.5 -8t47.5 -2q72 0 107 43.5t35 115.5
q0 32 -8 59.5t-25.5 47.5t-46 31.5t-69.5 11.5z" />
    <glyph glyph-name="c" unicode="c" horiz-adv-x="520" 
d="M462 375q-42 9 -76.5 14.5t-60.5 5.5q-78 0 -122.5 -43t-44.5 -113q0 -71 44 -112t114 -41q26 0 66 5.5t82 16.5l16 -93q-40 -14 -85.5 -22t-85.5 -8q-58 0 -106.5 18t-84 51.5t-55 80.5t-19.5 105t19.5 104.5t55 79.5t85.5 50.5t110 17.5q35 0 80 -6t84 -19z" />
    <glyph glyph-name="d" unicode="d" horiz-adv-x="617" 
d="M540 7q-53 -7 -91.5 -11t-69 -5.5t-55.5 -2t-52 -0.5q-50 0 -91.5 16.5t-72 49t-47.5 79.5t-17 108q0 55 15 101t46 78t77 50t108 18q32 0 69 -3.5t66 -9.5v235h115v-703zM305 391q-41 0 -69.5 -11.5t-46 -31.5t-25.5 -47.5t-8 -59.5q0 -72 35 -115.5t107 -43.5
q17 0 47.5 2t79.5 8v286q-30 7 -62.5 10t-57.5 3z" />
    <glyph glyph-name="e" unicode="e" horiz-adv-x="568" 
d="M293 489q50 0 92 -15t72.5 -42.5t48 -66t18.5 -85.5q0 -15 -0.5 -25.5t-1 -19.5t-2 -19t-3.5 -23h-350q13 -48 51 -76.5t99 -28.5q32 0 72 6.5t98 19.5l16 -94q-56 -17 -101.5 -26t-87.5 -9q-67 0 -117.5 19.5t-84.5 53.5t-51 80t-17 99q0 58 19 104.5t52.5 79.5t79 50.5
t98.5 17.5zM295 398q-54 0 -89 -31.5t-43 -85.5h257q-2 54 -36.5 85.5t-88.5 31.5z" />
    <glyph glyph-name="f" unicode="f" horiz-adv-x="414" 
d="M239 370v-370h-115v370h-115v103h115v77q0 48 14 85t39.5 63t61 39.5t78.5 13.5q40 0 78 -11l-17 -97q-14 2 -27 3t-29 1q-37 0 -60 -25t-23 -76v-73h169v-103h-169z" />
    <glyph glyph-name="g" unicode="g" horiz-adv-x="609" 
d="M281 488q54 0 94 -3t70.5 -6.5t53.5 -7.5t42 -6v-455q0 -57 -17 -105.5t-51 -83.5t-84.5 -54.5t-117.5 -19.5q-41 0 -86 9t-84 21l19 95q41 -8 78.5 -15t68.5 -7q74 0 115 40t44 113q-24 -3 -44 -4.5t-38 -2.5t-35 -1h-36q-51 0 -93.5 18t-72.5 50.5t-46.5 77t-16.5 98.5
q0 56 16 102t46 78.5t74 50.5t101 18zM298 391q-38 0 -65 -11.5t-44 -32.5t-24.5 -49.5t-7.5 -61.5q0 -30 9 -56.5t26.5 -46t42 -30.5t54.5 -11q28 0 58 1t79 9v281q-29 4 -60 6t-68 2z" />
    <glyph glyph-name="h" unicode="h" horiz-adv-x="618" 
d="M350 488q45 0 81.5 -13t63 -37t40.5 -58t14 -76v-304h-115v271q0 51 -30 81.5t-79 30.5q-62 0 -131 -15v-368h-115v710h115v-237q40 8 80.5 11.5t75.5 3.5z" />
    <glyph glyph-name="i" unicode="i" horiz-adv-x="262" 
d="M131 554q-32 0 -54.5 21.5t-22.5 53.5q0 34 22.5 55.5t54.5 21.5t54.5 -21.5t22.5 -55.5q0 -32 -22.5 -53.5t-54.5 -21.5zM189 0h-115v473h115v-473z" />
    <glyph glyph-name="j" unicode="j" horiz-adv-x="255" 
d="M118 706q32 0 55 -21.5t23 -55.5q0 -32 -23 -53.5t-55 -21.5t-55 21.5t-23 53.5q0 34 23 55.5t55 21.5zM176 -14q0 -56 -9 -98.5t-32.5 -72t-65 -45.5t-107.5 -17l-10 101q34 -1 55 6t33 21.5t16.5 37.5t4.5 53v501h115v-487z" />
    <glyph glyph-name="k" unicode="k" horiz-adv-x="580" 
d="M232 294l168 179h141l-188 -201l204 -272h-135l-145 186h-85v-186h-115v710h115v-416h40z" />
    <glyph glyph-name="l" unicode="l" horiz-adv-x="275" 
d="M195 0h-115v710h115v-710z" />
    <glyph glyph-name="m" unicode="m" horiz-adv-x="926" 
d="M657 488q45 0 82 -10t63 -32.5t40.5 -57.5t14.5 -84v-304h-115v271q0 112 -110 112q-29 0 -57.5 -3.5t-57.5 -11.5q8 -29 8 -63v-305h-116v273q0 58 -27 84t-83 26q-26 0 -52.5 -1.5t-54.5 -5.5v-376h-115v463q14 3 41.5 7.5t61.5 8.5t71.5 6.5t72.5 2.5q40 0 73 -7
t59 -24q18 7 42 12.5t51 9.5t54.5 6.5t53.5 2.5z" />
    <glyph glyph-name="n" unicode="n" horiz-adv-x="617" 
d="M349 488q91 0 144.5 -49.5t53.5 -134.5v-304h-115v271q0 51 -29.5 81.5t-78.5 30.5q-32 0 -64.5 -2t-67.5 -6v-375h-115v465q19 4 51 8t69.5 7.5t77 5.5t74.5 2z" />
    <glyph glyph-name="o" unicode="o" horiz-adv-x="616" 
d="M309 494q59 0 107.5 -18.5t83.5 -51.5t54 -80t19 -104q0 -58 -19 -105.5t-54 -81.5t-83.5 -52.5t-107.5 -18.5t-108 18.5t-84 52.5t-54 81.5t-19 105.5q0 57 19 104t54 80t84 51.5t108 18.5zM309 87q66 0 106.5 42t40.5 111q0 68 -40.5 108.5t-106.5 40.5
q-67 0 -108 -40.5t-41 -108.5q0 -69 41 -111t108 -42z" />
    <glyph glyph-name="p" unicode="p" horiz-adv-x="623" 
d="M336 488q57 0 101 -18t74 -50.5t46 -78.5t17 -102q0 -54 -16.5 -98.5t-46.5 -77t-72.5 -50.5t-93.5 -18h-36t-35 1t-38 2.5t-44 4.5v-234h-115v696q22 4 51 8t63 7.5t70.5 5.5t74.5 2zM329 92q30 0 54.5 11t41.5 30.5t26.5 46t9.5 56.5q0 33 -7.5 61.5t-24.5 49.5
t-44 32.5t-65 11.5q-37 0 -68 -2t-60 -6v-281q24 -4 43.5 -6t35.5 -3t30 -1h28z" />
    <glyph glyph-name="q" unicode="q" horiz-adv-x="623" 
d="M287 488q37 0 74 -2t71 -5.5t63 -7.5t51 -8v-696h-115v234q-48 -6 -82 -7t-71 -1q-51 0 -93.5 18t-72.5 50.5t-46.5 77t-16.5 98.5q1 56 17 102t46 78.5t74 50.5t101 18zM294 92h28t30 1t35.5 3t43.5 6v281q-29 4 -60 6t-68 2q-38 0 -65 -11.5t-44 -32.5t-24.5 -49.5
t-7.5 -61.5q0 -30 9.5 -56.5t26.5 -46t41.5 -30.5t54.5 -11z" />
    <glyph glyph-name="r" unicode="r" horiz-adv-x="401" 
d="M368 375q-46 0 -89 -1.5t-87 -5.5v-368h-115v459q31 6 67.5 11t75 9t76.5 6.5t72 2.5v-113z" />
    <glyph glyph-name="s" unicode="s" horiz-adv-x="526" 
d="M76 122q59 -23 108 -32.5t86 -9.5q42 0 69.5 11.5t27.5 37.5q0 17 -12 27.5t-32 17t-45.5 11.5t-51.5 10q-81 16 -121 47t-40 92q0 72 54 112t147 40q53 0 106.5 -10.5t87.5 -24.5l-28 -89q-47 14 -92.5 23t-79.5 9q-39 0 -60.5 -13.5t-21.5 -38.5q0 -15 9 -24.5
t25.5 -15.5t39.5 -10.5t51 -10.5q42 -9 73.5 -19.5t53 -26t32.5 -38.5t11 -56q0 -41 -15.5 -70t-43.5 -48.5t-66 -28.5t-84 -9q-42 0 -98 9.5t-113 32.5z" />
    <glyph glyph-name="t" unicode="t" horiz-adv-x="455" 
d="M425 0q-16 -4 -29.5 -6.5t-27 -4.5t-30 -3t-38.5 -1q-85 0 -130.5 47.5t-45.5 139.5v198h-103v103h103v178h115v-178h156v-103h-156v-186q0 -48 19 -72t64 -24q22 0 43.5 1.5t47.5 6.5z" />
    <glyph glyph-name="u" unicode="u" horiz-adv-x="619" 
d="M546 10q-20 -4 -52 -8.5t-69.5 -8t-77 -6t-73.5 -2.5q-44 0 -81 10t-63 32.5t-40.5 57t-14.5 84.5v304h116v-277q0 -112 108 -112q63 0 131 9v380h116v-463z" />
    <glyph glyph-name="v" unicode="v" horiz-adv-x="599" 
d="M238 0l-209 473h126l145 -336l144 336h127l-210 -473h-123z" />
    <glyph glyph-name="w" unicode="w" horiz-adv-x="818" 
d="M520 0l-111 307l-111 -307h-111l-157 473h117l101 -317l117 317h89l116 -318l101 318h117l-156 -473h-112z" />
    <glyph glyph-name="x" unicode="x" horiz-adv-x="570" 
d="M542 0h-135l-121 159l-123 -159h-135l181 238l-180 236h138l118 -153l118 153h139l-182 -236z" />
    <glyph glyph-name="y" unicode="y" horiz-adv-x="641" 
d="M272 -230h-130l128 263l-234 440h132l164 -312l151 312h130z" />
    <glyph glyph-name="z" unicode="z" horiz-adv-x="503" 
d="M210 100h257v-100h-423v56l247 318h-242v100h401v-64z" />
    <glyph glyph-name="braceleft" unicode="{" horiz-adv-x="367" 
d="M246 372q0 -24 -3 -42.5t-11 -33t-22.5 -24.5t-37.5 -17q23 -7 37.5 -17t22.5 -24t11 -32.5t3 -42.5v-209q0 -47 20 -62t66 -15v-104q-103 0 -152 47.5t-49 138.5v200q0 24 -4.5 37.5t-15 20.5t-27 9t-39.5 2v103q23 0 39.5 2t27 9t15 20.5t4.5 36.5v201q0 91 49 138.5
t152 47.5v-104q-46 0 -66 -15t-20 -62v-209z" />
    <glyph glyph-name="bar" unicode="|" horiz-adv-x="319" 
d="M213 -159h-107v918h107v-918z" />
    <glyph glyph-name="braceright" unicode="}" horiz-adv-x="367" 
d="M120 581q0 47 -19.5 62t-66.5 15v104q104 0 153 -47.5t49 -138.5v-201q0 -23 4.5 -36.5t15 -20.5t27 -9t39.5 -2v-103q-23 0 -39.5 -2t-27 -9t-15 -20.5t-4.5 -37.5v-200q0 -91 -49 -138.5t-153 -47.5v104q47 0 66.5 15t19.5 62v209q0 24 3 42.5t11 32.5t23 24t38 17
q-23 7 -38 17t-23 24.5t-11 33t-3 42.5v209z" />
    <glyph glyph-name="asciitilde" unicode="~" horiz-adv-x="445" 
d="M420 404q0 -50 -19 -81.5t-46.5 -45.5t-59.5 -12.5t-58 16.5l-56 34q-14 9 -24.5 9t-17 -5t-10 -14.5t-3.5 -19.5h-101q0 50 19 81.5t46.5 45.5t59.5 13t58 -16l55 -35q14 -8 24.5 -8.5t17 5t10 14.5t3.5 19h102z" />
    <glyph glyph-name="exclamdown" unicode="&#xa1;" horiz-adv-x="276" 
d="M134 492q32 0 55 -21.5t23 -53.5t-23 -53t-55 -21t-54.5 21t-22.5 53t22.5 53.5t54.5 21.5zM190 282l6 -487h-128l7 487h115z" />
    <glyph glyph-name="cent" unicode="&#xa2;" horiz-adv-x="517" 
d="M480 25q-29 -10 -60.5 -17t-62.5 -10v-117h-104v119q-47 7 -86 28t-67 53t-43 74.5t-15 92.5t15 92t43 74t67 53t86 29v120h104v-119q30 -2 61.5 -9t58.5 -16l-16 -95q-41 9 -80 15t-65 6q-35 0 -63.5 -11t-49 -30.5t-32 -47t-11.5 -61.5t11.5 -61.5t32 -47t49 -30.5
t62.5 -11q26 0 66 6t82 15z" />
    <glyph glyph-name="sterling" unicode="&#xa3;" horiz-adv-x="604" 
d="M34 0v101h63v175h-63v101h63v107q0 48 17 86.5t48.5 66.5t76 43t98.5 15q51 0 96 -6t91 -17l-17 -96q-48 8 -89.5 12.5t-84.5 4.5q-56 0 -88.5 -29t-32.5 -79v-108h205v-101h-205v-175h353v-101h-531z" />
    <glyph glyph-name="yen" unicode="&#xa5;" horiz-adv-x="725" 
d="M630 212h-206v-56h206v-84h-206v-72h-122v72h-207v84h207v56h-207v85h165l-240 383h136l206 -325l207 325h136l-240 -383h165v-85z" />
    <glyph glyph-name="brokenbar" unicode="&#xa6;" horiz-adv-x="319" 
d="M106 350v408h107v-408h-107zM106 -160v408h107v-408h-107z" />
    <glyph glyph-name="section" unicode="&#xa7;" horiz-adv-x="551" 
d="M285 695q52 0 105 -11.5t91 -30.5l-34 -87q-45 18 -84 27.5t-75 9.5q-48 0 -76.5 -17t-28.5 -52q0 -19 9 -31.5t26.5 -21.5t42.5 -16.5t57 -17.5q45 -14 80.5 -29.5t60.5 -36t38.5 -48.5t13.5 -67q0 -30 -7.5 -53t-19 -41t-26 -31.5t-28.5 -23.5q23 -20 35 -45t12 -60
q0 -75 -55 -119.5t-156 -44.5q-51 0 -104.5 11.5t-91.5 30.5l34 87q45 -18 84 -27.5t75 -9.5q48 0 77 17t29 52q0 19 -9.5 31t-26.5 21t-42.5 17t-56.5 18q-45 14 -81 29.5t-60.5 36t-38 48.5t-13.5 67q0 30 7 53t18.5 41t26 31.5t29.5 23.5q-23 20 -35.5 45t-12.5 60
q0 75 55 119.5t156 44.5zM192 385q-21 -19 -36 -41t-15 -51q0 -22 10.5 -37.5t29.5 -27.5t46 -22t59 -21q38 -13 73 -27q21 19 36 41t15 51q0 22 -10.5 37.5t-29.5 27.5t-45.5 22t-58.5 21q-43 14 -74 27z" />
    <glyph glyph-name="dieresis" unicode="&#xa8;" 
d="M194 697q30 0 51 -20t21 -50q0 -29 -21 -49.5t-51 -20.5q-31 0 -52 20.5t-21 49.5q0 30 21 50t52 20zM407 697q31 0 52 -20t21 -50q0 -29 -21 -49.5t-52 -20.5q-30 0 -51 20.5t-21 49.5q0 30 21 50t51 20z" />
    <glyph glyph-name="copyright" unicode="&#xa9;" horiz-adv-x="822" 
d="M411 695q78 0 145 -27t115.5 -74.5t76.5 -112.5t28 -141t-28 -141t-76.5 -112.5t-115.5 -74.5t-145 -27t-145 27t-115.5 74.5t-76.5 112.5t-28 141t28 141t76.5 112.5t115.5 74.5t145 27zM411 642q-66 0 -122.5 -23t-98 -63.5t-65 -96t-23.5 -119.5t23.5 -119.5t65 -96
t98 -63.5t122.5 -23t122.5 23t98 63.5t65 96t23.5 119.5t-23.5 119.5t-65 96t-98 63.5t-122.5 23zM537 439q-32 8 -60.5 12.5t-51.5 4.5q-60 0 -90 -30.5t-30 -84.5t30 -84.5t89 -30.5q23 0 53 4.5t60 11.5l12 -72q-29 -10 -62 -16.5t-65 -6.5q-52 0 -90.5 14.5t-64.5 40.5
t-39 61.5t-13 77.5q0 41 13 76.5t39 61.5t64.5 41t90.5 15q31 0 64 -6t64 -17z" />
    <glyph glyph-name="ordfeminine" unicode="&#xaa;" horiz-adv-x="463" 
d="M244 695q155 0 155 -128v-213q-48 -7 -80.5 -10.5t-55 -5t-39.5 -2t-34 -0.5q-66 0 -101.5 30t-35.5 84q0 51 39.5 76.5t121.5 29.5l102 6v4q-2 26 -17.5 38t-53.5 12q-35 0 -75 -4t-72 -9l-9 76q44 8 78.5 12t76.5 4zM202 489q-35 -2 -50 -11t-15 -29q0 -40 70 -40
q17 0 44 1.5t65 6.5v78z" />
    <glyph glyph-name="guillemotleft" unicode="&#xab;" horiz-adv-x="583" 
d="M229 41l-186 205l186 204l65 -51l-122 -150l121 -150zM450 41l-186 205l186 204l66 -51l-123 -150l121 -150z" />
    <glyph glyph-name="registered" unicode="&#xae;" horiz-adv-x="822" 
d="M411 695q78 0 145 -27t115.5 -74.5t76.5 -112.5t28 -141t-28 -141t-76.5 -112.5t-115.5 -74.5t-145 -27t-145 27t-115.5 74.5t-76.5 112.5t-28 141t28 141t76.5 112.5t115.5 74.5t145 27zM411 642q-66 0 -122.5 -23t-98 -63.5t-65 -96t-23.5 -119.5t23.5 -119.5t65 -96
t98 -63.5t122.5 -23t122.5 23t98 63.5t65 96t23.5 119.5t-23.5 119.5t-65 96t-98 63.5t-122.5 23zM414 539q71 0 114.5 -34t43.5 -100q0 -38 -19 -67t-53 -47l99 -136h-102l-79 115h-9h-61v-115h-84v381q10 0 27.5 0.5t38.5 1t43 1t41 0.5zM417 465h-34.5t-34.5 -1v-121h75
q28 0 47.5 18t19.5 45q0 31 -20.5 45t-52.5 14z" />
    <glyph glyph-name="macron" unicode="&#xaf;" 
d="M439 585h-278v94h278v-94z" />
    <glyph glyph-name="degree" unicode="&#xb0;" horiz-adv-x="471" 
d="M236 695q37 0 68.5 -13t55 -35.5t36.5 -53t13 -66.5q0 -37 -13 -68t-36.5 -53.5t-55 -35t-68.5 -12.5q-38 0 -69.5 12.5t-54.5 35t-36 53.5t-13 68q0 36 13 66.5t36 53t54.5 35.5t69.5 13zM236 444q35 0 59.5 24.5t24.5 58.5t-24.5 58t-59.5 24q-18 0 -33.5 -6.5
t-27 -17.5t-18 -26t-6.5 -32t6.5 -32t18 -26.5t27 -18t33.5 -6.5z" />
    <glyph glyph-name="plusminus" unicode="&#xb1;" horiz-adv-x="685" 
d="M398 322v-137h-110v137h-184v107h184v138h110v-138h183v-107h-183zM581 35h-477v107h477v-107z" />
    <glyph glyph-name="uni00B2" unicode="&#xb2;" horiz-adv-x="351" 
d="M27 289v59l142 128q20 15 32 31.5t12 41.5q0 29 -17.5 41t-48.5 12q-17 0 -41.5 -3.5t-62.5 -15.5l-19 78q28 11 65 17.5t72 6.5q40 0 67.5 -11t45 -28t25.5 -39.5t8 -44.5q0 -47 -27 -84t-69 -75l-42 -38h149v-76h-291z" />
    <glyph glyph-name="uni00B3" unicode="&#xb3;" horiz-adv-x="361" 
d="M207 520l7 -1q53 -5 83.5 -34.5t30.5 -69.5q0 -61 -38.5 -96t-125.5 -35q-33 0 -70.5 7t-71.5 26l31 70q58 -26 114 -26q36 0 57 12t21 34q0 18 -14.5 28.5t-43.5 10.5h-100v43l101 111h-144v80h266v-54z" />
    <glyph glyph-name="acute" unicode="&#xb4;" 
d="M341 563h-113l76 151h154z" />
    <glyph glyph-name="paragraph" unicode="&#xb6;" horiz-adv-x="765" 
d="M285 689q22 0 56.5 -0.5t75 -1t83.5 -1.5t81.5 -2t69.5 -2t47 -2v-789h-120v681l-98 3v-684h-119v321h-76q-62 0 -110.5 17.5t-82 49t-51 75.5t-17.5 98q0 111 68 174t193 63zM272 578q-66 0 -98 -32.5t-32 -94.5q0 -60 32 -95t98 -35h89v256z" />
    <glyph glyph-name="periodcentered" unicode="&#xb7;" horiz-adv-x="302" 
d="M150 181q-17 0 -32.5 6.5t-27 17.5t-18 26t-6.5 33q0 35 24.5 58.5t59.5 23.5q36 0 61 -23.5t25 -58.5t-25 -59t-61 -24z" />
    <glyph glyph-name="cedilla" unicode="&#xb8;" 
d="M205 -209l45 159h110l-59 -159h-96z" />
    <glyph glyph-name="uni00B9" unicode="&#xb9;" horiz-adv-x="306" 
d="M276 292h-254v78h84v202l-78 -22l-20 79l162 51h25v-310h81v-78z" />
    <glyph glyph-name="ordmasculine" unicode="&#xba;" horiz-adv-x="461" 
d="M231 695q41 0 75.5 -13t60 -36.5t39.5 -56.5t14 -73q0 -41 -14 -74.5t-39.5 -57.5t-60 -37t-75.5 -13t-75.5 13t-60 37t-40 57.5t-14.5 74.5q0 40 14.5 73t40 56.5t60 36.5t75.5 13zM231 416q42 0 70 27t28 73q0 45 -28 71.5t-70 26.5t-70.5 -26.5t-28.5 -71.5
q0 -46 28.5 -73t70.5 -27z" />
    <glyph glyph-name="guillemotright" unicode="&#xbb;" horiz-adv-x="583" 
d="M128 450l186 -204l-186 -205l-64 58l121 150l-122 150zM350 450l185 -204l-185 -205l-64 58l121 150l-123 150z" />
    <glyph glyph-name="onequarter" unicode="&#xbc;" horiz-adv-x="901" 
d="M70 370h84v202l-78 -22l-20 79l162 51h25v-310h81v-78h-254v78zM264 0h-64l462 680h64zM847 82h-58v-82h-87v82h-226v63l220 243h93v-230h58v-76zM587 158h115v131z" />
    <glyph glyph-name="onehalf" unicode="&#xbd;" horiz-adv-x="899" 
d="M70 370h84v202l-78 -22l-20 79l162 51h25v-310h81v-78h-254v78zM253 0h-65l462 680h65zM856 0h-292v59l143 128q20 15 32 31.5t12 41.5q0 29 -17.5 41t-49.5 12q-16 0 -40.5 -3.5t-62.5 -15.5l-19 78q28 11 65 17.5t72 6.5q40 0 67.5 -11t45 -28t25.5 -39.5t8 -44.5
q0 -47 -27 -84t-69 -75l-43 -38h150v-76z" />
    <glyph glyph-name="threequarters" unicode="&#xbe;" horiz-adv-x="921" 
d="M234 520l7 -1q53 -5 83.5 -34.5t30.5 -69.5q0 -61 -38.5 -96t-125.5 -35q-33 0 -70.5 7t-71.5 26l31 70q58 -26 114 -26q36 0 57 12t21 34q0 18 -14.5 28.5t-43.5 10.5h-100v43l101 111h-144v80h266v-54zM211 0l462 680h64l-462 -680h-64zM868 158v-76h-57v-82h-88v82
h-226v63l220 243h94v-230h57zM723 158v131l-115 -131h115z" />
    <glyph glyph-name="questiondown" unicode="&#xbf;" horiz-adv-x="515" 
d="M328 367q-32 0 -55 21t-23 53t23 54t55 22t54.5 -22t22.5 -54t-22.5 -53t-54.5 -21zM289 -196q-54 0 -98.5 15.5t-76 43t-49 66.5t-17.5 87q0 46 16 85t45 67.5t68.5 44.5t87.5 16h14l-4 78h108l18 -175h-112q-59 0 -94 -33t-35 -88q0 -47 34 -75.5t90 -28.5q43 0 85 4.5
t89 11.5l17 -96q-45 -11 -90.5 -17t-95.5 -6z" />
    <glyph glyph-name="Agrave" unicode="&#xc0;" horiz-adv-x="780" 
d="M335 749l-117 142h154l76 -142h-113zM159 0h-135l310 684h112l309 -684h-135l-61 139h-339zM267 247h246l-123 281z" />
    <glyph glyph-name="Aacute" unicode="&#xc1;" horiz-adv-x="780" 
d="M459 749h-121l84 142h154zM159 0h-135l310 684h112l309 -684h-135l-61 139h-339zM267 247h246l-123 281z" />
    <glyph glyph-name="Acircumflex" unicode="&#xc2;" horiz-adv-x="780" 
d="M332 749h-113l120 142h102l121 -142h-114l-58 72zM159 0h-135l310 684h112l309 -684h-135l-61 139h-339zM267 247h246l-123 281z" />
    <glyph glyph-name="Atilde" unicode="&#xc3;" horiz-adv-x="780" 
d="M568 872q0 -45 -17 -73.5t-42 -41t-54 -11.5t-52 15l-49 31q-26 15 -37.5 3t-11.5 -30h-93q0 45 17 73.5t42.5 41t54 11.5t51.5 -14l50 -31q26 -15 37.5 -3.5t11.5 29.5h92zM159 0h-135l310 684h112l309 -684h-135l-61 139h-339zM267 247h246l-123 281z" />
    <glyph glyph-name="Adieresis" unicode="&#xc4;" horiz-adv-x="780" 
d="M283 747q-31 0 -52 20.5t-21 49.5q0 30 21 50.5t52 20.5q30 0 51 -20.5t21 -50.5q0 -29 -21 -49.5t-51 -20.5zM496 747q-30 0 -51 20.5t-21 49.5q0 30 21 50.5t51 20.5q31 0 52 -20.5t21 -50.5q0 -29 -21 -49.5t-52 -20.5zM159 0h-135l310 684h112l309 -684h-135l-61 139
h-339zM267 247h246l-123 281z" />
    <glyph glyph-name="Aring" unicode="&#xc5;" horiz-adv-x="780" 
d="M389 940q51 0 81.5 -28t30.5 -76t-30.5 -76.5t-81.5 -28.5q-50 0 -80.5 28.5t-30.5 76.5t30.5 76t80.5 28zM389 790q21 0 33.5 12.5t12.5 33.5q0 20 -12.5 32.5t-33.5 12.5q-20 0 -33 -12.5t-13 -32.5q0 -21 13 -33.5t33 -12.5zM159 0h-135l310 684h112l309 -684h-135
l-61 139h-339zM267 247h246l-123 281z" />
    <glyph glyph-name="AE" unicode="&#xc6;" horiz-adv-x="1092" 
d="M994 395v-110h-331v-174h373v-111h-493v136h-277l-95 -136h-147l487 680h525v-111h-373v-174h331zM343 247h200v285z" />
    <glyph glyph-name="Ccedilla" unicode="&#xc7;" horiz-adv-x="729" 
d="M647 551q-60 14 -108 21t-90 7q-66 0 -115.5 -18t-83 -49.5t-50.5 -75t-17 -94.5q0 -55 18 -100t51.5 -77t80.5 -49.5t104 -17.5q40 0 95.5 8t117.5 22l22 -105q-60 -17 -122 -27.5t-119 -10.5q-84 0 -153.5 25.5t-118.5 72t-76 112.5t-27 146q0 79 27 144.5t76.5 112
t118.5 72t154 25.5q63 0 121.5 -8t115.5 -23zM287 -209l45 159h110l-59 -159h-96z" />
    <glyph glyph-name="Egrave" unicode="&#xc8;" horiz-adv-x="634" 
d="M273 749l-117 142h154l76 -142h-113zM536 395v-110h-331v-174h373v-111h-493v680h493v-111h-373v-174h331z" />
    <glyph glyph-name="Eacute" unicode="&#xc9;" horiz-adv-x="634" 
d="M397 749h-121l84 142h154zM536 395v-110h-331v-174h373v-111h-493v680h493v-111h-373v-174h331z" />
    <glyph glyph-name="Ecircumflex" unicode="&#xca;" horiz-adv-x="634" 
d="M270 749h-113l120 142h102l121 -142h-114l-58 72zM536 395v-110h-331v-174h373v-111h-493v680h493v-111h-373v-174h331z" />
    <glyph glyph-name="Edieresis" unicode="&#xcb;" horiz-adv-x="634" 
d="M221 747q-31 0 -52 20.5t-21 49.5q0 30 21 50.5t52 20.5q30 0 51 -20.5t21 -50.5q0 -29 -21 -49.5t-51 -20.5zM434 747q-30 0 -51 20.5t-21 49.5q0 30 21 50.5t51 20.5q31 0 52 -20.5t21 -50.5q0 -29 -21 -49.5t-52 -20.5zM536 395v-110h-331v-174h373v-111h-493v680h493
v-111h-373v-174h331z" />
    <glyph glyph-name="Igrave" unicode="&#xcc;" horiz-adv-x="290" 
d="M90 749l-117 142h154l76 -142h-113zM205 0h-120v680h120v-680z" />
    <glyph glyph-name="Iacute" unicode="&#xcd;" horiz-adv-x="290" 
d="M214 749h-121l84 142h154zM205 0h-120v680h120v-680z" />
    <glyph glyph-name="Icircumflex" unicode="&#xce;" horiz-adv-x="290" 
d="M87 749h-113l120 142h102l121 -142h-114l-58 72zM205 0h-120v680h120v-680z" />
    <glyph glyph-name="Idieresis" unicode="&#xcf;" horiz-adv-x="290" 
d="M38 747q-31 0 -52 20.5t-21 49.5q0 30 21 50.5t52 20.5q30 0 51 -20.5t21 -50.5q0 -29 -21 -49.5t-51 -20.5zM251 747q-30 0 -51 20.5t-21 49.5q0 30 21 50.5t51 20.5q31 0 52 -20.5t21 -50.5q0 -29 -21 -49.5t-52 -20.5zM205 0h-120v680h120v-680z" />
    <glyph glyph-name="Eth" unicode="&#xd0;" horiz-adv-x="741" 
d="M324 689q79 0 145.5 -24.5t114.5 -70t74.5 -109.5t26.5 -142q0 -80 -26.5 -144.5t-72.5 -110.5t-108.5 -71t-135.5 -25q-35 0 -72.5 0.5t-72 2t-64 2.5t-48.5 3v278h-56v111h56v291q19 1 46.5 2.5t60 3t66.5 2.5t66 1zM343 102q45 0 84.5 17t69 48.5t46.5 76t17 99.5
q0 54 -17.5 97t-48.5 74t-74 47.5t-95 16.5q-29 0 -59.5 -1t-60.5 -3v-185h144v-111h-144v-172q34 -2 69.5 -3t68.5 -1z" />
    <glyph glyph-name="Ntilde" unicode="&#xd1;" horiz-adv-x="779" 
d="M560 872q0 -45 -17 -73.5t-42 -41t-54 -11.5t-52 15l-49 31q-26 15 -37.5 3t-11.5 -30h-93q0 45 17 73.5t42.5 41t54 11.5t51.5 -14l50 -31q26 -15 37.5 -3.5t11.5 29.5h92zM694 0h-114l-375 476v-476h-120v680h111l379 -481v481h119v-680z" />
    <glyph glyph-name="Ograve" unicode="&#xd2;" horiz-adv-x="837" 
d="M364 749l-117 142h154l76 -142h-113zM418 695q79 0 146 -25.5t115 -72t75 -112t27 -145.5t-27 -145.5t-75 -112t-115 -72t-146 -25.5q-80 0 -146.5 25.5t-114.5 72t-74.5 112t-26.5 145.5t26.5 145.5t74.5 112t114.5 72t146.5 25.5zM419 98q51 0 94.5 17.5t75 49t49 76.5
t17.5 99t-17.5 99t-49 76.5t-75 49t-94.5 17.5q-52 0 -95.5 -17.5t-75 -49t-49 -76.5t-17.5 -99t17.5 -99t49 -76.5t75 -49t95.5 -17.5z" />
    <glyph glyph-name="Oacute" unicode="&#xd3;" horiz-adv-x="837" 
d="M488 749h-121l84 142h154zM418 695q79 0 146 -25.5t115 -72t75 -112t27 -145.5t-27 -145.5t-75 -112t-115 -72t-146 -25.5q-80 0 -146.5 25.5t-114.5 72t-74.5 112t-26.5 145.5t26.5 145.5t74.5 112t114.5 72t146.5 25.5zM419 98q51 0 94.5 17.5t75 49t49 76.5t17.5 99
t-17.5 99t-49 76.5t-75 49t-94.5 17.5q-52 0 -95.5 -17.5t-75 -49t-49 -76.5t-17.5 -99t17.5 -99t49 -76.5t75 -49t95.5 -17.5z" />
    <glyph glyph-name="Ocircumflex" unicode="&#xd4;" horiz-adv-x="837" 
d="M361 749h-113l120 142h102l121 -142h-114l-58 72zM418 695q79 0 146 -25.5t115 -72t75 -112t27 -145.5t-27 -145.5t-75 -112t-115 -72t-146 -25.5q-80 0 -146.5 25.5t-114.5 72t-74.5 112t-26.5 145.5t26.5 145.5t74.5 112t114.5 72t146.5 25.5zM419 98q51 0 94.5 17.5
t75 49t49 76.5t17.5 99t-17.5 99t-49 76.5t-75 49t-94.5 17.5q-52 0 -95.5 -17.5t-75 -49t-49 -76.5t-17.5 -99t17.5 -99t49 -76.5t75 -49t95.5 -17.5z" />
    <glyph glyph-name="Otilde" unicode="&#xd5;" horiz-adv-x="837" 
d="M597 872q0 -45 -17 -73.5t-42 -41t-54 -11.5t-52 15l-49 31q-26 15 -37.5 3t-11.5 -30h-93q0 45 17 73.5t42.5 41t54 11.5t51.5 -14l50 -31q26 -15 37.5 -3.5t11.5 29.5h92zM418 695q79 0 146 -25.5t115 -72t75 -112t27 -145.5t-27 -145.5t-75 -112t-115 -72t-146 -25.5
q-80 0 -146.5 25.5t-114.5 72t-74.5 112t-26.5 145.5t26.5 145.5t74.5 112t114.5 72t146.5 25.5zM419 98q51 0 94.5 17.5t75 49t49 76.5t17.5 99t-17.5 99t-49 76.5t-75 49t-94.5 17.5q-52 0 -95.5 -17.5t-75 -49t-49 -76.5t-17.5 -99t17.5 -99t49 -76.5t75 -49t95.5 -17.5z
" />
    <glyph glyph-name="Odieresis" unicode="&#xd6;" horiz-adv-x="837" 
d="M312 747q-31 0 -52 20.5t-21 49.5q0 30 21 50.5t52 20.5q30 0 51 -20.5t21 -50.5q0 -29 -21 -49.5t-51 -20.5zM525 747q-30 0 -51 20.5t-21 49.5q0 30 21 50.5t51 20.5q31 0 52 -20.5t21 -50.5q0 -29 -21 -49.5t-52 -20.5zM418 695q79 0 146 -25.5t115 -72t75 -112
t27 -145.5t-27 -145.5t-75 -112t-115 -72t-146 -25.5q-80 0 -146.5 25.5t-114.5 72t-74.5 112t-26.5 145.5t26.5 145.5t74.5 112t114.5 72t146.5 25.5zM419 98q51 0 94.5 17.5t75 49t49 76.5t17.5 99t-17.5 99t-49 76.5t-75 49t-94.5 17.5q-52 0 -95.5 -17.5t-75 -49
t-49 -76.5t-17.5 -99t17.5 -99t49 -76.5t75 -49t95.5 -17.5z" />
    <glyph glyph-name="multiply" unicode="&#xd7;" horiz-adv-x="677" 
d="M484 100l-145 146l-146 -146l-76 76l146 146l-146 145l76 76l146 -145l145 145l76 -76l-145 -145l145 -146z" />
    <glyph glyph-name="Oslash" unicode="&#xd8;" horiz-adv-x="837" 
d="M692 584q42 -46 65.5 -107.5t23.5 -136.5q0 -80 -27 -145.5t-75 -112t-115 -72t-146 -25.5q-117 0 -206 55l-46 -53l-78 66l47 54q-38 45 -58.5 104t-20.5 129q0 80 26.5 145.5t74.5 112t114.5 72t146.5 25.5q54 0 102.5 -12t89.5 -35l44 50l79 -67zM182 340
q0 -79 37 -138l311 355q-50 25 -111 25q-52 0 -95.5 -17.5t-75 -49t-49 -76.5t-17.5 -99zM419 98q51 0 94.5 17.5t75 49t49 76.5t17.5 99q0 45 -12 83t-34 68l-317 -360q27 -16 59 -24.5t68 -8.5z" />
    <glyph glyph-name="Ugrave" unicode="&#xd9;" horiz-adv-x="760" 
d="M326 749l-117 142h154l76 -142h-113zM685 290q0 -71 -22 -127t-62 -96t-96 -61t-125 -21t-125 21t-96 61t-62 96t-22 127v390h120v-390q0 -91 50.5 -142t134.5 -51q42 0 76 13t58 38t37.5 61t13.5 81v390h120v-390z" />
    <glyph glyph-name="Uacute" unicode="&#xda;" horiz-adv-x="760" 
d="M450 749h-121l84 142h154zM685 290q0 -71 -22 -127t-62 -96t-96 -61t-125 -21t-125 21t-96 61t-62 96t-22 127v390h120v-390q0 -91 50.5 -142t134.5 -51q42 0 76 13t58 38t37.5 61t13.5 81v390h120v-390z" />
    <glyph glyph-name="Ucircumflex" unicode="&#xdb;" horiz-adv-x="760" 
d="M322 749h-113l120 142h102l121 -142h-114l-58 72zM685 290q0 -71 -22 -127t-62 -96t-96 -61t-125 -21t-125 21t-96 61t-62 96t-22 127v390h120v-390q0 -91 50.5 -142t134.5 -51q42 0 76 13t58 38t37.5 61t13.5 81v390h120v-390z" />
    <glyph glyph-name="Udieresis" unicode="&#xdc;" horiz-adv-x="760" 
d="M273 747q-31 0 -52 20.5t-21 49.5q0 30 21 50.5t52 20.5q30 0 51 -20.5t21 -50.5q0 -29 -21 -49.5t-51 -20.5zM486 747q-30 0 -51 20.5t-21 49.5q0 30 21 50.5t51 20.5q31 0 52 -20.5t21 -50.5q0 -29 -21 -49.5t-52 -20.5zM685 290q0 -71 -22 -127t-62 -96t-96 -61
t-125 -21t-125 21t-96 61t-62 96t-22 127v390h120v-390q0 -91 50.5 -142t134.5 -51q42 0 76 13t58 38t37.5 61t13.5 81v390h120v-390z" />
    <glyph glyph-name="Yacute" unicode="&#xdd;" horiz-adv-x="728" 
d="M434 749h-121l84 142h154zM21 680h136l206 -325l207 325h136l-281 -451v-229h-122v229z" />
    <glyph glyph-name="Thorn" unicode="&#xde;" horiz-adv-x="644" 
d="M328 586q62 0 113.5 -16.5t88.5 -47t57.5 -74t20.5 -98.5q0 -54 -20.5 -98.5t-57.5 -76t-88.5 -48.5t-113.5 -17h-123v-110h-120v680h120v-96q32 1 62 1.5t61 0.5zM341 218q32 0 59.5 9t47.5 26.5t31.5 41.5t11.5 54t-11.5 53.5t-31.5 39.5t-47.5 24.5t-59.5 8.5
q-69 0 -136 -3v-254h136z" />
    <glyph glyph-name="germandbls" unicode="&#xdf;" horiz-adv-x="659" 
d="M280 647q-47 0 -66.5 -24t-19.5 -71v-79h389v-72l-137 -178l12 -1q78 -11 123.5 -62t45.5 -136q0 -50 -17.5 -91.5t-49 -71t-76 -45.5t-98.5 -16q-42 0 -80 5t-80 15l16 97q57 -10 89.5 -12.5t54.5 -2.5q58 0 93.5 33t35.5 87q0 47 -32 74t-80 27h-104v57l133 187h-238
v-367h-116v564q0 92 49 139.5t153 47.5v-104z" />
    <glyph glyph-name="agrave" unicode="&#xe0;" horiz-adv-x="614" 
d="M273 563l-117 151h154l76 -151h-113zM282 488q37 0 68 -1.5t60.5 -4.5t61 -7t69.5 -10v-465h-115v36q-33 -24 -70 -37.5t-83 -13.5q-51 0 -93.5 18t-72.5 51.5t-46.5 80.5t-16.5 104q1 56 17 102t46 78.5t74 50.5t101 18zM298 391q-38 0 -64.5 -11.5t-43.5 -32.5
t-25 -49.5t-8 -61.5q0 -69 36 -111.5t97 -42.5q34 0 67 11.5t69 39.5v250q-29 4 -60 6t-68 2z" />
    <glyph glyph-name="aacute" unicode="&#xe1;" horiz-adv-x="614" 
d="M367 563h-113l76 151h154zM282 488q37 0 68 -1.5t60.5 -4.5t61 -7t69.5 -10v-465h-115v36q-33 -24 -70 -37.5t-83 -13.5q-51 0 -93.5 18t-72.5 51.5t-46.5 80.5t-16.5 104q1 56 17 102t46 78.5t74 50.5t101 18zM298 391q-38 0 -64.5 -11.5t-43.5 -32.5t-25 -49.5
t-8 -61.5q0 -69 36 -111.5t97 -42.5q34 0 67 11.5t69 39.5v250q-29 4 -60 6t-68 2z" />
    <glyph glyph-name="acircumflex" unicode="&#xe2;" horiz-adv-x="614" 
d="M257 566h-113l120 138h102l121 -138h-114l-57 64zM282 488q37 0 68 -1.5t60.5 -4.5t61 -7t69.5 -10v-465h-115v36q-33 -24 -70 -37.5t-83 -13.5q-51 0 -93.5 18t-72.5 51.5t-46.5 80.5t-16.5 104q1 56 17 102t46 78.5t74 50.5t101 18zM298 391q-38 0 -64.5 -11.5
t-43.5 -32.5t-25 -49.5t-8 -61.5q0 -69 36 -111.5t97 -42.5q34 0 67 11.5t69 39.5v250q-29 4 -60 6t-68 2z" />
    <glyph glyph-name="atilde" unicode="&#xe3;" horiz-adv-x="614" 
d="M494 687q0 -45 -17 -73.5t-42 -41t-54 -11.5t-52 14l-49 31q-26 15 -37.5 3.5t-11.5 -29.5h-93q0 45 17 73.5t42.5 41t54 11t51.5 -14.5l50 -31q26 -15 37.5 -3t11.5 30h92zM282 488q37 0 68 -1.5t60.5 -4.5t61 -7t69.5 -10v-465h-115v36q-33 -24 -70 -37.5t-83 -13.5
q-51 0 -93.5 18t-72.5 51.5t-46.5 80.5t-16.5 104q1 56 17 102t46 78.5t74 50.5t101 18zM298 391q-38 0 -64.5 -11.5t-43.5 -32.5t-25 -49.5t-8 -61.5q0 -69 36 -111.5t97 -42.5q34 0 67 11.5t69 39.5v250q-29 4 -60 6t-68 2z" />
    <glyph glyph-name="adieresis" unicode="&#xe4;" horiz-adv-x="614" 
d="M210 697q30 0 51 -20t21 -50q0 -29 -21 -49.5t-51 -20.5q-31 0 -52 20.5t-21 49.5q0 30 21 50t52 20zM423 697q31 0 52 -20t21 -50q0 -29 -21 -49.5t-52 -20.5q-30 0 -51 20.5t-21 49.5q0 30 21 50t51 20zM282 488q37 0 68 -1.5t60.5 -4.5t61 -7t69.5 -10v-465h-115v36
q-33 -24 -70 -37.5t-83 -13.5q-51 0 -93.5 18t-72.5 51.5t-46.5 80.5t-16.5 104q1 56 17 102t46 78.5t74 50.5t101 18zM298 391q-38 0 -64.5 -11.5t-43.5 -32.5t-25 -49.5t-8 -61.5q0 -69 36 -111.5t97 -42.5q34 0 67 11.5t69 39.5v250q-29 4 -60 6t-68 2z" />
    <glyph glyph-name="aring" unicode="&#xe5;" horiz-adv-x="614" 
d="M315 753q51 0 81.5 -28t30.5 -76t-30.5 -76.5t-81.5 -28.5q-50 0 -80.5 28.5t-30.5 76.5t30.5 76t80.5 28zM315 603q21 0 33.5 12.5t12.5 33.5q0 20 -12.5 32.5t-33.5 12.5q-20 0 -33 -12.5t-13 -32.5q0 -21 13 -33.5t33 -12.5zM282 488q37 0 68 -1.5t60.5 -4.5t61 -7
t69.5 -10v-465h-115v36q-33 -24 -70 -37.5t-83 -13.5q-51 0 -93.5 18t-72.5 51.5t-46.5 80.5t-16.5 104q1 56 17 102t46 78.5t74 50.5t101 18zM298 391q-38 0 -64.5 -11.5t-43.5 -32.5t-25 -49.5t-8 -61.5q0 -69 36 -111.5t97 -42.5q34 0 67 11.5t69 39.5v250q-29 4 -60 6
t-68 2z" />
    <glyph glyph-name="ae" unicode="&#xe6;" horiz-adv-x="897" 
d="M849 276q0 -14 -0.5 -23.5t-1 -18.5t-2 -18.5t-3.5 -22.5h-352q13 -48 51.5 -76.5t100.5 -28.5q31 0 71.5 6.5t97.5 19.5l17 -94q-56 -17 -101.5 -26t-87.5 -9q-54 0 -97.5 12.5t-75.5 35.5q-52 -18 -88.5 -27.5t-64.5 -14t-49.5 -5.5t-42.5 -1q-90 0 -137 41t-47 119
q0 71 53 102.5t161 30.5l117 -1v24q0 45 -17 67.5t-69 22.5q-48 0 -94.5 -5.5t-90.5 -12.5l-12 97q59 10 105.5 16t100.5 6q60 0 98.5 -16t58.5 -48q33 29 76 45t93 16t92 -15t73 -42.5t48.5 -66t18.5 -85.5v-4zM620 398q-54 0 -88.5 -31.5t-44.5 -85.5h258
q-2 54 -36.5 85.5t-88.5 31.5zM146 138q0 -32 26 -46t77 -14q23 0 60 5t92 22q-11 17 -17.5 37t-10.5 41l-130 -1q-53 0 -75 -10t-22 -34z" />
    <glyph glyph-name="ccedilla" unicode="&#xe7;" horiz-adv-x="520" 
d="M462 375q-42 9 -76.5 14.5t-60.5 5.5q-78 0 -122 -43t-44 -113q0 -35 11.5 -63.5t32.5 -48.5t49.5 -30.5t63.5 -10.5q26 0 66 5.5t82 16.5l17 -93q-41 -14 -86 -22t-86 -8q-58 0 -106.5 18t-84 51.5t-55 80.5t-19.5 105t19.5 104.5t55 79.5t85.5 50.5t110 17.5
q35 0 80.5 -6t83.5 -19zM185 -209l45 159h110l-59 -159h-96z" />
    <glyph glyph-name="egrave" unicode="&#xe8;" horiz-adv-x="568" 
d="M259 563l-117 151h154l76 -151h-113zM293 489q50 0 92 -15t73 -42.5t48.5 -66t18.5 -85.5q0 -15 -0.5 -25.5t-1 -19.5t-2 -19t-3.5 -23h-351q13 -48 51.5 -76.5t99.5 -28.5q32 0 71.5 6.5t97.5 19.5l16 -94q-55 -17 -100.5 -26t-88.5 -9q-67 0 -117.5 19.5t-84.5 53.5
t-51 80t-17 99q0 58 19 104.5t52.5 79.5t79 50.5t98.5 17.5zM296 398q-55 0 -89.5 -31.5t-43.5 -85.5h257q-2 54 -36 85.5t-88 31.5z" />
    <glyph glyph-name="eacute" unicode="&#xe9;" horiz-adv-x="568" 
d="M352 563h-113l76 151h154zM293 489q50 0 92 -15t73 -42.5t48.5 -66t18.5 -85.5q0 -15 -0.5 -25.5t-1 -19.5t-2 -19t-3.5 -23h-351q13 -48 51.5 -76.5t99.5 -28.5q32 0 71.5 6.5t97.5 19.5l16 -94q-55 -17 -100.5 -26t-88.5 -9q-67 0 -117.5 19.5t-84.5 53.5t-51 80
t-17 99q0 58 19 104.5t52.5 79.5t79 50.5t98.5 17.5zM296 398q-55 0 -89.5 -31.5t-43.5 -85.5h257q-2 54 -36 85.5t-88 31.5z" />
    <glyph glyph-name="ecircumflex" unicode="&#xea;" horiz-adv-x="568" 
d="M242 566h-113l120 138h102l120 -138h-113l-57 64zM293 489q50 0 92 -15t73 -42.5t48.5 -66t18.5 -85.5q0 -15 -0.5 -25.5t-1 -19.5t-2 -19t-3.5 -23h-351q13 -48 51.5 -76.5t99.5 -28.5q32 0 71.5 6.5t97.5 19.5l16 -94q-55 -17 -100.5 -26t-88.5 -9q-67 0 -117.5 19.5
t-84.5 53.5t-51 80t-17 99q0 58 19 104.5t52.5 79.5t79 50.5t98.5 17.5zM296 398q-55 0 -89.5 -31.5t-43.5 -85.5h257q-2 54 -36 85.5t-88 31.5z" />
    <glyph glyph-name="edieresis" unicode="&#xeb;" horiz-adv-x="568" 
d="M195 697q30 0 51 -20t21 -50q0 -29 -21 -49.5t-51 -20.5q-31 0 -52 20.5t-21 49.5q0 30 21 50t52 20zM408 697q31 0 52 -20t21 -50q0 -29 -21 -49.5t-52 -20.5q-30 0 -51 20.5t-21 49.5q0 30 21 50t51 20zM293 489q50 0 92 -15t73 -42.5t48.5 -66t18.5 -85.5
q0 -15 -0.5 -25.5t-1 -19.5t-2 -19t-3.5 -23h-351q13 -48 51.5 -76.5t99.5 -28.5q32 0 71.5 6.5t97.5 19.5l16 -94q-55 -17 -100.5 -26t-88.5 -9q-67 0 -117.5 19.5t-84.5 53.5t-51 80t-17 99q0 58 19 104.5t52.5 79.5t79 50.5t98.5 17.5zM296 398q-55 0 -89.5 -31.5
t-43.5 -85.5h257q-2 54 -36 85.5t-88 31.5z" />
    <glyph glyph-name="igrave" unicode="&#xec;" horiz-adv-x="263" 
d="M69 563l-118 151h155l76 -151h-113zM189 0h-115v473h115v-473z" />
    <glyph glyph-name="iacute" unicode="&#xed;" horiz-adv-x="263" 
d="M186 563h-113l76 151h154zM189 0h-115v473h115v-473z" />
    <glyph glyph-name="icircumflex" unicode="&#xee;" horiz-adv-x="263" 
d="M73 566h-113l120 138h102l121 -138h-114l-57 64zM189 0h-115v473h115v-473z" />
    <glyph glyph-name="idieresis" unicode="&#xef;" horiz-adv-x="263" 
d="M26 697q30 0 51 -20t21 -50q0 -29 -21 -49.5t-51 -20.5q-31 0 -52 20.5t-21 49.5q0 30 21 50t52 20zM239 697q31 0 52 -20t21 -50q0 -29 -21 -49.5t-52 -20.5q-30 0 -51 20.5t-21 49.5q0 30 21 50t51 20zM189 0h-115v473h115v-473z" />
    <glyph glyph-name="eth" unicode="&#xf0;" horiz-adv-x="616" 
d="M250 716q29 -11 56.5 -25.5t51.5 -31.5l95 35l28 -69l-57 -21q69 -62 109 -152.5t40 -193.5q0 -65 -19.5 -116t-54.5 -86.5t-83.5 -54.5t-106.5 -19q-57 0 -106 18.5t-84 52.5t-55 81.5t-20 105.5q0 57 19.5 104t53.5 80t78.5 51.5t95.5 18.5q40 0 66.5 -9.5t52.5 -26.5
q-24 33 -49 60.5t-50 44.5l-141 -51l-28 69l95 34q-23 14 -49 27.5t-55 24.5zM309 389q-32 0 -59 -10.5t-47 -30t-31.5 -47t-11.5 -61.5q0 -35 11.5 -63t31.5 -48t47 -31t59 -11q64 0 105.5 41.5t41.5 112.5q0 34 -11.5 61t-31 46.5t-46.5 30t-58 10.5z" />
    <glyph glyph-name="ntilde" unicode="&#xf1;" horiz-adv-x="617" 
d="M487 687q0 -45 -17 -73.5t-42 -41t-54 -11.5t-52 14l-49 31q-26 15 -37.5 3.5t-11.5 -29.5h-93q0 45 17 73.5t42.5 41t54 11t51.5 -14.5l50 -31q26 -15 37.5 -3t11.5 30h92zM349 488q91 0 144.5 -49.5t53.5 -134.5v-304h-115v271q0 51 -29.5 81.5t-78.5 30.5
q-32 0 -64.5 -2t-67.5 -6v-375h-115v465q19 4 51 8t69.5 7.5t77 5.5t74.5 2z" />
    <glyph glyph-name="ograve" unicode="&#xf2;" horiz-adv-x="616" 
d="M266 563l-117 151h154l76 -151h-113zM309 494q59 0 108 -18.5t83.5 -51.5t53.5 -80t19 -104q0 -58 -19 -105.5t-53.5 -81.5t-83.5 -52.5t-108 -18.5t-108 18.5t-84 52.5t-54 81.5t-19 105.5q0 57 19 104t54 80t84 51.5t108 18.5zM309 87q66 0 106.5 42t40.5 111
q0 68 -40.5 108.5t-106.5 40.5q-67 0 -108 -40.5t-41 -108.5q0 -69 41 -111t108 -42z" />
    <glyph glyph-name="oacute" unicode="&#xf3;" horiz-adv-x="616" 
d="M360 563h-113l76 151h154zM309 494q59 0 108 -18.5t83.5 -51.5t53.5 -80t19 -104q0 -58 -19 -105.5t-53.5 -81.5t-83.5 -52.5t-108 -18.5t-108 18.5t-84 52.5t-54 81.5t-19 105.5q0 57 19 104t54 80t84 51.5t108 18.5zM309 87q66 0 106.5 42t40.5 111q0 68 -40.5 108.5
t-106.5 40.5q-67 0 -108 -40.5t-41 -108.5q0 -69 41 -111t108 -42z" />
    <glyph glyph-name="ocircumflex" unicode="&#xf4;" horiz-adv-x="616" 
d="M250 566h-113l120 138h102l121 -138h-114l-57 64zM309 494q59 0 108 -18.5t83.5 -51.5t53.5 -80t19 -104q0 -58 -19 -105.5t-53.5 -81.5t-83.5 -52.5t-108 -18.5t-108 18.5t-84 52.5t-54 81.5t-19 105.5q0 57 19 104t54 80t84 51.5t108 18.5zM309 87q66 0 106.5 42
t40.5 111q0 68 -40.5 108.5t-106.5 40.5q-67 0 -108 -40.5t-41 -108.5q0 -69 41 -111t108 -42z" />
    <glyph glyph-name="otilde" unicode="&#xf5;" horiz-adv-x="616" 
d="M487 687q0 -45 -17 -73.5t-42 -41t-54 -11.5t-52 14l-49 31q-26 15 -37.5 3.5t-11.5 -29.5h-93q0 45 17 73.5t42.5 41t54 11t51.5 -14.5l50 -31q26 -15 37.5 -3t11.5 30h92zM309 494q59 0 108 -18.5t83.5 -51.5t53.5 -80t19 -104q0 -58 -19 -105.5t-53.5 -81.5
t-83.5 -52.5t-108 -18.5t-108 18.5t-84 52.5t-54 81.5t-19 105.5q0 57 19 104t54 80t84 51.5t108 18.5zM309 87q66 0 106.5 42t40.5 111q0 68 -40.5 108.5t-106.5 40.5q-67 0 -108 -40.5t-41 -108.5q0 -69 41 -111t108 -42z" />
    <glyph glyph-name="odieresis" unicode="&#xf6;" horiz-adv-x="616" 
d="M203 697q30 0 51 -20t21 -50q0 -29 -21 -49.5t-51 -20.5q-31 0 -52 20.5t-21 49.5q0 30 21 50t52 20zM416 697q31 0 52 -20t21 -50q0 -29 -21 -49.5t-52 -20.5q-30 0 -51 20.5t-21 49.5q0 30 21 50t51 20zM309 494q59 0 108 -18.5t83.5 -51.5t53.5 -80t19 -104
q0 -58 -19 -105.5t-53.5 -81.5t-83.5 -52.5t-108 -18.5t-108 18.5t-84 52.5t-54 81.5t-19 105.5q0 57 19 104t54 80t84 51.5t108 18.5zM309 87q66 0 106.5 42t40.5 111q0 68 -40.5 108.5t-106.5 40.5q-67 0 -108 -40.5t-41 -108.5q0 -69 41 -111t108 -42z" />
    <glyph glyph-name="divide" unicode="&#xf7;" horiz-adv-x="685" 
d="M342 456q-28 0 -48 19t-20 47q0 29 20 47.5t48 18.5q29 0 49.5 -18.5t20.5 -47.5q0 -28 -20.5 -47t-49.5 -19zM581 383v-106h-477v106h477zM342 77q-28 0 -48 19t-20 47t20 47t48 19q29 0 49.5 -19t20.5 -47t-20.5 -47t-49.5 -19z" />
    <glyph glyph-name="oslash" unicode="&#xf8;" horiz-adv-x="616" 
d="M507 417q32 -33 49 -78t17 -99q0 -58 -19 -105.5t-53.5 -81.5t-83.5 -52.5t-108 -18.5q-40 0 -75 8.5t-64 24.5l-52 -62l-63 54l50 59q-29 33 -45 77t-16 97q0 57 19 104t54 80t84 51.5t108 18.5q73 0 131 -28l52 61l63 -53zM160 240q0 -48 21 -84l187 223q-26 10 -59 10
q-67 0 -108 -40.5t-41 -108.5zM309 87q66 0 106.5 42t40.5 111q0 52 -24 88l-190 -227q31 -14 67 -14z" />
    <glyph glyph-name="ugrave" unicode="&#xf9;" horiz-adv-x="619" 
d="M267 563l-117 151h154l76 -151h-113zM545 10q-19 -4 -51 -8.5t-69.5 -8t-77 -6t-73.5 -2.5q-45 0 -81.5 10t-62.5 32.5t-40.5 57t-14.5 84.5v304h115v-277q0 -112 108 -112q63 0 132 9v380h115v-463z" />
    <glyph glyph-name="uacute" unicode="&#xfa;" horiz-adv-x="619" 
d="M361 563h-113l76 151h154zM545 10q-19 -4 -51 -8.5t-69.5 -8t-77 -6t-73.5 -2.5q-45 0 -81.5 10t-62.5 32.5t-40.5 57t-14.5 84.5v304h115v-277q0 -112 108 -112q63 0 132 9v380h115v-463z" />
    <glyph glyph-name="ucircumflex" unicode="&#xfb;" horiz-adv-x="619" 
d="M251 566h-113l120 138h102l121 -138h-114l-57 64zM545 10q-19 -4 -51 -8.5t-69.5 -8t-77 -6t-73.5 -2.5q-45 0 -81.5 10t-62.5 32.5t-40.5 57t-14.5 84.5v304h115v-277q0 -112 108 -112q63 0 132 9v380h115v-463z" />
    <glyph glyph-name="udieresis" unicode="&#xfc;" horiz-adv-x="619" 
d="M204 697q30 0 51 -20t21 -50q0 -29 -21 -49.5t-51 -20.5q-31 0 -52 20.5t-21 49.5q0 30 21 50t52 20zM417 697q31 0 52 -20t21 -50q0 -29 -21 -49.5t-52 -20.5q-30 0 -51 20.5t-21 49.5q0 30 21 50t51 20zM545 10q-19 -4 -51 -8.5t-69.5 -8t-77 -6t-73.5 -2.5
q-45 0 -81.5 10t-62.5 32.5t-40.5 57t-14.5 84.5v304h115v-277q0 -112 108 -112q63 0 132 9v380h115v-463z" />
    <glyph glyph-name="yacute" unicode="&#xfd;" horiz-adv-x="641" 
d="M259 564l76 151h154l-117 -151h-113zM272 -230h-130l128 263l-234 440h132l164 -312l151 312h130z" />
    <glyph glyph-name="thorn" unicode="&#xfe;" horiz-adv-x="625" 
d="M338 488q57 0 100.5 -18t73.5 -50.5t46 -78.5t18 -102q0 -57 -16.5 -104t-46.5 -80.5t-72.5 -51.5t-93.5 -18h-36t-35 1t-38 2.5t-44 4.5v-224h-115v941h115v-230q31 5 65.5 6.5t78.5 1.5zM330 82q61 0 97 42.5t36 111.5q0 33 -7.5 61.5t-24.5 49.5t-44 32.5t-65 11.5
q-37 0 -68 -2t-60 -6v-291q49 -8 78.5 -9t57.5 -1z" />
    <glyph glyph-name="ydieresis" unicode="&#xff;" horiz-adv-x="641" 
d="M215 558q-31 0 -52 20.5t-21 49.5q0 30 21 50t52 20q30 0 51 -20t21 -50q0 -29 -21 -49.5t-51 -20.5zM428 558q-30 0 -51 20.5t-21 49.5q0 30 21 50t51 20q31 0 52 -20t21 -50q0 -29 -21 -49.5t-52 -20.5zM272 -230h-130l128 263l-234 440h132l164 -312l151 312h130z" />
    <glyph glyph-name="Amacron" unicode="&#x100;" horiz-adv-x="780" 
d="M546 772h-312v93h312v-93zM159 0h-135l310 684h112l309 -684h-135l-61 139h-339zM267 247h246l-123 281z" />
    <glyph glyph-name="amacron" unicode="&#x101;" horiz-adv-x="614" 
d="M455 585h-278v94h278v-94zM282 488q37 0 68 -1.5t60.5 -4.5t61 -7t69.5 -10v-465h-115v36q-33 -24 -70 -37.5t-83 -13.5q-51 0 -93.5 18t-72.5 51.5t-46.5 80.5t-16.5 104q1 56 17 102t46 78.5t74 50.5t101 18zM298 391q-38 0 -64.5 -11.5t-43.5 -32.5t-25 -49.5
t-8 -61.5q0 -69 36 -111.5t97 -42.5q34 0 67 11.5t69 39.5v250q-29 4 -60 6t-68 2z" />
    <glyph glyph-name="Abreve" unicode="&#x102;" horiz-adv-x="780" 
d="M546 899q0 -72 -42 -111.5t-114 -39.5t-114 39.5t-42 111.5h98q0 -33 16 -47t42 -14q25 0 41 14t16 47h99zM159 0h-135l310 684h112l309 -684h-135l-61 139h-339zM267 247h246l-123 281z" />
    <glyph glyph-name="abreve" unicode="&#x103;" horiz-adv-x="614" 
d="M472 708q0 -72 -42 -112t-114 -40t-114 40t-42 112h98q0 -33 16 -47t42 -14q25 0 41 14t16 47h99zM282 488q37 0 68 -1.5t60.5 -4.5t61 -7t69.5 -10v-465h-115v36q-33 -24 -70 -37.5t-83 -13.5q-51 0 -93.5 18t-72.5 51.5t-46.5 80.5t-16.5 104q1 56 17 102t46 78.5
t74 50.5t101 18zM298 391q-38 0 -64.5 -11.5t-43.5 -32.5t-25 -49.5t-8 -61.5q0 -69 36 -111.5t97 -42.5q34 0 67 11.5t69 39.5v250q-29 4 -60 6t-68 2z" />
    <glyph glyph-name="Aogonek" unicode="&#x104;" horiz-adv-x="780" 
d="M701 -95q11 0 20 1.5l21 3.5l11 -85q-9 -4 -28 -7.5t-39 -3.5q-64 0 -103 31t-39 82q0 29 18 52t50 39l-53 121h-339l-61 -139h-135l310 684h112l309 -684h-78q-20 -12 -28.5 -24.5t-8.5 -27.5q0 -43 61 -43zM390 528l-123 -281h246z" />
    <glyph glyph-name="aogonek" unicode="&#x105;" horiz-adv-x="614" 
d="M566 -190q-9 -4 -28 -7.5t-39 -3.5q-64 0 -103 31t-39 82q0 29 18 52t51 39v33q-33 -24 -70 -37.5t-83 -13.5q-51 0 -93.5 18t-72.5 51.5t-46.5 80.5t-16.5 104q1 56 17 102t46 78.5t74 50.5t101 18q37 0 68 -1.5t60.5 -4.5t61 -7t69.5 -10v-465h-19q-39 -16 -54 -31.5
t-15 -35.5q0 -43 61 -43q11 0 20 1.5l21 3.5zM290 82q34 0 67 11.5t69 39.5v250q-29 4 -60 6t-68 2q-38 0 -64.5 -11.5t-43.5 -32.5t-25 -49.5t-8 -61.5q0 -69 36 -111.5t97 -42.5z" />
    <glyph glyph-name="Cacute" unicode="&#x106;" horiz-adv-x="729" 
d="M495 749h-121l84 142h154zM647 551q-60 14 -108 21t-90 7q-66 0 -115.5 -18t-83 -49.5t-50.5 -75t-17 -94.5q0 -55 18 -100t51.5 -77t80.5 -49.5t104 -17.5q40 0 95.5 8t117.5 22l22 -105q-60 -17 -122 -27.5t-119 -10.5q-84 0 -153.5 25.5t-118.5 72t-76 112.5t-27 146
q0 79 27 144.5t76.5 112t118.5 72t154 25.5q63 0 121.5 -8t115.5 -23z" />
    <glyph glyph-name="cacute" unicode="&#x107;" horiz-adv-x="520" 
d="M345 562h-113l76 151h154zM462 375q-42 9 -76.5 14.5t-60.5 5.5q-78 0 -122 -43t-44 -113q0 -35 11.5 -63.5t32.5 -48.5t49.5 -30.5t63.5 -10.5q26 0 66 5.5t82 16.5l17 -93q-41 -14 -86 -22t-86 -8q-58 0 -106.5 18t-84 51.5t-55 80.5t-19.5 105t19.5 104.5t55 79.5
t85.5 50.5t110 17.5q35 0 80.5 -6t83.5 -19z" />
    <glyph glyph-name="Cdotaccent" unicode="&#x10a;" horiz-adv-x="729" 
d="M426 747q-30 0 -51.5 20.5t-21.5 49.5q0 30 21.5 50.5t51.5 20.5t51.5 -20.5t21.5 -50.5q0 -29 -21.5 -49.5t-51.5 -20.5zM647 551q-60 14 -108 21t-90 7q-66 0 -115.5 -18t-83 -49.5t-50.5 -75t-17 -94.5q0 -55 18 -100t51.5 -77t80.5 -49.5t104 -17.5q40 0 95.5 8
t117.5 22l22 -105q-60 -17 -122 -27.5t-119 -10.5q-84 0 -153.5 25.5t-118.5 72t-76 112.5t-27 146q0 79 27 144.5t76.5 112t118.5 72t154 25.5q63 0 121.5 -8t115.5 -23z" />
    <glyph glyph-name="cdotaccent" unicode="&#x10b;" horiz-adv-x="520" 
d="M294 556q-30 0 -51.5 20.5t-21.5 49.5q0 30 21.5 50t51.5 20t51.5 -20t21.5 -50q0 -29 -21.5 -49.5t-51.5 -20.5zM462 375q-42 9 -76.5 14.5t-60.5 5.5q-78 0 -122 -43t-44 -113q0 -35 11.5 -63.5t32.5 -48.5t49.5 -30.5t63.5 -10.5q26 0 66 5.5t82 16.5l17 -93
q-41 -14 -86 -22t-86 -8q-58 0 -106.5 18t-84 51.5t-55 80.5t-19.5 105t19.5 104.5t55 79.5t85.5 50.5t110 17.5q35 0 80.5 -6t83.5 -19z" />
    <glyph glyph-name="Ccaron" unicode="&#x10c;" horiz-adv-x="729" 
d="M375 737l-120 152h114l57 -73l58 73h114l-121 -152h-102zM647 551q-60 14 -108 21t-90 7q-66 0 -115.5 -18t-83 -49.5t-50.5 -75t-17 -94.5q0 -55 18 -100t51.5 -77t80.5 -49.5t104 -17.5q40 0 95.5 8t117.5 22l22 -105q-60 -17 -122 -27.5t-119 -10.5q-84 0 -153.5 25.5
t-118.5 72t-76 112.5t-27 146q0 79 27 144.5t76.5 112t118.5 72t154 25.5q63 0 121.5 -8t115.5 -23z" />
    <glyph glyph-name="ccaron" unicode="&#x10d;" horiz-adv-x="520" 
d="M242 560l-120 152h114l57 -73l58 73h114l-121 -152h-102zM462 375q-42 9 -76.5 14.5t-60.5 5.5q-78 0 -122 -43t-44 -113q0 -35 11.5 -63.5t32.5 -48.5t49.5 -30.5t63.5 -10.5q26 0 66 5.5t82 16.5l17 -93q-41 -14 -86 -22t-86 -8q-58 0 -106.5 18t-84 51.5t-55 80.5
t-19.5 105t19.5 104.5t55 79.5t85.5 50.5t110 17.5q35 0 80.5 -6t83.5 -19z" />
    <glyph glyph-name="Dcaron" unicode="&#x10e;" horiz-adv-x="741" 
d="M285 737l-120 152h114l57 -73l58 73h114l-121 -152h-102zM324 689q79 0 145.5 -24.5t114.5 -70t74.5 -109.5t26.5 -142q0 -80 -26.5 -144.5t-72.5 -110.5t-108.5 -71t-135.5 -25q-35 0 -72.5 0.5t-72 2t-64 2.5t-48.5 3v680q19 1 46.5 2.5t60 3t66.5 2.5t66 1zM343 102
q45 0 84.5 17t69 48.5t46.5 76t17 99.5q0 54 -17.5 97t-48.5 74t-74 47.5t-95 16.5q-29 0 -59.5 -1t-60.5 -3v-468q34 -2 69.5 -3t68.5 -1z" />
    <glyph glyph-name="dcaron" unicode="&#x10f;" horiz-adv-x="617" 
d="M540 7q-53 -7 -91.5 -11t-69 -5.5t-55.5 -2t-52 -0.5q-50 0 -91.5 16.5t-72 49t-47.5 79.5t-17 108q0 55 15 101t46 78t77 50t108 18q32 0 69 -3.5t66 -9.5v235h115v-703zM664 508h-87l6 202h117zM305 391q-41 0 -69.5 -11.5t-46 -31.5t-25.5 -47.5t-8 -59.5
q0 -72 35 -115.5t107 -43.5q17 0 47.5 2t79.5 8v286q-30 7 -62.5 10t-57.5 3z" />
    <glyph glyph-name="Dcroat" unicode="&#x110;" horiz-adv-x="741" 
d="M324 689q79 0 145.5 -24.5t114.5 -70t74.5 -109.5t26.5 -142q0 -80 -26.5 -144.5t-72.5 -110.5t-108.5 -71t-135.5 -25q-35 0 -72.5 0.5t-72 2t-64 2.5t-48.5 3v278h-56v111h56v291q19 1 46.5 2.5t60 3t66.5 2.5t66 1zM343 102q45 0 84.5 17t69 48.5t46.5 76t17 99.5
q0 54 -17.5 97t-48.5 74t-74 47.5t-95 16.5q-29 0 -59.5 -1t-60.5 -3v-185h144v-111h-144v-172q34 -2 69.5 -3t68.5 -1z" />
    <glyph glyph-name="dcroat" unicode="&#x111;" horiz-adv-x="617" 
d="M540 552v-545q-53 -7 -91.5 -11t-69 -5.5t-55.5 -2t-52 -0.5q-50 0 -91.5 16.5t-72 49t-47.5 79.5t-17 108q0 55 15 101t46 78t77 50t108 18q32 0 69 -3.5t66 -9.5v77h-164v95h164v63h115v-63h37v-95h-37zM425 378q-30 7 -62.5 10t-57.5 3q-41 0 -69.5 -11.5t-46 -31.5
t-25.5 -47.5t-8 -59.5q0 -72 35 -115.5t107 -43.5q17 0 47.5 2t79.5 8v286z" />
    <glyph glyph-name="Emacron" unicode="&#x112;" horiz-adv-x="634" 
d="M484 772h-312v93h312v-93zM536 395v-110h-331v-174h373v-111h-493v680h493v-111h-373v-174h331z" />
    <glyph glyph-name="emacron" unicode="&#x113;" horiz-adv-x="568" 
d="M440 585h-278v94h278v-94zM293 489q50 0 92 -15t73 -42.5t48.5 -66t18.5 -85.5q0 -15 -0.5 -25.5t-1 -19.5t-2 -19t-3.5 -23h-351q13 -48 51.5 -76.5t99.5 -28.5q32 0 71.5 6.5t97.5 19.5l16 -94q-55 -17 -100.5 -26t-88.5 -9q-67 0 -117.5 19.5t-84.5 53.5t-51 80
t-17 99q0 58 19 104.5t52.5 79.5t79 50.5t98.5 17.5zM296 398q-55 0 -89.5 -31.5t-43.5 -85.5h257q-2 54 -36 85.5t-88 31.5z" />
    <glyph glyph-name="Edotaccent" unicode="&#x116;" horiz-adv-x="634" 
d="M328 747q-30 0 -51.5 20.5t-21.5 49.5q0 30 21.5 50.5t51.5 20.5t51.5 -20.5t21.5 -50.5q0 -29 -21.5 -49.5t-51.5 -20.5zM536 395v-110h-331v-174h373v-111h-493v680h493v-111h-373v-174h331z" />
    <glyph glyph-name="edotaccent" unicode="&#x117;" horiz-adv-x="568" 
d="M301 557q-30 0 -51.5 20.5t-21.5 49.5q0 30 21.5 50t51.5 20t51.5 -20t21.5 -50q0 -29 -21.5 -49.5t-51.5 -20.5zM293 489q50 0 92 -15t73 -42.5t48.5 -66t18.5 -85.5q0 -15 -0.5 -25.5t-1 -19.5t-2 -19t-3.5 -23h-351q13 -48 51.5 -76.5t99.5 -28.5q32 0 71.5 6.5
t97.5 19.5l16 -94q-55 -17 -100.5 -26t-88.5 -9q-67 0 -117.5 19.5t-84.5 53.5t-51 80t-17 99q0 58 19 104.5t52.5 79.5t79 50.5t98.5 17.5zM296 398q-55 0 -89.5 -31.5t-43.5 -85.5h257q-2 54 -36 85.5t-88 31.5z" />
    <glyph glyph-name="Eogonek" unicode="&#x118;" horiz-adv-x="634" 
d="M205 395h331v-110h-331v-174h373v-111h-64q-31 -14 -43 -28.5t-12 -32.5q0 -43 61 -43q11 0 20 1.5l21 3.5l11 -85q-9 -4 -28 -7.5t-39 -3.5q-64 0 -103 31t-39 82q0 25 13.5 45.5t38.5 36.5h-330v680h493v-111h-373v-174z" />
    <glyph glyph-name="eogonek" unicode="&#x119;" horiz-adv-x="568" 
d="M525 280q0 -15 -0.5 -25.5t-1 -19.5t-2 -19t-3.5 -23h-351q13 -48 51.5 -76.5t99.5 -28.5q32 0 71.5 6.5t97.5 19.5l16 -94q-13 -4 -25 -7.5t-23 -6.5q-39 -16 -54 -31.5t-15 -35.5q0 -43 61 -43q11 0 20 1.5l21 3.5l11 -85q-9 -4 -28 -7.5t-39 -3.5q-64 0 -103 31
t-39 82q0 38 32 67h-8q-67 0 -117.5 19.5t-84.5 53.5t-51 80t-17 99q0 58 19 104.5t52.5 79.5t79 50.5t98.5 17.5q50 0 92 -15t73 -42.5t48.5 -66t18.5 -85.5zM420 281q-2 54 -36 85.5t-88 31.5q-55 0 -89.5 -31.5t-43.5 -85.5h257z" />
    <glyph glyph-name="Ecaron" unicode="&#x11a;" horiz-adv-x="634" 
d="M277 737l-120 152h114l57 -73l58 73h114l-121 -152h-102zM536 395v-110h-331v-174h373v-111h-493v680h493v-111h-373v-174h331z" />
    <glyph glyph-name="ecaron" unicode="&#x11b;" horiz-adv-x="568" 
d="M249 561l-120 152h114l57 -73l58 73h113l-120 -152h-102zM293 489q50 0 92 -15t73 -42.5t48.5 -66t18.5 -85.5q0 -15 -0.5 -25.5t-1 -19.5t-2 -19t-3.5 -23h-351q13 -48 51.5 -76.5t99.5 -28.5q32 0 71.5 6.5t97.5 19.5l16 -94q-55 -17 -100.5 -26t-88.5 -9
q-67 0 -117.5 19.5t-84.5 53.5t-51 80t-17 99q0 58 19 104.5t52.5 79.5t79 50.5t98.5 17.5zM296 398q-55 0 -89.5 -31.5t-43.5 -85.5h257q-2 54 -36 85.5t-88 31.5z" />
    <glyph glyph-name="Gbreve" unicode="&#x11e;" horiz-adv-x="800" 
d="M577 899q0 -72 -42 -111.5t-114 -39.5t-114 39.5t-42 111.5h98q0 -33 16 -47t42 -14q25 0 41 14t16 47h99zM733 59q-82 -35 -160.5 -54.5t-153.5 -19.5q-82 0 -149 25.5t-114.5 72.5t-73.5 113t-26 147q0 79 27.5 144t77 111t119.5 71.5t156 25.5q50 0 110.5 -7
t123.5 -23l-24 -112q-71 13 -121 19.5t-80 6.5q-59 0 -107.5 -17t-83 -48t-53.5 -74.5t-19 -96.5q0 -54 17 -98.5t48 -76t75 -49t97 -17.5q45 0 98.5 8t101.5 22v148h-245v111h359v-332z" />
    <glyph glyph-name="gbreve" unicode="&#x11f;" horiz-adv-x="609" 
d="M472 708q0 -72 -42 -112t-114 -40t-114 40t-42 112h98q0 -33 16 -47t42 -14q25 0 41 14t16 47h99zM282 488q54 0 94 -3t70.5 -6.5t53 -7.5t41.5 -6v-455q0 -57 -17 -105.5t-51 -83.5t-84.5 -54.5t-117.5 -19.5q-40 0 -85.5 9t-84.5 21l19 95q42 -8 79 -15t69 -7
q73 0 114.5 40t43.5 113q-48 -6 -82 -7t-71 -1q-51 0 -93.5 18t-72.5 50.5t-46.5 77t-16.5 98.5q0 56 16 102t46 78.5t74.5 50.5t101.5 18zM298 391q-38 0 -65 -11.5t-44 -32.5t-24.5 -49.5t-7.5 -61.5q0 -30 9.5 -56.5t26.5 -46t42 -30.5t55 -11q28 0 57.5 1t78.5 9v281
q-29 4 -60 6t-68 2z" />
    <glyph glyph-name="Gdotaccent" unicode="&#x120;" horiz-adv-x="800" 
d="M421 747q-30 0 -51.5 20.5t-21.5 49.5q0 30 21.5 50.5t51.5 20.5t51.5 -20.5t21.5 -50.5q0 -29 -21.5 -49.5t-51.5 -20.5zM733 59q-82 -35 -160.5 -54.5t-153.5 -19.5q-82 0 -149 25.5t-114.5 72.5t-73.5 113t-26 147q0 79 27.5 144t77 111t119.5 71.5t156 25.5
q50 0 110.5 -7t123.5 -23l-24 -112q-71 13 -121 19.5t-80 6.5q-59 0 -107.5 -17t-83 -48t-53.5 -74.5t-19 -96.5q0 -54 17 -98.5t48 -76t75 -49t97 -17.5q45 0 98.5 8t101.5 22v148h-245v111h359v-332z" />
    <glyph glyph-name="gdotaccent" unicode="&#x121;" horiz-adv-x="609" 
d="M316 557q-30 0 -51.5 20.5t-21.5 49.5q0 30 21.5 50t51.5 20t51.5 -20t21.5 -50q0 -29 -21.5 -49.5t-51.5 -20.5zM282 488q54 0 94 -3t70.5 -6.5t53 -7.5t41.5 -6v-455q0 -57 -17 -105.5t-51 -83.5t-84.5 -54.5t-117.5 -19.5q-40 0 -85.5 9t-84.5 21l19 95q42 -8 79 -15
t69 -7q73 0 114.5 40t43.5 113q-48 -6 -82 -7t-71 -1q-51 0 -93.5 18t-72.5 50.5t-46.5 77t-16.5 98.5q0 56 16 102t46 78.5t74.5 50.5t101.5 18zM298 391q-38 0 -65 -11.5t-44 -32.5t-24.5 -49.5t-7.5 -61.5q0 -30 9.5 -56.5t26.5 -46t42 -30.5t55 -11q28 0 57.5 1t78.5 9
v281q-29 4 -60 6t-68 2z" />
    <glyph glyph-name="uni0122" unicode="&#x122;" horiz-adv-x="800" 
d="M733 59q-82 -35 -160.5 -54.5t-153.5 -19.5q-82 0 -149 25.5t-114.5 72.5t-73.5 113t-26 147q0 79 27.5 144t77 111t119.5 71.5t156 25.5q50 0 110.5 -7t123.5 -23l-24 -112q-71 13 -121 19.5t-80 6.5q-59 0 -107.5 -17t-83 -48t-53.5 -74.5t-19 -96.5q0 -54 17 -98.5
t48 -76t75 -49t97 -17.5q45 0 98.5 8t101.5 22v148h-245v111h359v-332zM386 -168q-40 15 -40 55q0 26 20 44.5t47 18.5q28 0 47.5 -18.5t19.5 -44.5q0 -10 -2 -18t-8.5 -21t-20 -35t-35.5 -60h-64z" />
    <glyph glyph-name="uni0123" unicode="&#x123;" horiz-adv-x="609" 
d="M344 689q40 -15 40 -55q0 -26 -20 -44.5t-47 -18.5q-28 0 -47.5 18.5t-19.5 44.5q0 10 2 18t8.5 21t19.5 35t36 60h64zM282 488q54 0 94 -3t70.5 -6.5t53 -7.5t41.5 -6v-455q0 -57 -17 -105.5t-51 -83.5t-84.5 -54.5t-117.5 -19.5q-40 0 -85.5 9t-84.5 21l19 95
q42 -8 79 -15t69 -7q73 0 114.5 40t43.5 113q-48 -6 -82 -7t-71 -1q-51 0 -93.5 18t-72.5 50.5t-46.5 77t-16.5 98.5q0 56 16 102t46 78.5t74.5 50.5t101.5 18zM298 391q-38 0 -65 -11.5t-44 -32.5t-24.5 -49.5t-7.5 -61.5q0 -30 9.5 -56.5t26.5 -46t42 -30.5t55 -11
q28 0 57.5 1t78.5 9v281q-29 4 -60 6t-68 2z" />
    <glyph glyph-name="Hbar" unicode="&#x126;" horiz-adv-x="759" 
d="M674 484v-484h-119v278h-350v-278h-120v484h-43v99h43v97h120v-97h350v97h119v-97h43v-99h-43zM205 484v-95h350v95h-350z" />
    <glyph glyph-name="hbar" unicode="&#x127;" horiz-adv-x="618" 
d="M351 488q91 0 144.5 -49.5t53.5 -134.5v-304h-115v271q0 51 -29.5 81.5t-78.5 30.5q-63 0 -132 -15v-368h-115v579h-50v82h50v49h115v-49h133v-82h-133v-106q40 8 80.5 11.5t76.5 3.5z" />
    <glyph glyph-name="Imacron" unicode="&#x12a;" horiz-adv-x="290" 
d="M301 772h-312v93h312v-93zM205 0h-120v680h120v-680z" />
    <glyph glyph-name="imacron" unicode="&#x12b;" horiz-adv-x="263" 
d="M271 585h-278v94h278v-94zM189 0h-115v473h115v-473z" />
    <glyph glyph-name="Iogonek" unicode="&#x12e;" horiz-adv-x="290" 
d="M223 -177q-9 -4 -28 -7.5t-39 -3.5q-64 0 -103 31t-39 82q0 29 18.5 52.5t52.5 39.5v663h120v-680h-54q-23 -13 -32 -25.5t-9 -28.5q0 -43 61 -43q11 0 20 1.5l21 3.5z" />
    <glyph glyph-name="iogonek" unicode="&#x12f;" horiz-adv-x="263" 
d="M132 557q-30 0 -51.5 20.5t-21.5 49.5q0 30 21.5 50t51.5 20t51.5 -20t21.5 -50q0 -29 -21.5 -49.5t-51.5 -20.5zM149 -104q11 0 20 1.5l21 3.5l11 -85q-9 -4 -28 -7.5t-39 -3.5q-64 0 -103 31t-39 82q0 31 21.5 56.5t60.5 40.5v458h115v-473h-46q-31 -14 -43 -28.5
t-12 -32.5q0 -43 61 -43z" />
    <glyph glyph-name="Idotaccent" unicode="&#x130;" horiz-adv-x="290" 
d="M145 754q-33 0 -56.5 22.5t-23.5 54.5q0 33 23.5 55t56.5 22t56.5 -22t23.5 -55q0 -32 -23.5 -54.5t-56.5 -22.5zM205 0h-120v680h120v-680z" />
    <glyph glyph-name="dotlessi" unicode="&#x131;" horiz-adv-x="263" 
d="M189 0h-115v473h115v-473z" />
    <glyph glyph-name="IJ" unicode="&#x132;" horiz-adv-x="854" 
d="M205 0h-120v680h120v-680zM779 262q0 -65 -17.5 -116.5t-49.5 -87t-76.5 -54.5t-99.5 -19q-31 0 -57.5 2t-53.5 7t-56 12.5t-64 18.5l22 107q36 -9 64 -15t52.5 -9.5t46.5 -5t46 -1.5q53 0 87.5 41t34.5 119v419h121v-418z" />
    <glyph glyph-name="ij" unicode="&#x133;" horiz-adv-x="543" 
d="M131 554q-32 0 -54.5 21.5t-22.5 53.5q0 34 22.5 55.5t54.5 21.5t54.5 -21.5t22.5 -55.5q0 -32 -22.5 -53.5t-54.5 -21.5zM406 706q32 0 55 -21.5t23 -55.5q0 -32 -23 -53.5t-55 -21.5t-55 21.5t-23 53.5q0 34 23 55.5t55 21.5zM189 0h-115v473h115v-473zM464 -14
q0 -56 -9 -98.5t-32.5 -72t-65 -45.5t-107.5 -17l-10 101q34 -1 55 6t33 21.5t16.5 37.5t4.5 53v501h115v-487z" />
    <glyph glyph-name="uni0136" unicode="&#x136;" horiz-adv-x="703" 
d="M205 0h-120v680h120v-310h54l260 310h149l-270 -321l283 -359h-148l-206 253h-122v-253zM308 -168q-40 15 -40 55q0 26 20 44.5t47 18.5q28 0 47.5 -18.5t19.5 -44.5q0 -10 -2 -18t-8.5 -21t-20 -35t-35.5 -60h-64z" />
    <glyph glyph-name="uni0137" unicode="&#x137;" horiz-adv-x="580" 
d="M232 294l169 179h140l-188 -201l204 -272h-135l-145 186h-85v-186h-115v710h115v-416h40zM258 -168q-40 15 -40 55q0 26 20 44.5t47 18.5q28 0 47.5 -18.5t19.5 -44.5q0 -10 -2 -18t-8.5 -21t-20 -35t-35.5 -60h-64z" />
    <glyph glyph-name="Lacute" unicode="&#x139;" horiz-adv-x="596" 
d="M217 749h-121l84 142h154zM85 0v680h120v-572h358v-108h-478z" />
    <glyph glyph-name="lacute" unicode="&#x13a;" horiz-adv-x="275" 
d="M192 759h-113l76 151h155zM195 0h-115v710h115v-710z" />
    <glyph glyph-name="uni013B" unicode="&#x13b;" horiz-adv-x="596" 
d="M85 0v680h120v-572h358v-108h-478zM292 -168q-40 15 -40 55q0 26 20 44.5t47 18.5q28 0 47.5 -18.5t19.5 -44.5q0 -10 -2 -18t-8.5 -21t-20 -35t-35.5 -60h-64z" />
    <glyph glyph-name="uni013C" unicode="&#x13c;" horiz-adv-x="275" 
d="M195 0h-115v710h115v-710zM107 -168q-40 15 -40 55q0 26 20 44.5t47 18.5q28 0 47.5 -18.5t19.5 -44.5q0 -10 -2 -18t-8.5 -21t-20 -35t-35.5 -60h-64z" />
    <glyph glyph-name="Lcaron" unicode="&#x13d;" horiz-adv-x="596" 
d="M85 0v680h120v-572h358v-108h-478zM379 478h-87l6 202h117z" />
    <glyph glyph-name="lcaron" unicode="&#x13e;" horiz-adv-x="275" 
d="M195 0h-115v710h115v-710zM317 508h-87l6 202h117z" />
    <glyph glyph-name="Ldot" unicode="&#x13f;" horiz-adv-x="596" 
d="M85 0v680h120v-572h358v-108h-478zM394 246q-31 0 -52 20.5t-21 50.5q0 29 21 49.5t52 20.5q30 0 51 -20.5t21 -49.5q0 -30 -21 -50.5t-51 -20.5z" />
    <glyph glyph-name="ldot" unicode="&#x140;" horiz-adv-x="374" 
d="M195 0h-115v710h115v-710zM318 261q-31 0 -52 20t-21 50q0 29 21 49.5t52 20.5q30 0 51.5 -20.5t21.5 -49.5q0 -30 -21.5 -50t-51.5 -20z" />
    <glyph glyph-name="Lslash" unicode="&#x141;" horiz-adv-x="596" 
d="M563 0h-478v228l-72 -30v101l72 30v351h120v-302l152 63v-100l-152 -63v-170h358v-108z" />
    <glyph glyph-name="lslash" unicode="&#x142;" horiz-adv-x="275" 
d="M195 316v-316h-115v267l-64 -28v100l64 28v343h115v-294l67 29v-100z" />
    <glyph glyph-name="Nacute" unicode="&#x143;" horiz-adv-x="779" 
d="M451 749h-121l84 142h154zM694 0h-114l-375 476v-476h-120v680h111l379 -481v481h119v-680z" />
    <glyph glyph-name="nacute" unicode="&#x144;" horiz-adv-x="617" 
d="M360 563h-113l76 151h154zM349 488q91 0 144.5 -49.5t53.5 -134.5v-304h-115v271q0 51 -29.5 81.5t-78.5 30.5q-32 0 -64.5 -2t-67.5 -6v-375h-115v465q19 4 51 8t69.5 7.5t77 5.5t74.5 2z" />
    <glyph glyph-name="uni0145" unicode="&#x145;" horiz-adv-x="779" 
d="M694 0h-114l-375 476v-476h-120v680h111l379 -481v481h119v-680zM355 -176q-40 15 -40 55q0 26 20 44.5t47 18.5q28 0 47.5 -18.5t19.5 -44.5q0 -10 -2 -18t-8.5 -21t-20 -35t-35.5 -60h-64z" />
    <glyph glyph-name="uni0146" unicode="&#x146;" horiz-adv-x="617" 
d="M349 488q91 0 144.5 -49.5t53.5 -134.5v-304h-115v271q0 51 -29.5 81.5t-78.5 30.5q-32 0 -64.5 -2t-67.5 -6v-375h-115v465q19 4 51 8t69.5 7.5t77 5.5t74.5 2zM277 -168q-40 15 -40 55q0 26 20 44.5t47 18.5q28 0 47.5 -18.5t19.5 -44.5q0 -10 -2 -18t-8.5 -21t-20 -35
t-35.5 -60h-64z" />
    <glyph glyph-name="Ncaron" unicode="&#x147;" horiz-adv-x="779" 
d="M331 737l-120 152h114l57 -73l58 73h114l-121 -152h-102zM694 0h-114l-375 476v-476h-120v680h111l379 -481v481h119v-680z" />
    <glyph glyph-name="ncaron" unicode="&#x148;" horiz-adv-x="617" 
d="M257 561l-120 152h114l57 -73l58 73h114l-121 -152h-102zM349 488q91 0 144.5 -49.5t53.5 -134.5v-304h-115v271q0 51 -29.5 81.5t-78.5 30.5q-32 0 -64.5 -2t-67.5 -6v-375h-115v465q19 4 51 8t69.5 7.5t77 5.5t74.5 2z" />
    <glyph glyph-name="Omacron" unicode="&#x14c;" horiz-adv-x="837" 
d="M575 772h-312v93h312v-93zM418 695q79 0 146 -25.5t115 -72t75 -112t27 -145.5t-27 -145.5t-75 -112t-115 -72t-146 -25.5q-80 0 -146.5 25.5t-114.5 72t-74.5 112t-26.5 145.5t26.5 145.5t74.5 112t114.5 72t146.5 25.5zM419 98q51 0 94.5 17.5t75 49t49 76.5t17.5 99
t-17.5 99t-49 76.5t-75 49t-94.5 17.5q-52 0 -95.5 -17.5t-75 -49t-49 -76.5t-17.5 -99t17.5 -99t49 -76.5t75 -49t95.5 -17.5z" />
    <glyph glyph-name="omacron" unicode="&#x14d;" horiz-adv-x="616" 
d="M448 585h-278v94h278v-94zM309 494q59 0 108 -18.5t83.5 -51.5t53.5 -80t19 -104q0 -58 -19 -105.5t-53.5 -81.5t-83.5 -52.5t-108 -18.5t-108 18.5t-84 52.5t-54 81.5t-19 105.5q0 57 19 104t54 80t84 51.5t108 18.5zM309 87q66 0 106.5 42t40.5 111q0 68 -40.5 108.5
t-106.5 40.5q-67 0 -108 -40.5t-41 -108.5q0 -69 41 -111t108 -42z" />
    <glyph glyph-name="Ohungarumlaut" unicode="&#x150;" horiz-adv-x="837" 
d="M399 749h-104l48 142h114zM553 749h-103l47 142h114zM418 695q79 0 146 -25.5t115 -72t75 -112t27 -145.5t-27 -145.5t-75 -112t-115 -72t-146 -25.5q-80 0 -146.5 25.5t-114.5 72t-74.5 112t-26.5 145.5t26.5 145.5t74.5 112t114.5 72t146.5 25.5zM419 98
q51 0 94.5 17.5t75 49t49 76.5t17.5 99t-17.5 99t-49 76.5t-75 49t-94.5 17.5q-52 0 -95.5 -17.5t-75 -49t-49 -76.5t-17.5 -99t17.5 -99t49 -76.5t75 -49t95.5 -17.5z" />
    <glyph glyph-name="ohungarumlaut" unicode="&#x151;" horiz-adv-x="616" 
d="M286 561h-103l47 143h114zM440 561h-103l47 143h114zM309 494q59 0 108 -18.5t83.5 -51.5t53.5 -80t19 -104q0 -58 -19 -105.5t-53.5 -81.5t-83.5 -52.5t-108 -18.5t-108 18.5t-84 52.5t-54 81.5t-19 105.5q0 57 19 104t54 80t84 51.5t108 18.5zM309 87q66 0 106.5 42
t40.5 111q0 68 -40.5 108.5t-106.5 40.5q-67 0 -108 -40.5t-41 -108.5q0 -69 41 -111t108 -42z" />
    <glyph glyph-name="OE" unicode="&#x152;" horiz-adv-x="998" 
d="M900 395v-110h-331v-174h373v-111h-493q-85 0 -157 23.5t-124.5 67.5t-82 106.5t-29.5 142.5q0 79 29.5 142t82 107t124.5 67.5t157 23.5h493v-111h-373v-174h331zM182 340q0 -109 69.5 -167.5t197.5 -59.5v454q-128 -1 -197.5 -59.5t-69.5 -167.5z" />
    <glyph glyph-name="oe" unicode="&#x153;" horiz-adv-x="981" 
d="M938 280q0 -15 -0.5 -25.5t-1 -19.5t-2 -19t-3.5 -23h-351q13 -48 51.5 -76.5t99.5 -28.5q32 0 72 6.5t97 19.5l16 -94q-55 -17 -100.5 -26t-88.5 -9q-72 0 -125 22.5t-87 61.5q-35 -42 -87.5 -64.5t-118.5 -22.5q-59 0 -108 18.5t-84 52.5t-54 81.5t-19 105.5
q0 57 19 104t54 80t84 51.5t108 18.5q66 0 119 -22.5t88 -64.5q34 39 83 60.5t107 21.5q50 0 92 -15t73 -42.5t48.5 -66t18.5 -85.5zM834 281q-2 54 -36.5 85.5t-88.5 31.5q-55 0 -89.5 -31.5t-43.5 -85.5h258zM309 87q66 0 106.5 42t40.5 111q0 68 -40.5 108.5t-106.5 40.5
q-67 0 -108 -40.5t-41 -108.5q0 -69 41 -111t108 -42z" />
    <glyph glyph-name="Racute" unicode="&#x154;" horiz-adv-x="671" 
d="M375 749h-121l84 142h154zM350 221q-12 -1 -24 -1h-25h-96v-220h-120v680q20 1 49.5 2t63 2t69 1.5t67.5 0.5q61 0 111.5 -15t86.5 -44t55.5 -72t19.5 -99q0 -71 -37 -124t-101 -82l181 -250h-146zM348 327q30 0 56 9.5t45 26.5t30 40.5t11 52.5q0 63 -41.5 92.5
t-109.5 29.5q-32 0 -65.5 -0.5t-68.5 -1.5v-249h143z" />
    <glyph glyph-name="racute" unicode="&#x155;" horiz-adv-x="401" 
d="M274 563h-113l76 151h154zM368 375q-46 0 -88.5 -1.5t-87.5 -5.5v-368h-115v459q31 6 67.5 11t75 9t76.5 6.5t72 2.5v-113z" />
    <glyph glyph-name="uni0156" unicode="&#x156;" horiz-adv-x="671" 
d="M350 221q-12 -1 -24 -1h-25h-96v-220h-120v680q20 1 49.5 2t63 2t69 1.5t67.5 0.5q61 0 111.5 -15t86.5 -44t55.5 -72t19.5 -99q0 -71 -37 -124t-101 -82l181 -250h-146zM348 327q30 0 56 9.5t45 26.5t30 40.5t11 52.5q0 63 -41.5 92.5t-109.5 29.5q-32 0 -65.5 -0.5
t-68.5 -1.5v-249h143zM311 -168q-40 15 -40 55q0 26 20 44.5t47 18.5q28 0 47.5 -18.5t19.5 -44.5q0 -10 -2 -18t-8.5 -21t-20 -35t-35.5 -60h-64z" />
    <glyph glyph-name="uni0157" unicode="&#x157;" horiz-adv-x="401" 
d="M368 375q-46 0 -88.5 -1.5t-87.5 -5.5v-368h-115v459q31 6 67.5 11t75 9t76.5 6.5t72 2.5v-113zM105 -168q-40 15 -40 55q0 26 20 44.5t47 18.5q28 0 47.5 -18.5t19.5 -44.5q0 -10 -2 -18t-8.5 -21t-20 -35t-35.5 -60h-64z" />
    <glyph glyph-name="Rcaron" unicode="&#x158;" horiz-adv-x="671" 
d="M255 737l-120 152h114l57 -73l58 73h114l-121 -152h-102zM350 221q-12 -1 -24 -1h-25h-96v-220h-120v680q20 1 49.5 2t63 2t69 1.5t67.5 0.5q61 0 111.5 -15t86.5 -44t55.5 -72t19.5 -99q0 -71 -37 -124t-101 -82l181 -250h-146zM348 327q30 0 56 9.5t45 26.5t30 40.5
t11 52.5q0 63 -41.5 92.5t-109.5 29.5q-32 0 -65.5 -0.5t-68.5 -1.5v-249h143z" />
    <glyph glyph-name="rcaron" unicode="&#x159;" horiz-adv-x="401" 
d="M171 561l-120 152h114l57 -73l58 73h114l-121 -152h-102zM368 375q-46 0 -88.5 -1.5t-87.5 -5.5v-368h-115v459q31 6 67.5 11t75 9t76.5 6.5t72 2.5v-113z" />
    <glyph glyph-name="Sacute" unicode="&#x15a;" horiz-adv-x="679" 
d="M408 749h-121l84 142h154zM565 538q-62 20 -124.5 31.5t-107.5 11.5q-59 0 -93 -22t-34 -67q0 -22 11 -37t33 -25.5t54 -18.5t73 -16q56 -11 100.5 -26t75 -37.5t46.5 -55t16 -79.5q0 -54 -20 -93.5t-56 -66t-86 -39.5t-109 -13q-60 0 -135 13t-150 44l29 112
q75 -30 142 -43t119 -13q66 0 105.5 20.5t39.5 66.5q0 30 -17 48t-45.5 29.5t-64.5 18.5t-73 15q-56 12 -97 27.5t-67 38t-38.5 53t-12.5 72.5q0 46 18.5 84t52 64t81 40.5t105.5 14.5q36 0 73 -4t71 -10.5t63.5 -14.5t52.5 -17z" />
    <glyph glyph-name="sacute" unicode="&#x15b;" horiz-adv-x="526" 
d="M316 561h-113l76 151h154zM76 122q59 -23 108 -32.5t86 -9.5q42 0 69.5 11.5t27.5 37.5q0 17 -12 27.5t-32 17t-45 11.5t-51 10q-81 16 -121.5 47t-40.5 92q0 72 54 112t147 40q53 0 106.5 -10.5t87.5 -24.5l-27 -89q-48 14 -93.5 23t-79.5 9q-39 0 -60.5 -13.5
t-21.5 -38.5q0 -15 9 -24.5t25.5 -15.5t39.5 -10.5t51 -10.5q42 -9 73.5 -19.5t53.5 -26t33 -38.5t11 -56q0 -41 -15.5 -70t-43.5 -48.5t-66.5 -28.5t-84.5 -9q-42 0 -98 9.5t-113 32.5z" />
    <glyph glyph-name="Scedilla" unicode="&#x15e;" horiz-adv-x="679" 
d="M565 538q-62 20 -124.5 31.5t-107.5 11.5q-59 0 -93 -22t-34 -67q0 -22 11 -37t33 -25.5t54 -18.5t73 -16q56 -11 100.5 -26t75 -37.5t46.5 -55t16 -79.5q0 -54 -20 -93.5t-56 -66t-86 -39.5t-109 -13q-60 0 -135 13t-150 44l29 112q75 -30 142 -43t119 -13
q66 0 105.5 20.5t39.5 66.5q0 30 -17 48t-45.5 29.5t-64.5 18.5t-73 15q-56 12 -97 27.5t-67 38t-38.5 53t-12.5 72.5q0 46 18.5 84t52 64t81 40.5t105.5 14.5q36 0 73 -4t71 -10.5t63.5 -14.5t52.5 -17zM239 -209l45 159h110l-59 -159h-96z" />
    <glyph glyph-name="scedilla" unicode="&#x15f;" horiz-adv-x="526" 
d="M76 122q59 -23 108 -32.5t86 -9.5q42 0 69.5 11.5t27.5 37.5q0 17 -12 27.5t-32 17t-45 11.5t-51 10q-81 16 -121.5 47t-40.5 92q0 72 54 112t147 40q53 0 106.5 -10.5t87.5 -24.5l-27 -89q-48 14 -93.5 23t-79.5 9q-39 0 -60.5 -13.5t-21.5 -38.5q0 -15 9 -24.5
t25.5 -15.5t39.5 -10.5t51 -10.5q42 -9 73.5 -19.5t53.5 -26t33 -38.5t11 -56q0 -41 -15.5 -70t-43.5 -48.5t-66.5 -28.5t-84.5 -9q-42 0 -98 9.5t-113 32.5zM168 -209l45 159h110l-59 -159h-96z" />
    <glyph glyph-name="Scaron" unicode="&#x160;" horiz-adv-x="679" 
d="M288 737l-120 152h114l57 -73l58 73h114l-121 -152h-102zM565 538q-62 20 -124.5 31.5t-107.5 11.5q-59 0 -93 -22t-34 -67q0 -22 11 -37t33 -25.5t54 -18.5t73 -16q56 -11 100.5 -26t75 -37.5t46.5 -55t16 -79.5q0 -54 -20 -93.5t-56 -66t-86 -39.5t-109 -13
q-60 0 -135 13t-150 44l29 112q75 -30 142 -43t119 -13q66 0 105.5 20.5t39.5 66.5q0 30 -17 48t-45.5 29.5t-64.5 18.5t-73 15q-56 12 -97 27.5t-67 38t-38.5 53t-12.5 72.5q0 46 18.5 84t52 64t81 40.5t105.5 14.5q36 0 73 -4t71 -10.5t63.5 -14.5t52.5 -17z" />
    <glyph glyph-name="scaron" unicode="&#x161;" horiz-adv-x="526" 
d="M213 559l-120 152h114l57 -73l58 73h114l-121 -152h-102zM76 122q59 -23 108 -32.5t86 -9.5q42 0 69.5 11.5t27.5 37.5q0 17 -12 27.5t-32 17t-45 11.5t-51 10q-81 16 -121.5 47t-40.5 92q0 72 54 112t147 40q53 0 106.5 -10.5t87.5 -24.5l-27 -89q-48 14 -93.5 23
t-79.5 9q-39 0 -60.5 -13.5t-21.5 -38.5q0 -15 9 -24.5t25.5 -15.5t39.5 -10.5t51 -10.5q42 -9 73.5 -19.5t53.5 -26t33 -38.5t11 -56q0 -41 -15.5 -70t-43.5 -48.5t-66.5 -28.5t-84.5 -9q-42 0 -98 9.5t-113 32.5z" />
    <glyph glyph-name="Tcaron" unicode="&#x164;" horiz-adv-x="676" 
d="M287 737l-120 152h114l57 -73l58 73h114l-121 -152h-102zM398 0h-120v569h-248v111h616v-111h-248v-569z" />
    <glyph glyph-name="tcaron" unicode="&#x165;" horiz-adv-x="455" 
d="M367 529h-87l6 202h117zM424 0q-16 -4 -29.5 -6.5t-27 -4.5t-29.5 -3t-38 -1q-86 0 -131.5 47.5t-45.5 139.5v198h-102v103h102v178h116v-178h156v-103h-156v-186q0 -48 19 -72t64 -24q22 0 43.5 1.5t47.5 6.5z" />
    <glyph glyph-name="Umacron" unicode="&#x16a;" horiz-adv-x="760" 
d="M537 772h-312v93h312v-93zM685 290q0 -71 -22 -127t-62 -96t-96 -61t-125 -21t-125 21t-96 61t-62 96t-22 127v390h120v-390q0 -91 50.5 -142t134.5 -51q42 0 76 13t58 38t37.5 61t13.5 81v390h120v-390z" />
    <glyph glyph-name="umacron" unicode="&#x16b;" horiz-adv-x="619" 
d="M449 585h-278v94h278v-94zM545 10q-19 -4 -51 -8.5t-69.5 -8t-77 -6t-73.5 -2.5q-45 0 -81.5 10t-62.5 32.5t-40.5 57t-14.5 84.5v304h115v-277q0 -112 108 -112q63 0 132 9v380h115v-463z" />
    <glyph glyph-name="Uring" unicode="&#x16e;" horiz-adv-x="760" 
d="M380 940q51 0 81.5 -28t30.5 -76t-30.5 -76.5t-81.5 -28.5q-50 0 -80.5 28.5t-30.5 76.5t30.5 76t80.5 28zM380 790q21 0 33.5 12.5t12.5 33.5q0 20 -12.5 32.5t-33.5 12.5q-20 0 -33 -12.5t-13 -32.5q0 -21 13 -33.5t33 -12.5zM685 290q0 -71 -22 -127t-62 -96t-96 -61
t-125 -21t-125 21t-96 61t-62 96t-22 127v390h120v-390q0 -91 50.5 -142t134.5 -51q42 0 76 13t58 38t37.5 61t13.5 81v390h120v-390z" />
    <glyph glyph-name="uring" unicode="&#x16f;" horiz-adv-x="619" 
d="M309 753q51 0 81.5 -28t30.5 -76t-30.5 -76.5t-81.5 -28.5q-50 0 -80.5 28.5t-30.5 76.5t30.5 76t80.5 28zM309 603q21 0 33.5 12.5t12.5 33.5q0 20 -12.5 32.5t-33.5 12.5q-20 0 -33 -12.5t-13 -32.5q0 -21 13 -33.5t33 -12.5zM545 10q-19 -4 -51 -8.5t-69.5 -8t-77 -6
t-73.5 -2.5q-45 0 -81.5 10t-62.5 32.5t-40.5 57t-14.5 84.5v304h115v-277q0 -112 108 -112q63 0 132 9v380h115v-463z" />
    <glyph glyph-name="Uhungarumlaut" unicode="&#x170;" horiz-adv-x="760" 
d="M361 749h-104l48 142h114zM515 749h-103l47 142h114zM685 290q0 -71 -22 -127t-62 -96t-96 -61t-125 -21t-125 21t-96 61t-62 96t-22 127v390h120v-390q0 -91 50.5 -142t134.5 -51q42 0 76 13t58 38t37.5 61t13.5 81v390h120v-390z" />
    <glyph glyph-name="uhungarumlaut" unicode="&#x171;" horiz-adv-x="619" 
d="M287 561h-103l47 143h114zM441 561h-103l47 143h114zM545 10q-19 -4 -51 -8.5t-69.5 -8t-77 -6t-73.5 -2.5q-45 0 -81.5 10t-62.5 32.5t-40.5 57t-14.5 84.5v304h115v-277q0 -112 108 -112q63 0 132 9v380h115v-463z" />
    <glyph glyph-name="Uogonek" unicode="&#x172;" horiz-adv-x="760" 
d="M685 290q0 -113 -54.5 -188.5t-148.5 -102.5q-35 -15 -48 -30t-13 -34q0 -43 61 -43q11 0 20 1.5l21 3.5l11 -85q-9 -4 -28 -7.5t-39 -3.5q-64 0 -103 31t-39 82q0 42 37 71q-65 3 -118 25.5t-90.5 62t-58 94.5t-20.5 123v390h120v-390q0 -91 50.5 -142t134.5 -51
q42 0 76 13t58 38t37.5 61t13.5 81v390h120v-390z" />
    <glyph glyph-name="uogonek" unicode="&#x173;" horiz-adv-x="619" 
d="M589 -180q-9 -4 -28 -7.5t-39 -3.5q-64 0 -103 31t-39 82q0 40 36 71q-36 -4 -73 -6t-69 -2q-45 0 -81.5 10t-62.5 32.5t-40.5 57t-14.5 84.5v304h115v-277q0 -112 108 -112q63 0 132 9v380h115v-463q-39 -16 -54 -31.5t-15 -35.5q0 -43 61 -43q11 0 20 1.5l21 3.5z" />
    <glyph glyph-name="Wcircumflex" unicode="&#x174;" horiz-adv-x="1060" 
d="M472 749h-113l120 142h102l121 -142h-114l-58 72zM696 0l-166 476l-166 -476h-114l-226 680h127l159 -495l169 495h102l168 -495l160 495h126l-226 -680h-113z" />
    <glyph glyph-name="wcircumflex" unicode="&#x175;" horiz-adv-x="818" 
d="M351 566h-113l120 138h102l121 -138h-114l-57 64zM520 0l-111 307l-111 -307h-111l-157 473h117l101 -317l117 317h89l116 -318l101 318h117l-156 -473h-112z" />
    <glyph glyph-name="Ycircumflex" unicode="&#x176;" horiz-adv-x="728" 
d="M306 749h-113l120 142h102l121 -142h-114l-58 72zM21 680h136l206 -325l207 325h136l-281 -451v-229h-122v229z" />
    <glyph glyph-name="ycircumflex" unicode="&#x177;" horiz-adv-x="641" 
d="M149 567l120 138h102l121 -138h-114l-57 64l-59 -64h-113zM272 -230h-130l128 263l-234 440h132l164 -312l151 312h130z" />
    <glyph glyph-name="Ydieresis" unicode="&#x178;" horiz-adv-x="728" 
d="M257 747q-31 0 -52 20.5t-21 49.5q0 30 21 50.5t52 20.5q30 0 51 -20.5t21 -50.5q0 -29 -21 -49.5t-51 -20.5zM470 747q-30 0 -51 20.5t-21 49.5q0 30 21 50.5t51 20.5q31 0 52 -20.5t21 -50.5q0 -29 -21 -49.5t-52 -20.5zM21 680h136l206 -325l207 325h136l-281 -451
v-229h-122v229z" />
    <glyph glyph-name="Zacute" unicode="&#x179;" horiz-adv-x="670" 
d="M405 749h-121l84 142h154zM230 111h383v-111h-559v74l386 495h-372v111h541v-74z" />
    <glyph glyph-name="zacute" unicode="&#x17a;" horiz-adv-x="503" 
d="M298 563h-113l76 151h154zM210 100h257v-100h-423v56l247 318h-242v100h401v-64z" />
    <glyph glyph-name="Zdotaccent" unicode="&#x17b;" horiz-adv-x="670" 
d="M336 747q-30 0 -51.5 20.5t-21.5 49.5q0 30 21.5 50.5t51.5 20.5t51.5 -20.5t21.5 -50.5q0 -29 -21.5 -49.5t-51.5 -20.5zM230 111h383v-111h-559v74l386 495h-372v111h541v-74z" />
    <glyph glyph-name="zdotaccent" unicode="&#x17c;" horiz-adv-x="503" 
d="M247 557q-30 0 -51.5 20.5t-21.5 49.5q0 30 21.5 50t51.5 20t51.5 -20t21.5 -50q0 -29 -21.5 -49.5t-51.5 -20.5zM210 100h257v-100h-423v56l247 318h-242v100h401v-64z" />
    <glyph glyph-name="Zcaron" unicode="&#x17d;" horiz-adv-x="670" 
d="M285 737l-120 152h114l57 -73l58 73h114l-121 -152h-102zM230 111h383v-111h-559v74l386 495h-372v111h541v-74z" />
    <glyph glyph-name="zcaron" unicode="&#x17e;" horiz-adv-x="503" 
d="M195 561l-120 152h114l57 -73l58 73h114l-121 -152h-102zM210 100h257v-100h-423v56l247 318h-242v100h401v-64z" />
    <glyph glyph-name="florin" unicode="&#x192;" horiz-adv-x="554" 
d="M413 695q29 0 52 -4.5t46 -11.5l-17 -95q-21 4 -38 5.5t-38 1.5q-38 0 -56.5 -24.5t-26.5 -78.5l-10 -71h170v-103h-184l-17 -125q-14 -100 -59.5 -152t-134.5 -52q-28 0 -51.5 4.5t-46.5 11.5l18 95q20 -4 37 -5.5t39 -1.5q38 0 56.5 24.5t25.5 78.5l17 122h-119v103
h134l10 74q14 100 59 152t134 52z" />
    <glyph glyph-name="uni01CD" unicode="&#x1cd;" horiz-adv-x="780" 
d="M339 737l-120 152h114l57 -73l58 73h114l-121 -152h-102zM159 0h-135l310 684h112l309 -684h-135l-61 139h-339zM267 247h246l-123 281z" />
    <glyph glyph-name="uni01CE" unicode="&#x1ce;" horiz-adv-x="614" 
d="M264 561l-120 152h114l57 -73l58 73h114l-121 -152h-102zM282 488q37 0 68 -1.5t60.5 -4.5t61 -7t69.5 -10v-465h-115v36q-33 -24 -70 -37.5t-83 -13.5q-51 0 -93.5 18t-72.5 51.5t-46.5 80.5t-16.5 104q1 56 17 102t46 78.5t74 50.5t101 18zM298 391q-38 0 -64.5 -11.5
t-43.5 -32.5t-25 -49.5t-8 -61.5q0 -69 36 -111.5t97 -42.5q34 0 67 11.5t69 39.5v250q-29 4 -60 6t-68 2z" />
    <glyph glyph-name="uni0218" unicode="&#x218;" horiz-adv-x="679" 
d="M565 538q-62 20 -124.5 31.5t-107.5 11.5q-59 0 -93 -22t-34 -67q0 -22 11 -37t33 -25.5t54 -18.5t73 -16q56 -11 100.5 -26t75 -37.5t46.5 -55t16 -79.5q0 -54 -20 -93.5t-56 -66t-86 -39.5t-109 -13q-60 0 -135 13t-150 44l29 112q75 -30 142 -43t119 -13
q66 0 105.5 20.5t39.5 66.5q0 30 -17 48t-45.5 29.5t-64.5 18.5t-73 15q-56 12 -97 27.5t-67 38t-38.5 53t-12.5 72.5q0 46 18.5 84t52 64t81 40.5t105.5 14.5q36 0 73 -4t71 -10.5t63.5 -14.5t52.5 -17zM295 -168q-40 15 -40 55q0 26 20 44.5t47 18.5q28 0 47.5 -18.5
t19.5 -44.5q0 -10 -2 -18t-8.5 -21t-20 -35t-35.5 -60h-64z" />
    <glyph glyph-name="uni0219" unicode="&#x219;" horiz-adv-x="526" 
d="M76 122q59 -23 108 -32.5t86 -9.5q42 0 69.5 11.5t27.5 37.5q0 17 -12 27.5t-32 17t-45 11.5t-51 10q-81 16 -121.5 47t-40.5 92q0 72 54 112t147 40q53 0 106.5 -10.5t87.5 -24.5l-27 -89q-48 14 -93.5 23t-79.5 9q-39 0 -60.5 -13.5t-21.5 -38.5q0 -15 9 -24.5
t25.5 -15.5t39.5 -10.5t51 -10.5q42 -9 73.5 -19.5t53.5 -26t33 -38.5t11 -56q0 -41 -15.5 -70t-43.5 -48.5t-66.5 -28.5t-84.5 -9q-42 0 -98 9.5t-113 32.5zM237 -168q-40 15 -40 55q0 26 20 44.5t47 18.5q28 0 47.5 -18.5t19.5 -44.5q0 -10 -2 -18t-8.5 -21t-20 -35
t-35.5 -60h-64z" />
    <glyph glyph-name="uni021A" unicode="&#x21a;" horiz-adv-x="676" 
d="M398 0h-120v569h-248v111h616v-111h-248v-569zM311 -168q-40 15 -40 55q0 26 20 44.5t47 18.5q28 0 47.5 -18.5t19.5 -44.5q0 -10 -2 -18t-8.5 -21t-20 -35t-35.5 -60h-64z" />
    <glyph glyph-name="uni021B" unicode="&#x21b;" horiz-adv-x="455" 
d="M424 0q-16 -4 -29.5 -6.5t-27 -4.5t-29.5 -3t-38 -1q-86 0 -131.5 47.5t-45.5 139.5v198h-102v103h102v178h116v-178h156v-103h-156v-186q0 -48 19 -72t64 -24q22 0 43.5 1.5t47.5 6.5zM234 -168q-40 15 -40 55q0 26 20 44.5t47 18.5q28 0 47.5 -18.5t19.5 -44.5
q0 -10 -2 -18t-8.5 -21t-20 -35t-35.5 -60h-64z" />
    <glyph glyph-name="circumflex" unicode="&#x2c6;" 
d="M242 566h-113l120 138h102l121 -138h-114l-57 64z" />
    <glyph glyph-name="caron" unicode="&#x2c7;" 
d="M249 561l-120 152h114l57 -73l58 73h114l-121 -152h-102z" />
    <glyph glyph-name="breve" unicode="&#x2d8;" 
d="M456 708q0 -72 -42 -112t-114 -40t-114 40t-42 112h98q0 -33 16 -47t42 -14q25 0 41 14t16 47h99z" />
    <glyph glyph-name="dotaccent" unicode="&#x2d9;" 
d="M300 557q-30 0 -51.5 20.5t-21.5 49.5q0 30 21.5 50t51.5 20t51.5 -20t21.5 -50q0 -29 -21.5 -49.5t-51.5 -20.5z" />
    <glyph glyph-name="ring" unicode="&#x2da;" 
d="M297 753q51 0 81.5 -28t30.5 -76t-30.5 -76.5t-81.5 -28.5q-50 0 -80.5 28.5t-30.5 76.5t30.5 76t80.5 28zM297 603q21 0 33.5 12.5t12.5 33.5q0 20 -12.5 32.5t-33.5 12.5q-20 0 -33 -12.5t-13 -32.5q0 -21 13 -33.5t33 -12.5z" />
    <glyph glyph-name="ogonek" unicode="&#x2db;" 
d="M369 29q-39 -16 -54 -31.5t-15 -35.5q0 -43 61 -43q11 0 20 1.5l21 3.5l11 -85q-9 -4 -28 -7.5t-39 -3.5q-64 0 -103 31t-39 82q0 44 41.5 75t113.5 39z" />
    <glyph glyph-name="tilde" unicode="&#x2dc;" 
d="M479 687q0 -45 -17 -73.5t-42 -41t-54 -11.5t-52 14l-49 31q-26 15 -37.5 3.5t-11.5 -29.5h-93q0 45 17 73.5t42.5 41t54 11t51.5 -14.5l50 -31q26 -15 37.5 -3t11.5 30h92z" />
    <glyph glyph-name="hungarumlaut" unicode="&#x2dd;" 
d="M277 561h-103l47 143h114zM431 561h-103l47 143h114z" />
    <glyph glyph-name="uni0326" unicode="&#x326;" horiz-adv-x="0" 
d="M272 -172q-40 15 -40 55q0 26 20 44.5t47 18.5q28 0 47.5 -18.5t19.5 -44.5q0 -10 -2 -18t-8.5 -21t-20 -35t-35.5 -60h-64z" />
    <glyph glyph-name="Wgrave" unicode="&#x1e80;" horiz-adv-x="1060" 
d="M476 749l-117 142h154l76 -142h-113zM696 0l-166 476l-166 -476h-114l-226 680h127l159 -495l169 495h102l168 -495l160 495h126l-226 -680h-113z" />
    <glyph glyph-name="wgrave" unicode="&#x1e81;" horiz-adv-x="818" 
d="M346 563l-118 151h155l75 -151h-112zM520 0l-111 307l-111 -307h-111l-157 473h117l101 -317l117 317h89l116 -318l101 318h117l-156 -473h-112z" />
    <glyph glyph-name="Wacute" unicode="&#x1e82;" horiz-adv-x="1060" 
d="M600 749h-121l84 142h154zM696 0l-166 476l-166 -476h-114l-226 680h127l159 -495l169 495h102l168 -495l160 495h126l-226 -680h-113z" />
    <glyph glyph-name="wacute" unicode="&#x1e83;" horiz-adv-x="818" 
d="M474 563h-113l76 151h154zM520 0l-111 307l-111 -307h-111l-157 473h117l101 -317l117 317h89l116 -318l101 318h117l-156 -473h-112z" />
    <glyph glyph-name="Wdieresis" unicode="&#x1e84;" horiz-adv-x="1060" 
d="M423 747q-31 0 -52 20.5t-21 49.5q0 30 21 50.5t52 20.5q30 0 51 -20.5t21 -50.5q0 -29 -21 -49.5t-51 -20.5zM636 747q-30 0 -51 20.5t-21 49.5q0 30 21 50.5t51 20.5q31 0 52 -20.5t21 -50.5q0 -29 -21 -49.5t-52 -20.5zM696 0l-166 476l-166 -476h-114l-226 680h127
l159 -495l169 495h102l168 -495l160 495h126l-226 -680h-113z" />
    <glyph glyph-name="wdieresis" unicode="&#x1e85;" horiz-adv-x="818" 
d="M304 697q30 0 51 -20t21 -50q0 -29 -21 -49.5t-51 -20.5q-31 0 -52 20.5t-21 49.5q0 30 21 50t52 20zM517 697q31 0 52 -20t21 -50q0 -29 -21 -49.5t-52 -20.5q-30 0 -51 20.5t-21 49.5q0 30 21 50t51 20zM520 0l-111 307l-111 -307h-111l-157 473h117l101 -317l117 317
h89l116 -318l101 318h117l-156 -473h-112z" />
    <glyph glyph-name="Ygrave" unicode="&#x1ef2;" horiz-adv-x="728" 
d="M310 749l-117 142h154l76 -142h-113zM21 680h136l206 -325l207 325h136l-281 -451v-229h-122v229z" />
    <glyph glyph-name="ygrave" unicode="&#x1ef3;" horiz-adv-x="641" 
d="M161 715h154l76 -151h-113zM272 -230h-130l128 263l-234 440h132l164 -312l151 312h130z" />
    <glyph glyph-name="uni2009" unicode="&#x2009;" horiz-adv-x="154" 
 />
    <glyph glyph-name="endash" unicode="&#x2013;" horiz-adv-x="657" 
d="M577 206h-497v115h497v-115z" />
    <glyph glyph-name="emdash" unicode="&#x2014;" horiz-adv-x="992" 
d="M912 206h-832v115h832v-115z" />
    <glyph glyph-name="quoteleft" unicode="&#x2018;" horiz-adv-x="302" 
d="M182 640q52 -21 52 -70q0 -34 -25 -57.5t-60 -23.5q-18 0 -33.5 6.5t-27 17.5t-18.5 25.5t-7 31.5q0 13 2.5 23.5t12 30t27.5 53t50 92.5h84z" />
    <glyph glyph-name="quoteright" unicode="&#x2019;" horiz-adv-x="303" 
d="M118 622q-26 11 -38.5 29t-12.5 41q0 34 24.5 57.5t59.5 23.5q36 0 61 -23.5t25 -57.5q0 -12 -2.5 -23t-12 -30.5t-28 -53t-49.5 -91.5h-84z" />
    <glyph glyph-name="quotesinglbase" unicode="&#x201a;" horiz-adv-x="303" 
d="M118 -4q-52 21 -52 70q0 34 25 57.5t60 23.5q18 0 33.5 -6.5t27 -17.5t18.5 -25.5t7 -31.5q0 -13 -2.5 -23.5t-12 -30t-28 -53.5t-49.5 -92h-84z" />
    <glyph glyph-name="quotedblleft" unicode="&#x201c;" horiz-adv-x="506" 
d="M181 640q52 -21 52 -70q0 -17 -6.5 -31.5t-18 -25.5t-27 -17.5t-33.5 -6.5t-33.5 6.5t-27 17.5t-18 25.5t-6.5 31.5q0 12 2.5 23t11.5 30.5t27 53t50 91.5h84zM385 640q26 -11 38.5 -29t12.5 -41q0 -34 -24.5 -57.5t-59.5 -23.5q-36 0 -61 23.5t-25 57.5q0 12 2.5 23
t12 30.5t27.5 53t50 91.5h84z" />
    <glyph glyph-name="quotedblright" unicode="&#x201d;" horiz-adv-x="506" 
d="M153 776q18 0 33.5 -6.5t27 -17.5t18 -25.5t6.5 -31.5q0 -12 -2.5 -23t-11.5 -30.5t-27.5 -53t-49.5 -91.5h-84l56 128q-26 11 -38.5 29t-12.5 41q0 17 6.5 31.5t18 25.5t27 17.5t33.5 6.5zM356 776q36 0 61 -23.5t25 -57.5q0 -12 -2.5 -23t-12 -30.5t-28 -53
t-49.5 -91.5h-84l57 128q-26 11 -38.5 29t-12.5 41q0 34 24.5 57.5t59.5 23.5z" />
    <glyph glyph-name="quotedblbase" unicode="&#x201e;" horiz-adv-x="507" 
d="M118 -4q-52 21 -52 70q0 34 25 57.5t60 23.5q18 0 33.5 -6.5t27 -17.5t18.5 -25.5t7 -31.5q0 -13 -2.5 -23.5t-12 -30t-28 -53.5t-49.5 -92h-84zM322 -4q-26 11 -38.5 29t-12.5 41q0 17 6.5 31.5t18 25.5t27 17.5t33.5 6.5t33.5 -6.5t27 -17.5t18 -25.5t6.5 -31.5
q0 -13 -2.5 -23.5t-11.5 -30t-27.5 -53.5t-50.5 -92h-84z" />
    <glyph glyph-name="dagger" unicode="&#x2020;" horiz-adv-x="407" 
d="M242 309h-77v216h-118v77h118v118h77v-118h118v-77h-118v-216z" />
    <glyph glyph-name="daggerdbl" unicode="&#x2021;" horiz-adv-x="407" 
d="M360 487v-77h-118v-101h-77v101h-118v77h118v60h-118v77h118v96h77v-96h118v-77h-118v-60h118z" />
    <glyph glyph-name="bullet" unicode="&#x2022;" horiz-adv-x="336" 
d="M168 167q-28 0 -52 10t-41.5 27t-27.5 41t-10 52t10 52t27.5 41t41.5 27t52 10t52 -10t42 -27t28 -41t10 -52t-10 -52t-28 -41t-42 -27t-52 -10z" />
    <glyph glyph-name="ellipsis" unicode="&#x2026;" horiz-adv-x="777" 
d="M151 -17q-35 0 -60 23.5t-25 58.5q0 17 6.5 32t18 26t27 17.5t33.5 6.5t33.5 -6.5t27 -17.5t18 -26t6.5 -32q0 -35 -25 -58.5t-60 -23.5zM386 -17q-35 0 -60 23.5t-25 58.5q0 17 6.5 32t18 26t27 17.5t33.5 6.5t33.5 -6.5t27 -17.5t18 -26t6.5 -32q0 -35 -25 -58.5
t-60 -23.5zM626 -17q-17 0 -32.5 6t-27 17t-18.5 26t-7 33q0 35 25 58.5t60 23.5q18 0 33.5 -6.5t27 -17.5t18.5 -26t7 -32q0 -35 -25.5 -58.5t-60.5 -23.5z" />
    <glyph glyph-name="perthousand" unicode="&#x2030;" horiz-adv-x="1514" 
d="M277 695q42 0 77.5 -14t61.5 -39t41 -61t15 -79q0 -44 -15 -80.5t-41 -62t-61.5 -39.5t-77.5 -14q-41 0 -76.5 14t-61.5 39.5t-41 62t-15 80.5q0 43 15 79t41 61t61.5 39t76.5 14zM273 0l462 680h64l-462 -680h-64zM277 612q-45 0 -76 -30t-31 -80q0 -51 31 -82t76 -31
q46 0 77 31t31 82q0 50 -31 80t-77 30zM799 374q41 0 76.5 -14t61.5 -39.5t41 -61.5t15 -79q0 -44 -15 -80t-41 -61.5t-61.5 -39.5t-76.5 -14t-76.5 14t-61.5 39.5t-41 61.5t-15 80q0 43 15 79t41 61.5t61.5 39.5t76.5 14zM1237 374q41 0 76.5 -14t61.5 -39.5t41 -61.5
t15 -79q0 -44 -15 -80t-41 -61.5t-61.5 -39.5t-76.5 -14q-42 0 -77.5 14t-61.5 39.5t-41 61.5t-15 80q0 43 15 79t41 61.5t61.5 39.5t77.5 14zM799 291q-45 0 -76 -30.5t-31 -80.5q0 -51 31 -81.5t76 -30.5t76 30.5t31 81.5q0 50 -31 80.5t-76 30.5zM1237 291
q-46 0 -77 -30.5t-31 -80.5q0 -51 31 -81.5t77 -30.5q22 0 41.5 8t34 22.5t23 35t8.5 46.5q0 50 -31 80.5t-76 30.5z" />
    <glyph glyph-name="guilsinglleft" unicode="&#x2039;" horiz-adv-x="361" 
d="M229 41l-186 205l186 204l65 -51l-123 -150l121 -150z" />
    <glyph glyph-name="guilsinglright" unicode="&#x203a;" horiz-adv-x="361" 
d="M132 450l186 -204l-186 -205l-63 58l121 150l-123 150z" />
    <glyph glyph-name="fraction" unicode="&#x2044;" horiz-adv-x="492" 
d="M-21 0l462 680h64l-462 -680h-64z" />
    <glyph glyph-name="uni2070" unicode="&#x2070;" horiz-adv-x="467" 
d="M234 686q45 0 82 -14.5t63 -41t40.5 -64t14.5 -82.5q0 -46 -14.5 -83.5t-40.5 -64t-63 -41t-82 -14.5t-81.5 14.5t-63 41t-41 64t-14.5 83.5q0 45 14.5 82.5t41 64t63 41t81.5 14.5zM234 362q49 0 79.5 33.5t30.5 88.5q0 54 -30.5 87.5t-79.5 33.5q-48 0 -79 -33.5
t-31 -87.5q0 -55 31 -88.5t79 -33.5z" />
    <glyph glyph-name="uni2074" unicode="&#x2074;" horiz-adv-x="399" 
d="M390 450v-76h-58v-82h-87v82h-226v63l220 243h93v-230h58zM245 450v131l-115 -131h115z" />
    <glyph glyph-name="uni2075" unicode="&#x2075;" horiz-adv-x="381" 
d="M205 538q69 -2 105.5 -34t36.5 -87q0 -29 -11 -53t-31.5 -42t-49 -28t-64.5 -10q-48 0 -83.5 7.5t-70.5 25.5l29 75q31 -14 58 -22t61 -8q35 0 57 14.5t22 37.5q0 20 -19.5 30.5t-48.5 12.5l-126 6l17 217h245v-80h-170l-5 -60z" />
    <glyph glyph-name="uni2076" unicode="&#x2076;" horiz-adv-x="398" 
d="M209 580q69 -3 112.5 -41.5t43.5 -105.5q0 -35 -12.5 -63.5t-34.5 -48.5t-52.5 -31.5t-66.5 -11.5q-37 0 -67.5 11.5t-52 31.5t-33.5 48.5t-12 63.5q0 26 8.5 48.5t21.5 42.5l109 156h105zM199 355q35 0 57.5 21.5t22.5 56.5q0 34 -22.5 53.5t-57.5 19.5q-36 0 -57.5 -20
t-21.5 -53q0 -35 22 -56.5t57 -21.5z" />
    <glyph glyph-name="uni2077" unicode="&#x2077;" horiz-adv-x="327" 
d="M163 292h-99l140 304h-188v84h295v-54z" />
    <glyph glyph-name="uni2078" unicode="&#x2078;" horiz-adv-x="363" 
d="M271 488q39 -14 55.5 -37.5t16.5 -54.5q0 -25 -11.5 -46t-33 -36.5t-51 -24t-65.5 -8.5q-74 0 -118 32t-44 83q0 32 16.5 55t55.5 37q-32 14 -45 35t-13 50q0 52 41.5 82.5t106.5 30.5t106 -30.5t41 -82.5q0 -29 -13 -50t-45 -35zM126 566q0 -24 15 -37t41 -13t41 13
t15 37q0 20 -15 35t-41 15t-41 -15t-15 -35zM182 351q30 0 48 15.5t17 39.5q1 25 -17 39.5t-48 14.5q-31 0 -49.5 -14.5t-17.5 -39.5q-1 -24 17.5 -39.5t49.5 -15.5z" />
    <glyph glyph-name="uni2079" unicode="&#x2079;" horiz-adv-x="390" 
d="M338 458l-8 -11l-1 -1l-108 -155h-105l69 99q-69 3 -112.5 42t-43.5 106q0 34 12.5 63t34.5 49t52.5 31.5t66.5 11.5q37 0 67 -11.5t52 -31.5t34 -49t12 -63q0 -23 -5.5 -42t-15.5 -36zM115 538q0 -34 22.5 -54t57.5 -20q36 0 57.5 21t21.5 53q0 35 -22 56t-57 21
t-57.5 -21t-22.5 -56z" />
    <glyph glyph-name="uni2080" unicode="&#x2080;" horiz-adv-x="467" 
d="M235 217q45 0 82 -14.5t63 -41t40.5 -64t14.5 -82.5q0 -46 -14.5 -83.5t-40.5 -64t-63 -41t-82 -14.5t-81.5 14.5t-63 41t-41 64t-14.5 83.5q0 45 14.5 82.5t41 64t63 41t81.5 14.5zM235 -107q49 0 79.5 33.5t30.5 88.5q0 54 -30.5 87.5t-79.5 33.5q-48 0 -79 -33.5
t-31 -87.5q0 -55 31 -88.5t79 -33.5z" />
    <glyph glyph-name="uni2081" unicode="&#x2081;" horiz-adv-x="306" 
d="M276 -180h-254v78h84v202l-78 -22l-20 79l162 51h25v-310h81v-78z" />
    <glyph glyph-name="uni2082" unicode="&#x2082;" horiz-adv-x="351" 
d="M27 -180v59l142 128q20 15 32 31.5t12 41.5q0 29 -17.5 41t-48.5 12q-17 0 -41.5 -3.5t-62.5 -15.5l-19 78q28 11 65 17.5t72 6.5q40 0 67.5 -11t45 -28t25.5 -39.5t8 -44.5q0 -47 -27 -84t-69 -75l-42 -38h149v-76h-291z" />
    <glyph glyph-name="uni2083" unicode="&#x2083;" horiz-adv-x="361" 
d="M207 48l7 -1q53 -5 83.5 -34.5t30.5 -69.5q0 -61 -38.5 -96t-125.5 -35q-33 0 -70.5 7t-71.5 26l31 70q58 -26 114 -26q36 0 57 12t21 34q0 18 -14.5 28.5t-43.5 10.5h-100v43l101 111h-144v80h266v-54z" />
    <glyph glyph-name="uni2084" unicode="&#x2084;" horiz-adv-x="399" 
d="M390 -22v-76h-58v-82h-87v82h-226v63l220 243h93v-230h58zM245 -22v131l-115 -131h115z" />
    <glyph glyph-name="uni2085" unicode="&#x2085;" horiz-adv-x="381" 
d="M205 66q69 -2 105.5 -34t36.5 -87q0 -29 -11 -53t-31.5 -42t-49 -28t-64.5 -10q-48 0 -83.5 7.5t-70.5 25.5l29 75q31 -14 58 -22t61 -8q35 0 57 14.5t22 37.5q0 20 -19.5 30.5t-48.5 12.5l-126 6l17 217h245v-80h-170l-5 -60z" />
    <glyph glyph-name="uni2086" unicode="&#x2086;" horiz-adv-x="398" 
d="M209 108q69 -3 112.5 -41.5t43.5 -105.5q0 -35 -12.5 -63.5t-34.5 -48.5t-52.5 -31.5t-66.5 -11.5q-37 0 -67.5 11.5t-52 31.5t-33.5 48.5t-12 63.5q0 26 8.5 48.5t21.5 42.5l109 156h105zM199 -117q35 0 57.5 21.5t22.5 56.5q0 34 -22.5 53.5t-57.5 19.5
q-36 0 -57.5 -20t-21.5 -53q0 -35 22 -56.5t57 -21.5z" />
    <glyph glyph-name="uni2087" unicode="&#x2087;" horiz-adv-x="327" 
d="M163 -180h-99l140 304h-188v84h295v-54z" />
    <glyph glyph-name="uni2088" unicode="&#x2088;" horiz-adv-x="363" 
d="M271 19q39 -14 55.5 -37.5t16.5 -54.5q0 -25 -11.5 -46t-33 -36.5t-51 -24t-65.5 -8.5q-74 0 -118 32t-44 83q0 32 16.5 55t55.5 37q-32 14 -45 35t-13 50q0 52 41.5 82.5t106.5 30.5t106 -30.5t41 -82.5q0 -29 -13 -50t-45 -35zM126 97q0 -24 15 -37t41 -13t41 13t15 37
q0 20 -15 35t-41 15t-41 -15t-15 -35zM182 -118q30 0 48 15.5t17 39.5q1 25 -17 39.5t-48 14.5q-31 0 -49.5 -14.5t-17.5 -39.5q-1 -24 17.5 -39.5t49.5 -15.5z" />
    <glyph glyph-name="uni2089" unicode="&#x2089;" horiz-adv-x="390" 
d="M338 -12l-8 -11l-1 -1l-108 -155h-105l69 99q-69 3 -112.5 42t-43.5 106q0 34 12.5 63t34.5 49t52.5 31.5t66.5 11.5q37 0 67 -11.5t52 -31.5t34 -49t12 -63q0 -23 -5.5 -42t-15.5 -36zM115 68q0 -34 22.5 -54t57.5 -20q36 0 57.5 21t21.5 53q0 35 -22 56t-57 21
t-57.5 -21t-22.5 -56z" />
    <glyph glyph-name="Euro" unicode="&#x20ac;" horiz-adv-x="760" 
d="M468 695q53 0 116.5 -11t118.5 -29l-22 -108q-57 14 -110.5 21.5t-86.5 7.5q-78 0 -133 -35t-81 -95h260l-22 -82h-259q-1 -7 -1 -14v-14q0 -8 1 -18.5t3 -21.5h240l-20 -82h-193q26 -54 76 -83.5t118 -29.5q35 0 91.5 8.5t119.5 22.5l22 -105q-60 -20 -124 -31t-115 -11
q-62 0 -115 16t-95.5 45.5t-73 72t-46.5 95.5h-81v82h65q-3 22 -3 39v29h-62v82h75q14 57 44 103.5t73.5 78.5t99 49.5t120.5 17.5z" />
    <glyph glyph-name="uni2116" unicode="&#x2116;" horiz-adv-x="1410" 
d="M1065 683q59 0 108 -18.5t83.5 -51.5t53.5 -80t19 -104q0 -58 -19 -105.5t-53.5 -81.5t-83.5 -52.5t-108 -18.5t-108 18.5t-84 52.5t-54 81.5t-19 105.5q0 57 19 104t54 80t84 51.5t108 18.5zM694 0h-114l-375 476v-476h-120v680h111l379 -481v481h119v-680zM1065 276
q67 0 107.5 42t40.5 111q0 68 -40.5 108.5t-107.5 40.5q-66 0 -107 -40.5t-41 -108.5q0 -69 41 -111t107 -42zM1302 102v-102h-478v102h478z" />
    <glyph glyph-name="uni2117" unicode="&#x2117;" horiz-adv-x="842" 
d="M421 695q78 0 145 -27t115.5 -74.5t76.5 -112.5t28 -141t-28 -141t-76.5 -112.5t-115.5 -74.5t-145 -27t-145 27t-115.5 74.5t-76.5 112.5t-28 141t28 141t76.5 112.5t115.5 74.5t145 27zM421 642q-66 0 -122.5 -23t-98 -63.5t-65 -96t-23.5 -119.5t23.5 -119.5t65 -96
t98 -63.5t122.5 -23t122.5 23t98 63.5t65 96t23.5 119.5t-23.5 119.5t-65 96t-98 63.5t-122.5 23zM431 539q83 0 126 -34t43 -99q0 -36 -13.5 -62t-35 -42.5t-50 -24t-58.5 -7.5h-67v-115h-83v381q7 0 26 0.5t40.5 1t41.5 1t30 0.5zM442 465h-31.5t-34.5 -1v-121h72
q31 0 51 18t20 47t-21 43t-56 14z" />
    <glyph glyph-name="trademark" unicode="&#x2122;" horiz-adv-x="739" 
d="M192 611v-240h-73v240h-105v69h282v-69h-104zM546 371h-63l-70 162l-9 -162h-69l13 309h70l98 -217l93 217h68l19 -309h-72l-8 162z" />
    <glyph glyph-name="oneeighth" unicode="&#x215b;" horiz-adv-x="953" 
d="M73 370h84v202l-78 -22l-20 79l162 51h25v-310h81v-78h-254v78zM264 0h-64l462 680h64zM810 199q39 -14 55.5 -37.5t16.5 -54.5q0 -25 -11.5 -46t-33 -36.5t-51 -24t-65.5 -8.5q-74 0 -118 32t-44 83q0 32 16.5 55t55.5 37q-32 14 -45 35t-13 50q0 52 41.5 82.5
t106.5 30.5t106 -30.5t41 -82.5q0 -29 -13 -50t-45 -35zM721 327q-26 0 -41 -15t-15 -35q0 -24 15 -37t41 -13t41 13t15 37q0 20 -15 35t-41 15zM721 62q30 0 48 15.5t17 39.5q1 25 -17 39.5t-48 14.5q-31 0 -49.5 -14.5t-17.5 -39.5q-1 -24 17.5 -39.5t49.5 -15.5z" />
    <glyph glyph-name="threeeighths" unicode="&#x215c;" horiz-adv-x="954" 
d="M231 520l7 -1q53 -5 83.5 -34.5t30.5 -69.5q0 -61 -38.5 -96t-125.5 -35q-33 0 -70.5 7t-71.5 26l31 70q58 -26 114 -26q36 0 57 12t21 34q0 18 -14.5 28.5t-43.5 10.5h-100v43l101 111h-144v80h266v-54zM198 0l462 680h65l-462 -680h-65zM807 199q39 -14 55.5 -37.5
t16.5 -54.5q0 -25 -11.5 -46t-33 -36.5t-51 -24t-65.5 -8.5q-74 0 -118 32t-44 83q0 32 16.5 55t55.5 37q-32 14 -45 35t-13 50q0 52 41.5 82.5t106.5 30.5t106 -30.5t41 -82.5q0 -29 -13 -50t-45 -35zM662 277q0 -24 15 -37t41 -13t41 13t15 37q0 20 -15 35t-41 15t-41 -15
t-15 -35zM718 62q30 0 48 15.5t17 39.5q1 25 -17 39.5t-48 14.5q-31 0 -49.5 -14.5t-17.5 -39.5q-1 -24 17.5 -39.5t49.5 -15.5z" />
    <glyph glyph-name="fiveeighths" unicode="&#x215d;" horiz-adv-x="966" 
d="M208 538q69 -2 105.5 -34t36.5 -87q0 -29 -11 -53t-31.5 -42t-49 -28t-64.5 -10q-48 0 -83.5 7.5t-70.5 25.5l29 75q31 -14 58 -22t61 -8q35 0 57 14.5t22 37.5q0 20 -19.5 30.5t-48.5 12.5l-126 6l17 217h245v-80h-170l-5 -60zM201 0l462 680h64l-462 -680h-64zM820 199
q39 -14 55.5 -37.5t16.5 -54.5q0 -25 -11.5 -46t-33 -36.5t-51 -24t-65.5 -8.5q-74 0 -118 32t-44 83q0 32 16.5 55t55.5 37q-32 14 -45 35t-13 50q0 52 41.5 82.5t106.5 30.5t106 -30.5t41 -82.5q0 -29 -13 -50t-45 -35zM675 277q0 -24 15 -37t41 -13t41 13t15 37
q0 20 -15 35t-41 15t-41 -15t-15 -35zM731 62q30 0 48 15.5t18 39.5q0 25 -18 39.5t-48 14.5q-31 0 -49.5 -14.5t-17.5 -39.5q-1 -24 17.5 -39.5t49.5 -15.5z" />
    <glyph glyph-name="seveneighths" unicode="&#x215e;" horiz-adv-x="909" 
d="M219 292h-99l140 304h-188v84h295v-54zM146 0l462 680h65l-462 -680h-65zM763 199q39 -14 55.5 -37.5t16.5 -54.5q0 -25 -11.5 -46t-33 -36.5t-51 -24t-65.5 -8.5q-74 0 -117.5 32t-43.5 83q0 32 16.5 55t55.5 37q-33 14 -45.5 35t-12.5 50q0 52 41 82.5t106 30.5
q66 0 106.5 -30.5t40.5 -82.5q0 -29 -12.5 -50t-45.5 -35zM619 277q0 -24 15 -37t40 -13q26 0 41.5 13t15.5 37q0 20 -15.5 35t-41.5 15q-25 0 -40 -15t-15 -35zM674 62q30 0 48.5 15.5t17.5 39.5q1 25 -17.5 39.5t-48.5 14.5t-49 -14.5t-18 -39.5q-1 -24 18 -39.5t49 -15.5
z" />
    <glyph glyph-name="arrowleft" unicode="&#x2190;" horiz-adv-x="752" 
d="M436 61l-79 -70l-326 351l319 344l80 -71l-207 -218h492v-109h-493z" />
    <glyph glyph-name="arrowup" unicode="&#x2191;" horiz-adv-x="769" 
d="M326 492l-218 -207l-71 80l344 319l351 -326l-70 -80l-227 215v-493h-109v492z" />
    <glyph glyph-name="arrowright" unicode="&#x2192;" horiz-adv-x="752" 
d="M529 397l-206 218l79 71l320 -344l-327 -351l-79 70l214 227h-493v109h492z" />
    <glyph glyph-name="arrowdown" unicode="&#x2193;" horiz-adv-x="769" 
d="M662 401l70 -78l-351 -328l-344 320l71 79l217 -206v492h112v-493z" />
    <glyph glyph-name="uni2196" unicode="&#x2196;" horiz-adv-x="795" 
d="M179 498v-287h-107v469h483v-106h-302l500 -505l-70 -71z" />
    <glyph glyph-name="uni2197" unicode="&#x2197;" horiz-adv-x="795" 
d="M240 574v106h483v-469h-107v287l-504 -500l-71 71l501 505h-302z" />
    <glyph glyph-name="uni2198" unicode="&#x2198;" horiz-adv-x="795" 
d="M616 182v287h107v-469h-483v106h302l-501 505l71 71z" />
    <glyph glyph-name="uni2199" unicode="&#x2199;" horiz-adv-x="795" 
d="M555 106v-106h-483v469h107v-287l504 500l70 -71l-500 -505h302z" />
    <glyph glyph-name="minus" unicode="&#x2212;" horiz-adv-x="685" 
d="M581 383v-106h-477v106h477z" />
    <glyph glyph-name="triagup" unicode="&#x25b2;" horiz-adv-x="973" 
d="M903 0h-833l415 691z" />
    <glyph glyph-name="uni25B4" unicode="&#x25b4;" horiz-adv-x="484" 
d="M425 187h-367l183 304z" />
    <glyph glyph-name="uni25B8" unicode="&#x25b8;" horiz-adv-x="433" 
d="M85 150v368l303 -184z" />
    <glyph glyph-name="triagdn" unicode="&#x25bc;" horiz-adv-x="973" 
d="M485 -11l-415 691h833z" />
    <glyph glyph-name="uni25BE" unicode="&#x25be;" horiz-adv-x="484" 
d="M242 167l-184 304h368z" />
    <glyph glyph-name="uni25C2" unicode="&#x25c2;" horiz-adv-x="433" 
d="M45 334l303 184v-368z" />
    <glyph glyph-name="uniFB01" unicode="&#xfb01;" horiz-adv-x="644" 
d="M590 0h-115v370h-239v-370h-115v370h-112v103h112v53q0 54 18 96t49.5 70.5t75.5 43.5t96 15q31 0 57 -5t49.5 -14t46 -22t48.5 -30l-56 -82q-35 25 -68.5 37t-69.5 12q-64 0 -97.5 -32t-33.5 -93v-49h354v-473z" />
    <glyph glyph-name="uniFB02" unicode="&#xfb02;" horiz-adv-x="676" 
d="M481 0v620q-16 7 -29.5 12t-28 8.5t-30 5t-34.5 1.5q-64 0 -93.5 -32t-29.5 -91v-51h171v-103h-171v-370h-115v370h-112v103h112v54q0 108 58 166t175 58q39 0 71.5 -9t61.5 -21l109 -7v-714h-115z" />
    <glyph glyph-name="glyph113" horiz-adv-x="654" 
d="M334 686q61 0 111.5 -15t86.5 -44t55.5 -72t19.5 -99q0 -45 -15.5 -83t-43 -67.5t-67 -49.5t-87.5 -29h-17l261 -227h-164l-251 220h-18v-220h-120v680q20 1 49.5 2t63 2t69 1.5t67.5 0.5zM339 578q-32 0 -65.5 -0.5t-68.5 -1.5v-249h142q31 0 57 9.5t45 26.5t30 40.5
t11 52.5q0 63 -41.5 92.5t-109.5 29.5z" />
    <glyph glyph-name="glyph114" horiz-adv-x="654" 
d="M375 749h-121l84 142h154zM334 686q61 0 111.5 -15t86.5 -44t55.5 -72t19.5 -99q0 -45 -15.5 -83t-43 -67.5t-67 -49.5t-87.5 -29h-17l261 -227h-164l-251 220h-18v-220h-120v680q20 1 49.5 2t63 2t69 1.5t67.5 0.5zM339 578q-32 0 -65.5 -0.5t-68.5 -1.5v-249h143
q30 0 56 9.5t45 26.5t30 40.5t11 52.5q0 63 -41.5 92.5t-109.5 29.5z" />
    <glyph glyph-name="glyph115" horiz-adv-x="654" 
d="M255 737l-120 152h114l57 -73l58 73h114l-121 -152h-102zM334 686q61 0 111.5 -15t86.5 -44t55.5 -72t19.5 -99q0 -45 -15.5 -83t-43 -67.5t-67 -49.5t-87.5 -29h-17l261 -227h-164l-251 220h-18v-220h-120v680q20 1 49.5 2t63 2t69 1.5t67.5 0.5zM339 578
q-32 0 -65.5 -0.5t-68.5 -1.5v-249h143q30 0 56 9.5t45 26.5t30 40.5t11 52.5q0 63 -41.5 92.5t-109.5 29.5z" />
    <glyph glyph-name="glyph116" horiz-adv-x="654" 
d="M334 686q61 0 111.5 -15t86.5 -44t55.5 -72t19.5 -99q0 -45 -15.5 -83t-43 -67.5t-67 -49.5t-87.5 -29h-17l261 -227h-164l-251 220h-18v-220h-120v680q20 1 49.5 2t63 2t69 1.5t67.5 0.5zM339 578q-32 0 -65.5 -0.5t-68.5 -1.5v-249h143q30 0 56 9.5t45 26.5t30 40.5
t11 52.5q0 63 -41.5 92.5t-109.5 29.5zM299 -168q-40 15 -40 55q0 26 20 44.5t47 18.5q28 0 47.5 -18.5t19.5 -44.5q0 -10 -2 -18t-8.5 -21t-20 -35t-35.5 -60h-64z" />
    <glyph glyph-name="glyph117" horiz-adv-x="837" 
d="M418 695q79 0 146 -25.5t115 -72t75 -112t27 -145.5t-27 -145.5t-75 -112t-115 -72t-146 -25.5q-80 0 -146.5 25.5t-114.5 72t-74.5 112t-26.5 145.5t26.5 145.5t74.5 112t114.5 72t146.5 25.5zM419 98q51 0 94.5 17.5t75 49t49 76.5t17.5 99t-17.5 99t-49 76.5t-75 49
t-94.5 17.5q-52 0 -95.5 -17.5t-75 -49t-49 -76.5t-17.5 -99t17.5 -99t49 -76.5t75 -49t95.5 -17.5zM712 -180q-167 1 -335 30v81l335 -3v-108z" />
    <glyph glyph-name="glyph161" horiz-adv-x="263" 
d="M132 557q-30 0 -51.5 20.5t-21.5 49.5q0 30 21.5 50t51.5 20t51.5 -20t21.5 -50q0 -29 -21.5 -49.5t-51.5 -20.5zM189 0h-115v473h115v-473z" />
    <glyph glyph-name="glyph232" horiz-adv-x="1328" 
d="M565 538q-62 20 -124.5 31.5t-107.5 11.5q-59 0 -93 -22t-34 -67q0 -22 11 -37t33 -25.5t54 -18.5t73 -16q56 -11 100.5 -26t75 -37.5t46.5 -55t16 -79.5q0 -54 -20 -93.5t-56 -66t-86 -39.5t-109 -13q-60 0 -135 13t-150 44l29 112q75 -30 142 -43t119 -13
q66 0 105.5 20.5t39.5 66.5q0 30 -17 48t-45.5 29.5t-64.5 18.5t-73 15q-56 12 -97 27.5t-67 38t-38.5 53t-12.5 72.5q0 46 18.5 84t52 64t81 40.5t105.5 14.5q36 0 73 -4t71 -10.5t63.5 -14.5t52.5 -17zM1213 538q-62 20 -124 31.5t-108 11.5q-58 0 -92.5 -22t-34.5 -67
q0 -22 11.5 -37t33.5 -25.5t54 -18.5t73 -16q56 -11 100 -26t75 -37.5t47 -55t16 -79.5q0 -54 -20 -93.5t-56 -66t-86 -39.5t-109 -13q-60 0 -135 13t-150 44l28 112q75 -30 142.5 -43t119.5 -13q65 0 105 20.5t40 66.5q0 30 -17 48t-45.5 29.5t-64.5 18.5t-74 15
q-56 12 -96.5 27.5t-66.5 38t-38.5 53t-12.5 72.5q0 46 18.5 84t52 64t81 40.5t105.5 14.5q36 0 72.5 -4t70.5 -10.5t63.5 -14.5t52.5 -17z" />
    <glyph glyph-name="glyph233" horiz-adv-x="619" 
d="M546 10q0 -57 -17 -105.5t-51 -83.5t-85 -54.5t-118 -19.5q-40 0 -84 7.5t-83 17.5l16 100q42 -8 79.5 -15t68.5 -7q75 0 115.5 40t42.5 115q-40 -5 -80.5 -7.5t-75.5 -2.5q-44 0 -81 9t-63 30t-40.5 56.5t-14.5 88.5v294h116v-267q0 -112 108 -112q63 0 131 9v370h116
v-463z" />
    <glyph glyph-name="glyph234" horiz-adv-x="619" 
d="M361 563h-113l76 151h154zM545 10q0 -57 -17 -105.5t-51 -83.5t-84.5 -54.5t-117.5 -19.5q-40 0 -84 7.5t-83 17.5l16 100q42 -8 79 -15t69 -7q74 0 115 40t43 115q-40 -5 -80.5 -7.5t-75.5 -2.5q-45 0 -81.5 9t-62.5 30t-40.5 56.5t-14.5 88.5v294h115v-267
q0 -112 108 -112q63 0 132 9v370h115v-463z" />
    <glyph glyph-name="glyph235" horiz-adv-x="619" 
d="M251 566h-113l120 138h102l121 -138h-114l-57 64zM545 10q0 -57 -17 -105.5t-51 -83.5t-84.5 -54.5t-117.5 -19.5q-40 0 -84 7.5t-83 17.5l16 100q42 -8 79 -15t69 -7q74 0 115 40t43 115q-40 -5 -80.5 -7.5t-75.5 -2.5q-45 0 -81.5 9t-62.5 30t-40.5 56.5t-14.5 88.5
v294h115v-267q0 -112 108 -112q63 0 132 9v370h115v-463z" />
    <glyph glyph-name="glyph236" horiz-adv-x="619" 
d="M204 697q30 0 51 -20t21 -50q0 -29 -21 -49.5t-51 -20.5q-31 0 -52 20.5t-21 49.5q0 30 21 50t52 20zM417 697q31 0 52 -20t21 -50q0 -29 -21 -49.5t-52 -20.5q-30 0 -51 20.5t-21 49.5q0 30 21 50t51 20zM545 10q0 -57 -17 -105.5t-51 -83.5t-84.5 -54.5t-117.5 -19.5
q-40 0 -84 7.5t-83 17.5l16 100q42 -8 79 -15t69 -7q74 0 115 40t43 115q-40 -5 -80.5 -7.5t-75.5 -2.5q-45 0 -81.5 9t-62.5 30t-40.5 56.5t-14.5 88.5v294h115v-267q0 -112 108 -112q63 0 132 9v370h115v-463z" />
    <glyph glyph-name="glyph237" horiz-adv-x="619" 
d="M267 563l-117 151h154l76 -151h-113zM545 10q0 -57 -17 -105.5t-51 -83.5t-84.5 -54.5t-117.5 -19.5q-40 0 -84 7.5t-83 17.5l16 100q42 -8 79 -15t69 -7q74 0 115 40t43 115q-40 -5 -80.5 -7.5t-75.5 -2.5q-45 0 -81.5 9t-62.5 30t-40.5 56.5t-14.5 88.5v294h115v-267
q0 -112 108 -112q63 0 132 9v370h115v-463z" />
    <glyph glyph-name="glyph238" horiz-adv-x="567" 
d="M291 492q106 0 156 -43.5t50 -137.5v-301q-63 -9 -105.5 -14.5t-72.5 -7.5t-52.5 -2.5t-45.5 -0.5q-90 0 -137 41t-47 119q0 71 52.5 107.5t161.5 41.5l139 8v6q0 43 -27.5 63t-80.5 20q-48 0 -94.5 -5.5t-90.5 -12.5l-12 97q59 10 105.5 16t100.5 6zM249 78q22 0 57 2
t84 9v127l-147 -8q-97 -6 -97 -66q0 -64 103 -64z" />
    <glyph glyph-name="glyph239" horiz-adv-x="567" 
d="M323 563h-113l76 151h154zM291 492q105 0 155.5 -43.5t50.5 -137.5v-301q-63 -9 -105.5 -14.5t-72.5 -7.5t-52.5 -2.5t-45.5 -0.5q-90 0 -137 41t-47 119q0 71 52.5 107.5t161.5 41.5l139 8v6q0 43 -27.5 63t-80.5 20q-48 0 -94.5 -5.5t-90.5 -12.5l-12 97
q59 10 105.5 16t100.5 6zM250 78q22 0 57 2t84 9v127l-148 -8q-97 -6 -97 -66q0 -31 26.5 -47.5t77.5 -16.5z" />
    <glyph glyph-name="glyph240" horiz-adv-x="567" 
d="M427 708q0 -72 -42 -112t-114 -40t-114 40t-42 112h98q0 -33 16 -47t42 -14q25 0 41 14t16 47h99zM291 492q105 0 155.5 -43.5t50.5 -137.5v-301q-63 -9 -105.5 -14.5t-72.5 -7.5t-52.5 -2.5t-45.5 -0.5q-90 0 -137 41t-47 119q0 71 52.5 107.5t161.5 41.5l139 8v6
q0 43 -27.5 63t-80.5 20q-48 0 -94.5 -5.5t-90.5 -12.5l-12 97q59 10 105.5 16t100.5 6zM250 78q22 0 57 2t84 9v127l-148 -8q-97 -6 -97 -66q0 -31 26.5 -47.5t77.5 -16.5z" />
    <glyph glyph-name="glyph241" horiz-adv-x="567" 
d="M219 561l-120 152h114l57 -73l58 73h114l-121 -152h-102zM291 492q105 0 155.5 -43.5t50.5 -137.5v-301q-63 -9 -105.5 -14.5t-72.5 -7.5t-52.5 -2.5t-45.5 -0.5q-90 0 -137 41t-47 119q0 71 52.5 107.5t161.5 41.5l139 8v6q0 43 -27.5 63t-80.5 20q-48 0 -94.5 -5.5
t-90.5 -12.5l-12 97q59 10 105.5 16t100.5 6zM250 78q22 0 57 2t84 9v127l-148 -8q-97 -6 -97 -66q0 -31 26.5 -47.5t77.5 -16.5z" />
    <glyph glyph-name="glyph242" horiz-adv-x="567" 
d="M212 566h-113l120 138h102l121 -138h-114l-57 64zM291 492q105 0 155.5 -43.5t50.5 -137.5v-301q-63 -9 -105.5 -14.5t-72.5 -7.5t-52.5 -2.5t-45.5 -0.5q-90 0 -137 41t-47 119q0 71 52.5 107.5t161.5 41.5l139 8v6q0 43 -27.5 63t-80.5 20q-48 0 -94.5 -5.5
t-90.5 -12.5l-12 97q59 10 105.5 16t100.5 6zM250 78q22 0 57 2t84 9v127l-148 -8q-97 -6 -97 -66q0 -31 26.5 -47.5t77.5 -16.5z" />
    <glyph glyph-name="glyph243" horiz-adv-x="567" 
d="M165 697q30 0 51 -20t21 -50q0 -29 -21 -49.5t-51 -20.5q-31 0 -52 20.5t-21 49.5q0 30 21 50t52 20zM378 697q31 0 52 -20t21 -50q0 -29 -21 -49.5t-52 -20.5q-30 0 -51 20.5t-21 49.5q0 30 21 50t51 20zM291 492q105 0 155.5 -43.5t50.5 -137.5v-301
q-63 -9 -105.5 -14.5t-72.5 -7.5t-52.5 -2.5t-45.5 -0.5q-90 0 -137 41t-47 119q0 71 52.5 107.5t161.5 41.5l139 8v6q0 43 -27.5 63t-80.5 20q-48 0 -94.5 -5.5t-90.5 -12.5l-12 97q59 10 105.5 16t100.5 6zM250 78q22 0 57 2t84 9v127l-148 -8q-97 -6 -97 -66
q0 -31 26.5 -47.5t77.5 -16.5z" />
    <glyph glyph-name="glyph244" horiz-adv-x="567" 
d="M229 563l-117 151h154l76 -151h-113zM291 492q105 0 155.5 -43.5t50.5 -137.5v-301q-63 -9 -105.5 -14.5t-72.5 -7.5t-52.5 -2.5t-45.5 -0.5q-90 0 -137 41t-47 119q0 71 52.5 107.5t161.5 41.5l139 8v6q0 43 -27.5 63t-80.5 20q-48 0 -94.5 -5.5t-90.5 -12.5l-12 97
q59 10 105.5 16t100.5 6zM250 78q22 0 57 2t84 9v127l-148 -8q-97 -6 -97 -66q0 -31 26.5 -47.5t77.5 -16.5z" />
    <glyph glyph-name="glyph245" horiz-adv-x="567" 
d="M410 585h-278v94h278v-94zM291 492q105 0 155.5 -43.5t50.5 -137.5v-301q-63 -9 -105.5 -14.5t-72.5 -7.5t-52.5 -2.5t-45.5 -0.5q-90 0 -137 41t-47 119q0 71 52.5 107.5t161.5 41.5l139 8v6q0 43 -27.5 63t-80.5 20q-48 0 -94.5 -5.5t-90.5 -12.5l-12 97
q59 10 105.5 16t100.5 6zM250 78q22 0 57 2t84 9v127l-148 -8q-97 -6 -97 -66q0 -31 26.5 -47.5t77.5 -16.5z" />
    <glyph glyph-name="glyph246" horiz-adv-x="567" 
d="M541 -180q-9 -4 -28 -7.5t-39 -3.5q-64 0 -103 31t-39 82q0 40 36 71q-27 -3 -47.5 -4.5t-37.5 -2.5t-32 -1h-30q-90 0 -137 41t-47 119q0 71 52.5 107.5t161.5 41.5l139 8v6q0 43 -27.5 63t-80.5 20q-48 0 -94.5 -5.5t-90.5 -12.5l-12 97q59 10 105.5 16t100.5 6
q105 0 155.5 -43.5t50.5 -137.5v-301q-39 -16 -54 -31.5t-15 -35.5q0 -43 61 -43q11 0 20 1.5l21 3.5zM146 142q0 -31 26.5 -47.5t77.5 -16.5q22 0 57 2t84 9v127l-148 -8q-97 -6 -97 -66z" />
    <glyph glyph-name="glyph247" horiz-adv-x="567" 
d="M271 753q51 0 81.5 -28t30.5 -76t-30.5 -76.5t-81.5 -28.5q-50 0 -80.5 28.5t-30.5 76.5t30.5 76t80.5 28zM271 603q21 0 33.5 12.5t12.5 33.5q0 20 -12.5 32.5t-33.5 12.5q-20 0 -33 -12.5t-13 -32.5q0 -21 13 -33.5t33 -12.5zM291 492q105 0 155.5 -43.5t50.5 -137.5
v-301q-63 -9 -105.5 -14.5t-72.5 -7.5t-52.5 -2.5t-45.5 -0.5q-90 0 -137 41t-47 119q0 71 52.5 107.5t161.5 41.5l139 8v6q0 43 -27.5 63t-80.5 20q-48 0 -94.5 -5.5t-90.5 -12.5l-12 97q59 10 105.5 16t100.5 6zM250 78q22 0 57 2t84 9v127l-148 -8q-97 -6 -97 -66
q0 -31 26.5 -47.5t77.5 -16.5z" />
    <glyph glyph-name="glyph248" horiz-adv-x="567" 
d="M449 687q0 -45 -17 -73.5t-42 -41t-54 -11.5t-52 14l-49 31q-26 15 -37.5 3.5t-11.5 -29.5h-93q0 45 17 73.5t42.5 41t54 11t51.5 -14.5l50 -31q26 -15 37.5 -3t11.5 30h92zM291 492q105 0 155.5 -43.5t50.5 -137.5v-301q-63 -9 -105.5 -14.5t-72.5 -7.5t-52.5 -2.5
t-45.5 -0.5q-90 0 -137 41t-47 119q0 71 52.5 107.5t161.5 41.5l139 8v6q0 43 -27.5 63t-80.5 20q-48 0 -94.5 -5.5t-90.5 -12.5l-12 97q59 10 105.5 16t100.5 6zM250 78q22 0 57 2t84 9v127l-148 -8q-97 -6 -97 -66q0 -31 26.5 -47.5t77.5 -16.5z" />
    <glyph glyph-name="glyph249" horiz-adv-x="1026" 
d="M746 488q57 0 101 -18t74.5 -50.5t46 -78.5t15.5 -102q0 -57 -16.5 -104t-46.5 -80.5t-72 -51.5t-94 -18h-53.5t-55.5 2.5t-68 7.5t-91 15v612q-30 12 -55.5 18.5t-63.5 6.5q-70 0 -100.5 -32t-30.5 -91v-51h179v-103h-179v-370h-115v370h-112v103h112v54q0 108 59 166
t183 58q38 0 70 -9t61 -21l108 -6v-240q31 6 65.5 9.5t78.5 3.5zM738 82q61 0 97 42.5t36 111.5q0 33 -7.5 61.5t-24.5 49.5t-44 32.5t-66 11.5q-37 0 -67.5 -3.5t-59.5 -9.5v-286q49 -8 78.5 -9t57.5 -1z" />
    <glyph glyph-name="glyph250" horiz-adv-x="796" 
d="M621 370v-370h-115v370h-270v-370h-115v370h-112v103h112v53q0 54 19 96t51.5 70.5t76.5 43.5t94 15q58 0 100 -16.5t88 -47.5q52 64 150 64q39 0 77 -11l-17 -97q-14 2 -27 3t-29 1q-37 0 -60 -25t-23 -76v-73h169v-103h-169zM506 550q0 26 4 45q-37 27 -71 39.5
t-70 12.5q-59 0 -96 -32t-37 -93v-49h270v77z" />
    <glyph glyph-name="glyph251" horiz-adv-x="1401" 
d="M1111 488q62 0 108.5 -18t77 -50t46 -78t15.5 -101q0 -61 -17 -108t-47.5 -79.5t-72.5 -49t-92 -16.5q-26 0 -51.5 0.5t-56 2t-69 5.5t-91.5 11v615q-15 6 -29 11t-28.5 8t-31 4.5t-37.5 1.5q-65 0 -94.5 -32t-29.5 -91v-51h180v-103h-180v-370h-115v370h-260v-370h-115
v370h-112v103h112v53q0 54 18 96t49.5 70.5t75.5 43.5t97 15q29 0 53.5 -4t47 -12.5t44 -20.5t44.5 -27q59 64 181 64q43 0 76.5 -9t62.5 -21l106 -6v-5h1v-235q29 6 65.5 9.5t68.5 3.5zM496 527q0 37 8 72q-67 48 -137 48q-64 0 -97.5 -32t-33.5 -93v-49h260v54zM1104 82
q72 0 107 43.5t35 115.5q0 32 -8 59.5t-25.5 47.5t-46 31.5t-69.5 11.5q-25 0 -57.5 -3t-62.5 -10v-286q49 -6 79 -8t48 -2z" />
    <glyph glyph-name="glyph252" horiz-adv-x="1163" 
d="M988 370v-370h-115v370h-262v-370h-115v370h-260v-370h-115v370h-112v103h112v53q0 54 18 96t49.5 70.5t75.5 43.5t97 15q60 0 103 -17.5t90 -49.5q32 33 78.5 50t103.5 17t98.5 -16t85.5 -44q52 60 146 60q40 0 78 -11l-17 -97q-14 2 -27 3t-30 1q-36 0 -59 -25t-23 -76
v-73h169v-103h-169zM496 526q0 39 9 72q-35 26 -68 37.5t-70 11.5q-64 0 -97.5 -32t-33.5 -93v-49h260v53zM873 550q0 14 1 26t3 24q-34 24 -66.5 35.5t-68.5 11.5q-64 0 -97.5 -32t-33.5 -93v-49h262v77z" />
    <glyph glyph-name="glyph253" horiz-adv-x="1393" 
d="M1125 488q91 0 144.5 -49.5t53.5 -134.5v-304h-115v271q0 51 -29.5 81.5t-78.5 30.5q-63 0 -132 -15v-368h-115v622q-16 6 -29.5 11t-27 8t-28.5 4.5t-34 1.5q-64 0 -93.5 -32t-29.5 -91v-51h171v-103h-171v-370h-115v370h-260v-370h-115v370h-112v103h112v53q0 54 18 96
t49.5 70.5t75.5 43.5t97 15q58 0 100.5 -16.5t87.5 -47.5q59 64 181 64q38 0 70 -9t61 -21l107 -6v-242q40 8 80.5 11.5t76.5 3.5zM496 527q0 37 8 72q-67 48 -137 48q-64 0 -97.5 -32t-33.5 -93v-49h260v54z" />
    <glyph glyph-name="glyph254" horiz-adv-x="1019" 
d="M965 0h-115v370h-239v-370h-115v370h-260v-370h-115v370h-112v103h112v53q0 54 18 96t49.5 70.5t75.5 43.5t96 15q30 0 55.5 -4.5t48.5 -13t44.5 -21t45.5 -28.5q32 33 78.5 50t103.5 17q31 0 57 -5t49 -14t46 -22t48 -30l-56 -82q-35 25 -68.5 37t-69.5 12
q-64 0 -97.5 -32t-33.5 -93v-49h354v-473zM496 526q0 39 9 71q-35 26 -68 38t-70 12q-64 0 -97.5 -32t-33.5 -93v-49h260v53z" />
    <glyph glyph-name="glyph255" horiz-adv-x="1011" 
d="M952 3q0 -56 -9 -98.5t-32.5 -72t-65 -45t-107.5 -16.5l-10 100q34 -1 55 6t33 21.5t16.5 37.5t4.5 53v381h-226v-370h-115v370h-260v-370h-115v370h-112v103h112v53q0 54 18 96t49.5 70.5t75.5 43.5t96 15q30 0 55.5 -4.5t48.5 -13t44.5 -21t45.5 -28.5q32 33 78.5 50
t103.5 17q31 0 57 -5t49 -14t46 -22t48 -30l-56 -82q-35 25 -68.5 37t-69.5 12q-64 0 -97.5 -32t-33.5 -93v-49h341v-470zM496 526q0 39 9 71q-35 26 -68 38t-70 12q-64 0 -97.5 -32t-33.5 -93v-49h260v53z" />
    <glyph glyph-name="glyph256" horiz-adv-x="1356" 
d="M1198 0l-145 186h-85v-186h-115v622q-16 6 -29.5 11t-27 8t-28.5 4.5t-34 1.5q-64 0 -93.5 -32t-29.5 -91v-51h171v-103h-171v-370h-115v370h-260v-370h-115v370h-112v103h112v53q0 54 18 96t49.5 70.5t75.5 43.5t97 15q58 0 100.5 -16.5t87.5 -47.5q59 64 181 64
q38 0 70 -9t61 -21l107 -6v-421h40l168 179h141l-188 -201l204 -272h-135zM496 527q0 37 8 72q-67 48 -137 48q-64 0 -97.5 -32t-33.5 -93v-49h260v54z" />
    <glyph glyph-name="glyph257" horiz-adv-x="1040" 
d="M960 0h-116v625q-28 11 -51.5 16.5t-58.5 5.5q-64 0 -93.5 -32t-29.5 -91v-51h171v-103h-171v-370h-115v370h-260v-370h-115v370h-112v103h112v53q0 54 18 96t49.5 70.5t75.5 43.5t96 15q59 0 101.5 -16.5t87.5 -47.5q59 64 181 64q38 0 71 -9.5t62 -21.5l97 -5v-715z
M496 527q0 37 8 72q-67 48 -137 48q-64 0 -97.5 -32t-33.5 -93v-49h260v54z" />
    <glyph glyph-name="glyph258" horiz-adv-x="1192" 
d="M1161 0q-16 -4 -29.5 -6.5t-27 -4.5t-29.5 -3t-38 -1q-86 0 -131.5 47.5t-45.5 139.5v198h-249v-370h-115v370h-260v-370h-115v370h-112v103h112v53q0 54 18 96t49.5 70.5t75.5 43.5t97 15q28 0 52 -4t46 -11.5t42.5 -19t42.5 -25.5q54 60 154 60q23 0 44.5 -4t40.5 -9
l-17 -96q-16 2 -30.5 3.5t-33.5 1.5q-43 0 -67 -25t-24 -76v-73h249v178h116v-178h156v-103h-156v-186q0 -48 19 -72t64 -24q22 0 43.5 1.5t47.5 6.5zM496 550q0 14 1.5 26.5t3.5 24.5q-34 23 -66.5 34.5t-67.5 11.5q-64 0 -97.5 -32t-33.5 -93v-49h260v77z" />
    <glyph glyph-name="glyph259" horiz-adv-x="1027" 
d="M759 488q45 0 81.5 -13t63 -37t40.5 -58t14 -76v-304h-115v271q0 51 -30 81.5t-78 30.5q-63 0 -132 -15v-368h-115v621q-16 6 -29.5 11t-27.5 8.5t-29.5 5t-34.5 1.5q-70 0 -100.5 -32t-30.5 -91v-51h179v-103h-179v-370h-115v370h-112v103h112v54q0 108 59 166t183 58
q38 0 70 -9t61 -21l109 -6v-242q40 8 80.5 11.5t75.5 3.5z" />
    <glyph glyph-name="glyph260" horiz-adv-x="645" 
d="M585 3q0 -56 -9 -98.5t-32.5 -72t-65 -45t-107.5 -16.5l-9 100q34 -1 55 6t33 21.5t16 37.5t4 53v381h-234v-370h-115v370h-112v103h112v53q0 54 18 96t50.5 70.5t78 43.5t101.5 15q31 0 57 -5t49.5 -14t46 -22t48.5 -30l-56 -82q-70 49 -138 49q-71 0 -105.5 -32
t-34.5 -93v-49h349v-470z" />
    <glyph glyph-name="glyph261" horiz-adv-x="981" 
d="M686 186h-93v-186h-115v622q-31 12 -56 18.5t-63 6.5q-64 0 -93.5 -32t-29.5 -91v-51h171v-103h-171v-370h-115v370h-112v103h112v54q0 108 58 166t175 58q39 0 70.5 -9t60.5 -21l108 -6v-421h40l168 179h141l-188 -201l203 -272h-135z" />
    <glyph glyph-name="glyph262" horiz-adv-x="818" 
d="M788 0q-16 -4 -29.5 -6.5t-27 -4.5t-30 -3t-38.5 -1q-86 0 -131 47.5t-45 139.5v198h-251v-370h-115v370h-112v103h112v74q0 100 53.5 152t148.5 52q23 0 44 -4t41 -9l-17 -96q-16 2 -30.5 3.5t-33.5 1.5q-45 0 -68 -24.5t-23 -78.5v-71h251v178h115v-178h156v-103h-156
v-186q0 -48 19 -72t64 -24q22 0 43.5 1.5t47.5 6.5z" />
    <glyph glyph-name="glyph265" horiz-adv-x="746" 
d="M580 370v-370h-116v369q-27 0 -60.5 -0.5t-69.5 -1t-72.5 -2.5t-69.5 -5v-360h-115v444q30 5 78.5 10t103 9t108 7t91.5 3h6v77q0 48 14 85t39.5 63t61 39.5t79.5 13.5q21 0 40 -3t37 -8l-17 -97q-14 2 -27 3t-29 1q-36 0 -59 -25t-23 -76v-73h160v-103h-160z" />
    <glyph glyph-name="glyph266" horiz-adv-x="787" 
d="M727 483v-104h-156v-195q0 -48 19 -72t64 -24q22 0 43.5 1.5t47.5 6.5l12 -96q-16 -4 -29.5 -6.5t-27 -4.5t-30 -3t-38.5 -1q-85 0 -130.5 47.5t-45.5 139.5v207q-63 0 -130 -2t-134 -8v-369h-115v453q32 5 78.5 10t98.5 9t104.5 6.5t97.5 3.5v169h115v-168h156z" />
    <glyph glyph-name="glyph279" horiz-adv-x="649" 
d="M325 552q61 0 112.5 -20.5t88.5 -57.5t58 -89t21 -115t-21 -115t-58 -89t-88.5 -57.5t-112.5 -20.5t-112.5 20.5t-89 57.5t-58.5 89t-21 115t21 115t58.5 89t89 57.5t112.5 20.5zM325 94q34 0 64.5 12.5t53 36t35.5 56t13 71.5t-13 71.5t-35.5 56t-53 36t-64.5 12.5
q-35 0 -65.5 -12.5t-53 -36t-35.5 -56t-13 -71.5t13 -71.5t35.5 -56t53 -36t65.5 -12.5z" />
    <glyph glyph-name="glyph280" horiz-adv-x="472" 
d="M464 0h-448v98h185v305l-172 -45l-27 100l280 83h34v-443h148v-98z" />
    <glyph glyph-name="glyph281" horiz-adv-x="544" 
d="M260 544q61 0 104.5 -14.5t71 -38.5t40 -56t12.5 -67q0 -32 -11 -63.5t-35.5 -63t-64.5 -64t-97 -66.5l-19 -11h245v-100h-456v79l101 61q68 41 110 72.5t65 56.5t30.5 44t7.5 35q0 45 -32 65t-91 20q-21 0 -67.5 -7t-110.5 -21l-16 107q45 13 103 22.5t110 9.5z" />
    <glyph glyph-name="glyph282" horiz-adv-x="576" 
d="M322 248h8q97 -8 152.5 -58t55.5 -128q0 -100 -67 -159.5t-200 -59.5q-59 0 -120.5 13t-118.5 43l42 94q50 -23 101.5 -35.5t99.5 -12.5q63 0 102.5 31t39.5 82q0 42 -37.5 66.5t-103.5 24.5h-121v57l193 222h-290v108h453v-72z" />
    <glyph glyph-name="glyph283" horiz-adv-x="647" 
d="M623 98v-98h-84v-140h-115v140h-393v78l393 462h115v-442h84zM424 98v286l-239 -286h239z" />
    <glyph glyph-name="glyph284" horiz-adv-x="594" 
d="M301 279q56 -3 102 -18t78.5 -41.5t50 -63.5t17.5 -83q0 -50 -18.5 -91.5t-52 -71.5t-80.5 -47t-104 -17q-75 0 -134.5 13.5t-117.5 43.5l38 99q52 -23 102 -37t107 -14q65 0 106.5 32t41.5 87q0 47 -39 73.5t-114 30.5l-195 9l30 358h405v-112h-303l-14 -145z" />
    <glyph glyph-name="glyph285" horiz-adv-x="611" 
d="M305 480q60 0 110 -17t86 -48.5t56 -76t20 -100.5q0 -57 -20 -103.5t-56 -79.5t-86 -51.5t-110 -18.5t-110 18.5t-85.5 51.5t-55.5 79.5t-20 103.5q0 44 14 81t38 67l205 294h134l-140 -201zM305 86q34 0 63 11t50 30.5t32.5 47.5t11.5 63q0 33 -11.5 60.5t-32.5 47
t-50 30t-63 10.5q-72 0 -114.5 -41t-42.5 -107q0 -35 11.5 -63t32.5 -47.5t50 -30.5t63 -11z" />
    <glyph glyph-name="glyph286" horiz-adv-x="541" 
d="M252 -139h-130l259 568h-352v112h492v-72z" />
    <glyph glyph-name="glyph287" horiz-adv-x="629" 
d="M459 353q65 -25 96.5 -67t31.5 -99q0 -44 -19.5 -81t-55.5 -64t-86 -42t-111 -15t-111 15t-85.5 42t-55 64t-19.5 81q0 57 31 99t96 67q-51 23 -74.5 61t-23.5 92q0 43 17.5 77.5t49.5 59.5t76.5 38.5t98.5 13.5t98.5 -13.5t77 -38.5t50 -59.5t17.5 -77.5q0 -54 -24 -92
t-75 -61zM195 500q0 -46 32.5 -74t86.5 -28t87.5 28t33.5 74q0 43 -33.5 70.5t-87.5 27.5t-86.5 -27.5t-32.5 -70.5zM314 86q33 0 59.5 8.5t46 23.5t30 34.5t10.5 40.5q0 48 -40 77.5t-106 29.5t-105.5 -29.5t-39.5 -77.5q0 -21 10.5 -40.5t29.5 -34.5t45.5 -23.5t59.5 -8.5
z" />
    <glyph glyph-name="glyph288" horiz-adv-x="635" 
d="M313 556q60 0 110 -18.5t86 -51.5t56 -79.5t20 -103.5q0 -44 -15 -80.5t-37 -67.5l-205 -294h-137l140 200h-18q-60 0 -110 17t-86 48.5t-56 76t-20 100.5q0 57 20 103.5t56 79.5t86 51.5t110 18.5zM157 303q0 -33 11.5 -60.5t32.5 -47t49.5 -30t62.5 -10.5
q72 0 114.5 41t42.5 107q0 34 -11.5 62.5t-32.5 48t-50 30.5t-63 11t-62.5 -11t-49.5 -30.5t-32.5 -48t-11.5 -62.5z" />
    <glyph glyph-name="glyph289" horiz-adv-x="649" 
d="M326 552q61 0 112 -20.5t88.5 -57.5t58.5 -89t21 -115t-21 -115t-58.5 -89t-88.5 -57.5t-112 -20.5t-113 20.5t-89.5 57.5t-58.5 89t-21 115t21 115t58.5 89t89.5 57.5t113 20.5zM325 446q-35 0 -65.5 -12.5t-53 -36t-35.5 -56t-13 -71.5q0 -50 21 -89l234 240
q-41 25 -88 25zM325 94q34 0 64.5 12.5t52.5 36t35 56t13 71.5q0 58 -28 102l-239 -245q44 -33 102 -33z" />
    <glyph glyph-name="glyph290" horiz-adv-x="597" 
d="M417 346q132 -33 132 -160q0 -97 -70.5 -149t-192.5 -52q-65 0 -125 13.5t-108 33.5l27 102q60 -21 107 -29.5t85 -8.5q77 0 116.5 28t39.5 73q0 46 -39 69.5t-102 23.5h-122v102h122q63 0 96.5 23.5t33.5 68.5q0 48 -38.5 74t-107.5 26q-40 0 -87.5 -9t-103.5 -29
l-27 102q48 20 108.5 33.5t120.5 13.5q58 0 105 -13.5t80.5 -39t51.5 -61.5t18 -81q0 -63 -33 -100.5t-87 -53.5z" />
    <glyph glyph-name="glyph291" horiz-adv-x="631" 
d="M317 695q64 0 117 -25.5t91 -72t58.5 -112t20.5 -145.5t-20.5 -145.5t-58.5 -112t-91 -72t-117 -25.5q-65 0 -118 25.5t-91 72t-58.5 112t-20.5 145.5t20.5 145.5t58.5 112t91 72t118 25.5zM317 93q37 0 67.5 18t52.5 50t34 77.5t12 101.5q0 55 -12 101t-34 78t-52.5 50
t-67.5 18q-38 0 -69 -18t-53 -50t-34 -78t-12 -101q0 -56 12 -101.5t34 -77.5t53 -50t69 -18z" />
    <glyph glyph-name="glyph292" horiz-adv-x="631" 
d="M73 0v98h199v442l-172 -46l-26 103l284 83h34v-582h188v-98h-507z" />
    <glyph glyph-name="glyph293" horiz-adv-x="631" 
d="M78 0v79l238 231q20 19 39 37.5t33.5 37.5t23 39.5t8.5 43.5q0 59 -39 87.5t-101 28.5q-31 0 -75 -8.5t-103 -31.5l-27 103q47 20 107 34t119 14q61 0 107 -17.5t76 -46.5t45 -67t15 -80q0 -38 -13 -73.5t-36 -69t-54 -65t-68 -62.5l-124 -106h325v-108h-496z" />
    <glyph glyph-name="glyph294" horiz-adv-x="631" 
d="M364 390h8q97 -8 152.5 -58t55.5 -128q0 -99 -67.5 -159t-199.5 -60q-59 0 -120.5 13t-118.5 43l42 94q50 -23 101.5 -35.5t99.5 -12.5q63 0 102.5 31t39.5 82q0 43 -37.5 67.5t-103.5 24.5h-121v56l193 224h-290v108h453v-73z" />
    <glyph glyph-name="glyph295" horiz-adv-x="631" 
d="M607 220v-102h-80v-118h-119v118h-371v82l371 480h119v-460h80zM408 220v304l-217 -304h217z" />
    <glyph glyph-name="glyph296" horiz-adv-x="631" 
d="M333 419q56 -3 102 -18t78.5 -41.5t50 -63.5t17.5 -84q0 -50 -18.5 -91.5t-51.5 -71.5t-80 -47t-104 -17q-75 0 -135 13.5t-117 43.5l38 103q52 -23 101.5 -37t107.5 -14q61 0 99 31.5t38 82.5q0 45 -38.5 73t-104.5 31l-194 9l30 359h404v-112h-301l-14 -144z" />
    <glyph glyph-name="glyph297" horiz-adv-x="631" 
d="M315 480q60 0 110 -17t86 -48.5t56 -76t20 -100.5q0 -57 -20 -103.5t-56 -79.5t-86 -51.5t-110 -18.5t-110 18.5t-86 51.5t-56 79.5t-20 103.5q0 44 16 80t36 68l188 294h138l-129 -200h23zM315 86q34 0 62.5 11t49.5 30.5t32.5 47.5t11.5 63q0 33 -11.5 60.5t-32.5 47
t-49.5 30t-62.5 10.5q-72 0 -114.5 -41t-42.5 -107q0 -35 11.5 -63t32.5 -47.5t49.5 -30.5t63.5 -11z" />
    <glyph glyph-name="glyph298" horiz-adv-x="631" 
d="M269 0h-130l297 568h-382v112h531v-72z" />
    <glyph glyph-name="glyph299" horiz-adv-x="631" 
d="M469 353q65 -25 96.5 -67t31.5 -99q0 -44 -19.5 -81t-55.5 -64t-86 -42t-111 -15t-111 15t-85.5 42t-55 64t-19.5 81q0 57 31 99t96 67q-51 23 -75 61t-24 92q0 43 18 77.5t50 59.5t76.5 38.5t98.5 13.5t98.5 -13.5t76.5 -38.5t49.5 -59.5t17.5 -77.5q0 -54 -23.5 -92
t-74.5 -61zM205 500q0 -46 33 -74t87 -28t87 28t33 74q0 43 -33 70.5t-87 27.5t-87 -27.5t-33 -70.5zM325 86q33 0 59.5 8.5t45.5 23.5t29.5 34.5t10.5 40.5q0 48 -39.5 77.5t-105.5 29.5t-105.5 -29.5t-39.5 -77.5q0 -21 10.5 -40.5t29.5 -34.5t45.5 -23.5t59.5 -8.5z" />
    <glyph glyph-name="glyph300" horiz-adv-x="631" 
d="M328 695q60 0 110 -18.5t85.5 -51.5t55.5 -79.5t20 -103.5q0 -44 -15 -80.5t-37 -67.5l-205 -294h-137l140 200h-17q-60 0 -110 17t-86 48.5t-56 76t-20 100.5q0 57 20 103.5t56 79.5t86 51.5t110 18.5zM171 442q0 -33 11.5 -60.5t32.5 -47t49.5 -30t63.5 -10.5
q72 0 114.5 41t42.5 107q0 34 -11.5 62.5t-32.5 48t-50 30.5t-63 11q-35 0 -63.5 -11t-49.5 -30.5t-32.5 -48t-11.5 -62.5z" />
    <glyph glyph-name="glyph301" horiz-adv-x="750" 
d="M375 695q72 0 131 -25.5t100.5 -72t64.5 -112t23 -145.5t-23 -145.5t-64.5 -112t-100.5 -72t-131 -25.5t-130.5 25.5t-100.5 72t-65 112t-23 145.5t23 145.5t65 112t100.5 72t130.5 25.5zM375 587q-45 0 -81.5 -18t-62.5 -50t-40 -78t-14 -101q0 -93 39 -155l256 375
q-44 27 -97 27zM264 130q23 -17 51 -27t60 -10q45 0 81.5 18t62.5 50t40 77.5t14 101.5q0 53 -13 96t-36 75z" />
    <glyph glyph-name="glyph310" horiz-adv-x="467" 
d="M234 397q45 0 82 -14.5t63 -41t40.5 -64t14.5 -82.5q0 -46 -14.5 -83.5t-40.5 -64t-63 -41t-82 -14.5t-81.5 14.5t-63 41t-41 64t-14.5 83.5q0 45 14.5 82.5t41 64t63 41t81.5 14.5zM234 73q49 0 79.5 33.5t30.5 88.5q0 54 -30.5 87.5t-79.5 33.5q-48 0 -79 -33.5
t-31 -87.5q0 -55 31 -88.5t79 -33.5z" />
    <glyph glyph-name="glyph311" horiz-adv-x="306" 
d="M276 0h-254v78h84v202l-78 -22l-20 79l162 51h25v-310h81v-78z" />
    <glyph glyph-name="glyph312" horiz-adv-x="351" 
d="M27 0v59l142 128q20 15 32 31.5t12 41.5q0 29 -17.5 41t-48.5 12q-17 0 -41.5 -3.5t-62.5 -15.5l-19 78q28 11 65 17.5t72 6.5q40 0 67.5 -11t45 -28t25.5 -39.5t8 -44.5q0 -47 -27 -84t-69 -75l-42 -38h149v-76h-291z" />
    <glyph glyph-name="glyph313" horiz-adv-x="361" 
d="M207 228l7 -1q53 -5 83.5 -34.5t30.5 -69.5q0 -61 -38.5 -96t-125.5 -35q-33 0 -70.5 7t-71.5 26l31 70q58 -26 114 -26q36 0 57 12t21 34q0 18 -14.5 28.5t-43.5 10.5h-100v43l101 111h-144v80h266v-54z" />
    <glyph glyph-name="glyph314" horiz-adv-x="399" 
d="M387 158v-76h-58v-82h-87v82h-226v63l220 243h93v-230h58zM242 158v131l-115 -131h115z" />
    <glyph glyph-name="glyph315" horiz-adv-x="381" 
d="M205 246q69 -2 105.5 -34t36.5 -87q0 -29 -11 -53t-31.5 -42t-49 -28t-64.5 -10q-48 0 -83.5 7.5t-70.5 25.5l29 75q31 -14 58 -22t61 -8q35 0 57 14.5t22 37.5q0 20 -19.5 30.5t-48.5 12.5l-126 6l17 217h245v-80h-170l-5 -60z" />
    <glyph glyph-name="glyph316" horiz-adv-x="398" 
d="M209 288q69 -3 112.5 -41.5t43.5 -105.5q0 -35 -12.5 -63.5t-34.5 -48.5t-52.5 -31.5t-66.5 -11.5q-37 0 -67.5 11.5t-52 31.5t-33.5 48.5t-12 63.5q0 26 8.5 48.5t21.5 42.5l109 156h105zM199 63q35 0 57.5 21.5t22.5 56.5q0 34 -22.5 53.5t-57.5 19.5q-36 0 -57.5 -20
t-21.5 -53q0 -35 22 -56.5t57 -21.5z" />
    <glyph glyph-name="glyph317" horiz-adv-x="327" 
d="M163 0h-99l140 304h-188v84h295v-54z" />
    <glyph glyph-name="glyph318" horiz-adv-x="363" 
d="M271 199q39 -14 55.5 -37.5t16.5 -54.5q0 -25 -11.5 -46t-33 -36.5t-51 -24t-65.5 -8.5q-74 0 -118 32t-44 83q0 32 16.5 55t55.5 37q-32 14 -45 35t-13 50q0 52 41.5 82.5t106.5 30.5t106 -30.5t41 -82.5q0 -29 -13 -50t-45 -35zM126 277q0 -24 15 -37t41 -13t41 13
t15 37q0 20 -15 35t-41 15t-41 -15t-15 -35zM182 62q30 0 48 15.5t17 39.5q1 25 -17 39.5t-48 14.5q-31 0 -49.5 -14.5t-17.5 -39.5q-1 -24 17.5 -39.5t49.5 -15.5z" />
    <glyph glyph-name="glyph319" horiz-adv-x="390" 
d="M338 168l-8 -11l-1 -1l-108 -155h-105l69 99q-69 3 -112.5 42t-43.5 106q0 34 12.5 63t34.5 49t52.5 31.5t66.5 11.5q37 0 67 -11.5t52 -31.5t34 -49t12 -63q0 -23 -5.5 -42t-15.5 -36zM115 248q0 -34 22.5 -54t57.5 -20q36 0 57.5 21t21.5 53q0 35 -22 56t-57 21
t-57.5 -21t-22.5 -56z" />
    <glyph glyph-name="glyph320" horiz-adv-x="467" 
d="M234 689q45 0 82 -14.5t63 -41t40.5 -64t14.5 -82.5q0 -46 -14.5 -83.5t-40.5 -64t-63 -41t-82 -14.5t-81.5 14.5t-63 41t-41 64t-14.5 83.5q0 45 14.5 82.5t41 64t63 41t81.5 14.5zM234 365q49 0 79.5 33.5t30.5 88.5q0 54 -30.5 87.5t-79.5 33.5q-48 0 -79 -33.5
t-31 -87.5q0 -55 31 -88.5t79 -33.5z" />
    <glyph glyph-name="glyph321" horiz-adv-x="306" 
d="M276 292h-254v78h84v202l-78 -22l-20 79l162 51h25v-310h81v-78z" />
    <glyph glyph-name="glyph322" horiz-adv-x="351" 
d="M27 292v59l142 128q20 15 32 31.5t12 41.5q0 29 -17.5 41t-48.5 12q-17 0 -41.5 -3.5t-62.5 -15.5l-19 78q28 11 65 17.5t72 6.5q40 0 67.5 -11t45 -28t25.5 -39.5t8 -44.5q0 -47 -27 -84t-69 -75l-42 -38h149v-76h-291z" />
    <glyph glyph-name="glyph323" horiz-adv-x="361" 
d="M207 520l7 -1q53 -5 83.5 -34.5t30.5 -69.5q0 -61 -38.5 -96t-125.5 -35q-33 0 -70.5 7t-71.5 26l31 70q58 -26 114 -26q36 0 57 12t21 34q0 18 -14.5 28.5t-43.5 10.5h-100v43l101 111h-144v80h266v-54z" />
    <glyph glyph-name="glyph324" horiz-adv-x="399" 
d="M387 450v-76h-58v-82h-87v82h-226v63l220 243h93v-230h58zM242 450v131l-115 -131h115z" />
    <glyph glyph-name="glyph325" horiz-adv-x="381" 
d="M205 538q69 -2 105.5 -34t36.5 -87q0 -29 -11 -53t-31.5 -42t-49 -28t-64.5 -10q-48 0 -83.5 7.5t-70.5 25.5l29 75q31 -14 58 -22t61 -8q35 0 57 14.5t22 37.5q0 20 -19.5 30.5t-48.5 12.5l-126 6l17 217h245v-80h-170l-5 -60z" />
    <glyph glyph-name="glyph326" horiz-adv-x="398" 
d="M209 580q69 -3 112.5 -41.5t43.5 -105.5q0 -35 -12.5 -63.5t-34.5 -48.5t-52.5 -31.5t-66.5 -11.5q-37 0 -67.5 11.5t-52 31.5t-33.5 48.5t-12 63.5q0 26 8.5 48.5t21.5 42.5l109 156h105zM199 355q35 0 57.5 21.5t22.5 56.5q0 34 -22.5 53.5t-57.5 19.5q-36 0 -57.5 -20
t-21.5 -53q0 -35 22 -56.5t57 -21.5z" />
    <glyph glyph-name="glyph327" horiz-adv-x="327" 
d="M163 292h-99l140 304h-188v84h295v-54z" />
    <glyph glyph-name="glyph328" horiz-adv-x="363" 
d="M271 488q39 -14 55.5 -37.5t16.5 -54.5q0 -25 -11.5 -46t-33 -36.5t-51 -24t-65.5 -8.5q-74 0 -118 32t-44 83q0 32 16.5 55t55.5 37q-32 14 -45 35t-13 50q0 52 41.5 82.5t106.5 30.5t106 -30.5t41 -82.5q0 -29 -13 -50t-45 -35zM126 566q0 -24 15 -37t41 -13t41 13
t15 37q0 20 -15 35t-41 15t-41 -15t-15 -35zM182 351q30 0 48 15.5t17 39.5q1 25 -17 39.5t-48 14.5q-31 0 -49.5 -14.5t-17.5 -39.5q-1 -24 17.5 -39.5t49.5 -15.5z" />
    <glyph glyph-name="glyph329" horiz-adv-x="390" 
d="M338 453l-8 -11l-1 -1l-108 -155h-105l69 99q-69 3 -112.5 42t-43.5 106q0 34 12.5 63t34.5 49t52.5 31.5t66.5 11.5q37 0 67 -11.5t52 -31.5t34 -49t12 -63q0 -23 -5.5 -42t-15.5 -36zM115 533q0 -34 22.5 -54t57.5 -20q36 0 57.5 21t21.5 53q0 35 -22 56t-57 21
t-57.5 -21t-22.5 -56z" />
    <glyph glyph-name="glyph356" horiz-adv-x="384" 
d="M246 459q0 -27 -3 -47.5t-11 -35.5t-22.5 -25t-37.5 -17q23 -7 37.5 -17t22.5 -25t11 -35.5t3 -47.5v-122q0 -47 20 -62t66 -15v-104q-103 0 -152 47.5t-49 138.5v122q0 23 -4.5 37t-15 21t-27 9t-39.5 2v102q23 0 39.5 2t27 9t15 21t4.5 37v122q0 91 49 138.5t152 47.5
v-104q-46 0 -66 -15t-20 -62v-122z" />
    <glyph glyph-name="glyph357" horiz-adv-x="384" 
d="M137 581q0 47 -19.5 62t-66.5 15v104q104 0 153 -47.5t49 -138.5v-122q0 -23 4.5 -37t15 -21t27 -9t39.5 -2v-102q-23 0 -39.5 -2t-27 -9t-15 -21t-4.5 -37v-122q0 -91 -49 -138.5t-153 -47.5v104q47 0 66.5 15t19.5 62v122q0 27 3 47.5t11 35.5t23 25t38 17
q-23 7 -38 17t-23 25t-11 35.5t-3 47.5v122z" />
    <glyph glyph-name="glyph358" horiz-adv-x="353" 
d="M318 32v-111h-260v836h260v-111h-144v-614h144z" />
    <glyph glyph-name="glyph359" horiz-adv-x="353" 
d="M34 757h260v-836h-260v111h145v614h-145v111z" />
    <glyph glyph-name="glyph360" horiz-adv-x="340" 
d="M298 719q-32 -48 -58.5 -90t-45 -85.5t-28.5 -92.5t-10 -110t10 -110t28.5 -92.5t45 -85.5t58.5 -90l-84 -53q-88 107 -128 213t-40 218t40 218t128 213z" />
    <glyph glyph-name="glyph361" horiz-adv-x="331" 
d="M117 772q88 -107 128 -213t40 -218t-40 -218t-128 -213l-84 53q32 48 58.5 90t45 85.5t28.5 92.5t10 110t-10 110t-28.5 92.5t-45 85.5t-58.5 90z" />
    <glyph glyph-name="glyph365" horiz-adv-x="992" 
d="M912 284h-832v116h832v-116z" />
    <glyph glyph-name="glyph366" horiz-adv-x="657" 
d="M577 284h-497v116h497v-116z" />
    <glyph glyph-name="glyph367" horiz-adv-x="474" 
d="M393 283h-314v116h314v-116z" />
    <glyph glyph-name="glyph378" horiz-adv-x="583" 
d="M229 122l-186 205l186 205l65 -51l-123 -151l121 -149zM450 122l-186 205l186 205l66 -51l-123 -151l121 -149z" />
    <glyph glyph-name="glyph379" horiz-adv-x="583" 
d="M128 532l186 -205l-186 -205l-64 59l121 149l-122 151zM350 532l185 -205l-185 -205l-64 59l121 149l-123 151z" />
    <glyph glyph-name="glyph380" horiz-adv-x="361" 
d="M229 122l-186 205l186 205l65 -51l-123 -151l121 -149z" />
    <glyph glyph-name="glyph381" horiz-adv-x="361" 
d="M132 532l186 -205l-186 -205l-63 59l121 149l-123 151z" />
    <glyph glyph-name="glyph400" horiz-adv-x="476" 
d="M435 -105h-120l-274 873h120z" />
    <glyph glyph-name="glyph401" horiz-adv-x="336" 
d="M168 197q-28 0 -52 10t-41.5 27.5t-27.5 41.5t-10 52t10 51.5t27.5 41t41.5 27.5t52 10t52 -10t42 -27.5t28 -41t10 -51.5t-10 -52t-28 -41.5t-42 -27.5t-52 -10z" />
    <glyph glyph-name="glyph402" horiz-adv-x="276" 
d="M134 697q32 0 55 -21.5t23 -53.5t-23 -53t-55 -21t-54.5 21t-22.5 53t22.5 53.5t54.5 21.5zM190 487l6 -487h-128l7 487h115z" />
    <glyph glyph-name="glyph403" horiz-adv-x="302" 
d="M150 263q-35 0 -59.5 23.5t-24.5 58.5t24.5 58.5t59.5 23.5q36 0 61 -23.5t25 -58.5t-25 -58.5t-61 -23.5z" />
    <glyph glyph-name="glyph404" horiz-adv-x="515" 
d="M328 548q-32 0 -55 21t-23 53t23 53.5t55 21.5t54.5 -21.5t22.5 -53.5t-22.5 -53t-54.5 -21zM289 -15q-54 0 -98.5 15t-76 43t-49 66.5t-17.5 86.5q0 46 16 85t45 67.5t68.5 44.5t87.5 16h14l-4 78h108l18 -174h-112q-59 0 -94 -33.5t-35 -87.5q0 -48 34 -76.5t90 -28.5
q43 0 85 4.5t89 12.5l17 -96q-45 -11 -90.5 -17t-95.5 -6z" />
    <glyph glyph-name="glyph405" horiz-adv-x="472" 
d="M41 -96l270 864h120l-270 -864h-120z" />
    <glyph glyph-name="glyph409" horiz-adv-x="631" 
d="M553 417v-103h-185l-17 -125q-14 -100 -59.5 -152t-134.5 -52q-28 0 -51.5 4.5t-46.5 11.5l18 95q21 -4 37.5 -5.5t38.5 -1.5q38 0 56.5 24.5t25.5 78.5l17 122h-118v103h133l10 74q14 100 59.5 152t133.5 52q29 0 52.5 -4.5t46.5 -11.5l-18 -95q-21 4 -37.5 5.5
t-38.5 1.5q-38 0 -56.5 -24.5t-26.5 -78.5l-10 -71h171z" />
    <glyph glyph-name="glyph415" horiz-adv-x="631" 
d="M538 25q-29 -10 -60.5 -17t-61.5 -10v-117h-104v119q-48 7 -86.5 28t-66.5 53t-43 74.5t-15 92.5t15 92t43 74t66.5 53t86.5 29v120h104v-119q30 -2 61 -9t59 -16l-16 -95q-42 9 -81 15t-65 6q-34 0 -62.5 -11t-49.5 -30.5t-32.5 -47t-11.5 -61.5t11.5 -61.5t32 -47
t49 -30.5t63.5 -11q26 0 66 6t82 15z" />
    <glyph glyph-name="glyph416" horiz-adv-x="631" 
d="M594 197q0 -47 -16 -83.5t-44.5 -63t-68.5 -42t-89 -20.5v-108h-104v107q-54 4 -114 17t-120 38l28 112q75 -30 142.5 -43t119.5 -13q65 0 105 20.5t40 66.5q0 30 -17 48t-45.5 29.5t-64.5 18.5t-74 15q-56 12 -96.5 27.5t-66.5 38t-38.5 53t-12.5 72.5q0 85 57.5 137.5
t156.5 63.5v115h104v-116q57 -5 110 -17t88 -26l-31 -106q-62 20 -124 31.5t-108 11.5q-58 0 -92.5 -22t-34.5 -67q0 -22 11.5 -37t33.5 -25.5t54 -18.5t73 -16q56 -11 100 -26t75 -37.5t47 -55t16 -79.5z" />
    <glyph glyph-name="glyph417" horiz-adv-x="631" 
d="M414 101q29 0 72 4.5t106 18.5l14 -110q-47 -15 -98 -22t-94 -7q-124 0 -204.5 61t-110.5 167h-75v81h60q-1 11 -1.5 22.5t-0.5 23.5v22h-58v81h69q13 56 40.5 102t68.5 78.5t94 50t117 17.5q43 0 94.5 -6.5t98.5 -21.5l-13 -109q-63 13 -106.5 17t-73.5 4
q-75 0 -122 -35t-68 -97h259l-22 -81h-251l-1 -22q0 -24 3 -46h237l-20 -81h-197q23 -53 69 -82.5t114 -29.5z" />
    <glyph glyph-name="glyph418" horiz-adv-x="631" 
d="M52 0v101h63v175h-63v101h63v107q0 48 17 86.5t48.5 66.5t76 43t98.5 15q51 0 96 -6t91 -17l-17 -96q-48 8 -89.5 12.5t-84.5 4.5q-56 0 -88.5 -29t-32.5 -79v-108h205v-101h-205v-175h353v-101h-531z" />
    <glyph glyph-name="glyph419" horiz-adv-x="631" 
d="M574 211h-198v-55h198v-84h-198v-72h-121v72h-200v84h200v55h-200v85h166l-201 384h136l159 -309l160 309h136l-201 -384h164v-85z" />
    <glyph glyph-name="glyph439" horiz-adv-x="699" 
d="M350 42q-61 0 -115 23t-94 63t-63 94t-23 115t23 114.5t63 93.5t94 63t115 23t114.5 -23t93.5 -63t63 -93.5t23 -114.5t-23 -115t-63 -94t-93.5 -63t-114.5 -23zM350 105q48 0 90 18t73.5 49.5t49.5 74t18 90.5t-18 90t-49.5 73.5t-73.5 49.5t-90 18t-90.5 -18t-74 -49.5
t-49.5 -73.5t-18 -90t18 -90.5t49.5 -74t74 -49.5t90.5 -18zM215 316l39 38l66 -66v188h56v-187l66 65l39 -38l-133 -134z" />
    <glyph glyph-name="glyph440" horiz-adv-x="700" 
d="M142 129q-43 43 -64.5 97.5t-21.5 110.5t21.5 110.5t64.5 97.5t97.5 64.5t110.5 21.5t110.5 -22t97.5 -65t64.5 -97t21.5 -110t-21.5 -110.5t-64.5 -97.5t-97.5 -64.5t-110.5 -21.5t-110.5 21.5t-97.5 64.5zM187 173q34 -34 76.5 -50.5t86.5 -16.5t87 17t77 51
q34 33 50.5 75.5t16.5 87t-16.5 87t-50.5 76.5t-77 51t-87 17t-86.5 -17t-76.5 -50q-34 -34 -51 -77t-17 -87.5t17 -87t51 -76.5zM240 417h55v-94l133 133l39 -40l-132 -132h93v-55l-188 -1v189z" />
    <glyph glyph-name="glyph441" horiz-adv-x="699" 
d="M558 129q-43 -43 -97.5 -64.5t-110.5 -21.5t-110.5 21.5t-97.5 64.5t-64.5 97.5t-21.5 110.5t21.5 110t64.5 97t97.5 65t110.5 22t110.5 -21.5t97.5 -64.5t64.5 -97.5t21.5 -110.5t-21.5 -110.5t-64.5 -97.5zM513 173q34 34 51 76.5t17 87t-17 87.5t-51 77
q-34 33 -76.5 50t-86.5 17t-87 -17t-77 -51t-51 -76.5t-17 -87t17 -87t51 -75.5q34 -34 77 -51t87 -17t86.5 16.5t76.5 50.5zM365 284l-132 132l39 40l133 -133v94h55v-189l-188 1v55h93z" />
    <glyph glyph-name="glyph442" horiz-adv-x="699" 
d="M55 336q0 61 23 115t63 94t94 63t115 23t114.5 -23t93.5 -63t63 -94t23 -115t-23 -114.5t-63 -93.5t-93.5 -63t-114.5 -23t-115 23t-94 63t-63 93.5t-23 114.5zM118 336q0 -48 18 -90t49.5 -73.5t74 -49.5t90.5 -18t90 18t73.5 49.5t49.5 73.5t18 90t-18 90t-49.5 73.5
t-73.5 50t-90 18.5t-90.5 -18.5t-74 -50t-49.5 -73.5t-18 -90zM329 471l38 -39l-66 -66h188v-56h-187l65 -66l-38 -39l-134 133z" />
    <glyph glyph-name="glyph443" horiz-adv-x="699" 
d="M644 336q0 -61 -23 -114.5t-63 -93.5t-94 -63t-115 -23t-114.5 23t-93.5 63t-63 93.5t-23 114.5t23 115t63 94t93.5 63t114.5 23t115 -23t94 -63t63 -94t23 -115zM581 336q0 48 -18.5 90t-50 73.5t-73.5 50t-90 18.5t-90 -18.5t-73.5 -50t-49.5 -73.5t-18 -90t18 -90
t49.5 -73.5t73.5 -49.5t90 -18t90 18t73.5 49.5t50 73.5t18.5 90zM397 310h-187v56h188l-66 66l38 39l134 -133l-134 -133l-38 39z" />
    <glyph glyph-name="glyph444" horiz-adv-x="699" 
d="M350 631q61 0 114.5 -23t93.5 -63t63 -94t23 -115t-23 -114.5t-63 -93.5t-93.5 -63t-114.5 -23t-115 23t-94 63t-63 93.5t-23 114.5t23 115t63 94t94 63t115 23zM350 568q-48 0 -90.5 -18.5t-74 -50t-49.5 -73.5t-18 -90t18 -90t49.5 -73.5t74 -49.5t90.5 -18t90 18
t73.5 49.5t49.5 73.5t18 90t-18 90t-49.5 73.5t-73.5 50t-90 18.5zM376 384v-187h-56v188l-66 -66l-39 38l133 134l133 -134l-39 -38z" />
    <glyph glyph-name="glyph445" horiz-adv-x="700" 
d="M142 545q43 43 97.5 64.5t110.5 21.5t110.5 -21.5t97.5 -64.5t64.5 -97.5t21.5 -110.5t-21.5 -110t-64.5 -97q-43 -44 -97.5 -65.5t-110.5 -21.5t-110.5 21.5t-97.5 64.5t-64.5 97.5t-21.5 110.5t21.5 110.5t64.5 97.5zM187 501q-34 -34 -51 -76.5t-17 -87t17 -87.5
t51 -77q34 -33 76.5 -50t86.5 -17t87 17t77 51t50.5 76.5t16.5 87t-16.5 87t-50.5 75.5q-34 34 -77 51t-87 17t-86.5 -16.5t-76.5 -50.5zM335 390l132 -132l-39 -40l-133 133v-94h-55v189l188 -1v-55h-93z" />
    <glyph glyph-name="glyph446" horiz-adv-x="699" 
d="M558 545q43 -43 64.5 -97.5t21.5 -110.5t-21.5 -110.5t-64.5 -97.5t-97.5 -64.5t-110.5 -21.5t-110.5 21.5t-97.5 65.5q-43 43 -64.5 97t-21.5 110t21.5 110.5t64.5 97.5t97.5 64.5t110.5 21.5t110.5 -21.5t97.5 -64.5zM513 501q-34 34 -76.5 50.5t-86.5 16.5t-87 -17
t-77 -51q-34 -33 -51 -75.5t-17 -87t17 -87t51 -76.5t77 -51t87 -17t86.5 17t76.5 50q34 34 51 77t17 87.5t-17 87t-51 76.5zM460 257h-55v94l-133 -133l-39 40l132 132h-93v55l188 1v-189z" />
    <glyph glyph-name="glyph447" horiz-adv-x="699" 
d="M350 42q-61 0 -115 23t-94 63t-63 94t-23 115t23 114.5t63 93.5t94 63t115 23t114.5 -23t93.5 -63t63 -93.5t23 -114.5t-23 -115t-63 -94t-93.5 -63t-114.5 -23zM376 289v187h-56v-188l-66 66l-39 -38l133 -134l133 134l-39 38z" />
    <glyph glyph-name="glyph448" horiz-adv-x="700" 
d="M142 129q-43 43 -64.5 97.5t-21.5 110.5t21.5 110.5t64.5 97.5t97.5 64.5t110.5 21.5t110.5 -22t97.5 -65t64.5 -97t21.5 -110t-21.5 -110.5t-64.5 -97.5t-97.5 -64.5t-110.5 -21.5t-110.5 21.5t-97.5 64.5zM335 284l132 132l-39 40l-133 -133v94h-55v-189l188 1v55h-93z
" />
    <glyph glyph-name="glyph449" horiz-adv-x="699" 
d="M558 129q-43 -43 -97.5 -64.5t-110.5 -21.5t-110.5 21.5t-97.5 64.5t-64.5 97.5t-21.5 110.5t21.5 110t64.5 97t97.5 65t110.5 22t110.5 -21.5t97.5 -64.5t64.5 -97.5t21.5 -110.5t-21.5 -110.5t-64.5 -97.5zM460 417h-55v-94l-133 133l-39 -40l132 -132h-93v-55l188 -1
v189z" />
    <glyph glyph-name="glyph450" horiz-adv-x="699" 
d="M55 336q0 61 23 115t63 94t94 63t115 23t114.5 -23t93.5 -63t63 -94t23 -115t-23 -114.5t-63 -93.5t-93.5 -63t-114.5 -23t-115 23t-94 63t-63 93.5t-23 114.5zM302 310h187v56h-188l66 66l-38 39l-134 -133l134 -133l38 39z" />
    <glyph glyph-name="glyph451" horiz-adv-x="699" 
d="M644 336q0 -61 -23 -114.5t-63 -93.5t-94 -63t-115 -23t-114.5 23t-93.5 63t-63 93.5t-23 114.5t23 115t63 94t93.5 63t114.5 23t115 -23t94 -63t63 -94t23 -115zM370 471l-38 -39l66 -66h-188v-56h187l-65 -66l38 -39l134 133z" />
    <glyph glyph-name="glyph452" horiz-adv-x="699" 
d="M350 631q61 0 114.5 -23t93.5 -63t63 -94t23 -115t-23 -114.5t-63 -93.5t-93.5 -63t-114.5 -23t-115 23t-94 63t-63 93.5t-23 114.5t23 115t63 94t94 63t115 23zM215 357l39 -38l66 66v-188h56v187l66 -65l39 38l-133 134z" />
    <glyph glyph-name="glyph453" horiz-adv-x="700" 
d="M142 545q43 43 97.5 64.5t110.5 21.5t110.5 -21.5t97.5 -64.5t64.5 -97.5t21.5 -110.5t-21.5 -110t-64.5 -97q-43 -44 -97.5 -65.5t-110.5 -21.5t-110.5 21.5t-97.5 64.5t-64.5 97.5t-21.5 110.5t21.5 110.5t64.5 97.5zM240 257h55v94l133 -133l39 40l-132 132h93v55
l-188 1v-189z" />
    <glyph glyph-name="glyph454" horiz-adv-x="699" 
d="M558 545q43 -43 64.5 -97.5t21.5 -110.5t-21.5 -110.5t-64.5 -97.5t-97.5 -64.5t-110.5 -21.5t-110.5 21.5t-97.5 65.5q-43 43 -64.5 97t-21.5 110t21.5 110.5t64.5 97.5t97.5 64.5t110.5 21.5t110.5 -21.5t97.5 -64.5zM365 390l-132 -132l39 -40l133 133v-94h55v189
l-188 -1v-55h93z" />
    <glyph glyph-name="glyph455" horiz-adv-x="696" 
d="M348 141l-71 71l-188 190l70 70l189 -189l188 188l70 -71l-187 -188z" />
    <glyph glyph-name="glyph456" horiz-adv-x="696" 
d="M348 351l-189 -190l-70 71l188 190l71 71l71 -71l187 -188l-70 -71z" />
    <glyph glyph-name="glyph457" horiz-adv-x="550" 
d="M427 151l-71 -70l-188 187l-71 71l71 71l190 188l71 -70l-190 -189z" />
    <glyph glyph-name="glyph458" horiz-adv-x="550" 
d="M194 81l-71 70l188 188l-190 189l71 70l190 -188l71 -71l-71 -71z" />
    <glyph glyph-name="glyph478" horiz-adv-x="582" 
d="M291 695q50 0 93 -17.5t74.5 -48.5t49.5 -73t18 -91q0 -50 -18 -92.5t-49.5 -73t-74.5 -48t-93 -17.5t-93 17.5t-74.5 48t-49.5 73t-18 92.5q0 49 18 91t49.5 73t74.5 48.5t93 17.5zM291 650q-40 0 -74 -14t-59 -39t-39 -59t-14 -73q0 -40 14 -74.5t39 -59.5t59 -39
t74 -14t74.5 14t59.5 39t39 59.5t14 74.5q0 39 -14 73t-39 59t-59.5 39t-74.5 14zM295 580q42 0 67 -22t25 -59q0 -21 -10.5 -37.5t-29.5 -26.5l50 -77h-66l-42 64h-28v-64h-52v220q23 1 44.5 1.5t41.5 0.5zM261 471h41q14 0 22 8.5t8 19.5q0 32 -35 32l-36 -1v-59z" />
    <glyph glyph-name="glyph481" horiz-adv-x="1024" 
d="M512 777q103 0 187 -32t144 -90t93 -140t33 -182q0 -64 -16.5 -110.5t-45.5 -76.5t-68 -44.5t-84 -14.5q-48 0 -79 14.5t-47 47.5q-36 -29 -75 -45.5t-89 -16.5t-90.5 17.5t-69.5 49.5t-45 77t-16 100q1 52 16 95.5t44 75t71.5 48.5t96.5 17q52 0 90.5 -2.5t67.5 -6
t51 -7.5t40 -6v-298q0 -44 10 -63.5t42 -19.5q25 0 49.5 7.5t43.5 26t31 51.5t12 84q0 87 -28.5 158t-81 122t-125.5 78.5t-162 27.5q-84 0 -157 -29.5t-126 -81t-83.5 -122.5t-30.5 -153q0 -83 27.5 -153.5t77 -122.5t119 -81.5t153.5 -30.5q65 0 127.5 10t137.5 27l11 -54
q-73 -19 -138.5 -30t-137.5 -11q-98 0 -178.5 34t-138 93.5t-89 141t-31.5 177.5q0 95 34.5 176.5t96 141t145 93t181.5 33.5zM489 474q-37 0 -63 -11.5t-42.5 -31t-24 -46.5t-7.5 -58q0 -32 9 -59.5t25.5 -47t40 -30.5t52.5 -11q33 0 66 11.5t68 39.5q-1 8 -1.5 17.5
t-0.5 18.5v200q-28 5 -57.5 6.5t-64.5 1.5z" />
    <glyph glyph-name="glyph482" horiz-adv-x="319" 
d="M213 -129h-107v918h107v-918z" />
    <glyph glyph-name="glyph483" horiz-adv-x="319" 
d="M106 380v408h107v-408h-107zM106 -130v408h107v-408h-107z" />
    <glyph glyph-name="glyph497" 
d="M328 478h-87l6 202h117z" />
    <glyph glyph-name="glyph498" 
d="M361 749h-121l84 142h154z" />
    <glyph glyph-name="glyph499" 
d="M456 899q0 -72 -42 -111.5t-114 -39.5t-114 39.5t-42 111.5h98q0 -33 16 -47t42 -14q25 0 41 14t16 47h99z" />
    <glyph glyph-name="glyph500" 
d="M249 737l-120 152h114l57 -73l58 73h114l-121 -152h-102z" />
    <glyph glyph-name="glyph501" 
d="M242 749h-113l120 142h102l121 -142h-114l-58 72z" />
    <glyph glyph-name="glyph502" 
d="M193 747q-31 0 -52 20.5t-21 49.5q0 30 21 50.5t52 20.5q30 0 51 -20.5t21 -50.5q0 -29 -21 -49.5t-51 -20.5zM406 747q-30 0 -51 20.5t-21 49.5q0 30 21 50.5t51 20.5q31 0 52 -20.5t21 -50.5q0 -29 -21 -49.5t-52 -20.5z" />
    <glyph glyph-name="glyph503" 
d="M300 747q-30 0 -51.5 20.5t-21.5 49.5q0 30 21.5 50.5t51.5 20.5t51.5 -20.5t21.5 -50.5q0 -29 -21.5 -49.5t-51.5 -20.5z" />
    <glyph glyph-name="glyph504" 
d="M239 749l-117 142h154l76 -142h-113z" />
    <glyph glyph-name="glyph505" 
d="M280 749h-104l48 142h114zM434 749h-103l47 142h114z" />
    <glyph glyph-name="glyph506" 
d="M456 772h-312v93h312v-93z" />
    <glyph glyph-name="glyph507" 
d="M297 940q51 0 81.5 -28t30.5 -76t-30.5 -76.5t-81.5 -28.5q-50 0 -80.5 28.5t-30.5 76.5t30.5 76t80.5 28zM297 790q21 0 33.5 12.5t12.5 33.5q0 20 -12.5 32.5t-33.5 12.5q-20 0 -33 -12.5t-13 -32.5q0 -21 13 -33.5t33 -12.5z" />
    <glyph glyph-name="glyph508" 
d="M479 872q0 -45 -17 -73.5t-42 -41t-54 -11.5t-52 15l-49 31q-26 15 -37.5 3t-11.5 -30h-93q0 45 17 73.5t42.5 41t54 11.5t51.5 -14l50 -31q26 -15 37.5 -3.5t11.5 29.5h92z" />
    </font>
</defs>
</svg>
